<svg xmlns="http://www.w3.org/2000/svg" width="1200" height="630" viewBox="0 0 1200 630" role="img" aria-label="Riftwilds — I hatched a Riftling">
  <defs>
    <linearGradient id="hatch-sky" x1="0" y1="0" x2="1" y2="1">
      <stop offset="0%" stop-color="#1a1510"/>
      <stop offset="42%" stop-color="#0c141f"/>
      <stop offset="100%" stop-color="#12161c"/>
    </linearGradient>
    <radialGradient id="hatch-bloomL" cx="18%" cy="22%" r="48%">
      <stop offset="0%" stop-color="#3de7ff" stop-opacity="0.42"/>
      <stop offset="100%" stop-color="#3de7ff" stop-opacity="0"/>
    </radialGradient>
    <radialGradient id="hatch-bloomR" cx="82%" cy="38%" r="42%">
      <stop offset="0%" stop-color="#ffb84d" stop-opacity="0.18"/>
      <stop offset="100%" stop-color="#ffb84d" stop-opacity="0"/>
    </radialGradient>
    <linearGradient id="hatch-bar" x1="0" y1="0" x2="0" y2="1">
      <stop offset="0%" stop-color="#0a0c10" stop-opacity="0"/>
      <stop offset="55%" stop-color="#0a0c10" stop-opacity="0.55"/>
      <stop offset="100%" stop-color="#0a0c10" stop-opacity="0.88"/>
    </linearGradient>
    <linearGradient id="hatch-btn" x1="0" y1="0" x2="0" y2="1">
      <stop offset="0%" stop-color="#3de7ff"/>
      <stop offset="100%" stop-color="#3de7ff" stop-opacity="0.82"/>
    </linearGradient>
    <filter id="hatch-soft" x="-20%" y="-20%" width="140%" height="140%">
      <feGaussianBlur stdDeviation="8"/>
    </filter>
  </defs>

  <!-- Atmosphere -->
  <rect width="1200" height="630" fill="url(#hatch-sky)"/>
  <rect width="1200" height="630" fill="url(#hatch-bloomL)"/>
  <rect width="1200" height="630" fill="url(#hatch-bloomR)"/>
  <circle cx="980" cy="120" r="3" fill="#f3efe6" opacity="0.55"/>
  <circle cx="1040" cy="90" r="2" fill="#f3efe6" opacity="0.4"/>
  <circle cx="860" cy="70" r="2.5" fill="#3de7ff" opacity="0.45"/>
  <circle cx="720" cy="110" r="1.8" fill="#f3efe6" opacity="0.35"/>
  <circle cx="1120" cy="200" r="2" fill="#ffb84d" opacity="0.4"/>

  <!-- Scene art (right half) -->
  <g transform="translate(620,40)">
  <ellipse cx="280" cy="480" rx="200" ry="36" fill="#1a2a1a" opacity="0.55"/>
  <path d="M80 470c40-50 90-70 160-70s130 30 170 80c-40 20-100 36-170 36s-120-18-160-46Z" fill="#3dffb0" opacity="0.28"/>
  <path d="M120 450c30-28 60-36 100-36s70 10 100 36c-24 14-60 22-100 22s-76-8-100-22Z" fill="#5aad62" opacity="0.55"/>
  <!-- cracked egg -->
  <ellipse cx="280" cy="300" rx="110" ry="148" fill="#e8d5b0"/>
  <ellipse cx="280" cy="300" rx="88" ry="120" fill="#f3efe6"/>
  <path d="M210 240c40-18 80 8 100 40" stroke="#3de7ff" stroke-width="8" fill="none" stroke-linecap="round" opacity="0.75"/>
  <circle cx="280" cy="320" r="22" fill="#ffb84d"/>
  <circle cx="280" cy="320" r="10" fill="#fff6d0" opacity="0.8"/>
  <!-- crack lines -->
  <path d="M280 160 L268 210 L292 230 L270 270" stroke="#1a1510" stroke-width="4" fill="none" opacity="0.35"/>
  <path d="M320 190 L350 230 L330 250" stroke="#1a1510" stroke-width="3.5" fill="none" opacity="0.3"/>
  <!-- cyan rift bloom -->
  <ellipse cx="280" cy="200" rx="70" ry="40" fill="#3de7ff" opacity="0.25" filter="url(#hatch-soft)"/>
  <!-- tiny Spark peek -->
  <g transform="translate(360,180)">
    <ellipse cx="0" cy="20" rx="36" ry="32" fill="#ffe566"/>
    <circle cx="-10" cy="14" r="5" fill="#2a2118"/>
    <circle cx="10" cy="14" r="5" fill="#2a2118"/>
    <path d="M-8 28c6 7 16 7 22 0" stroke="#2a2118" stroke-width="3" fill="none" stroke-linecap="round"/>
    <path d="M0 -28l6 16 16 3-12 12 3 16-13-8-13 8 3-16-12-12 16-3 6-16Z" fill="#ffb84d"/>
  </g>
  <!-- hatch rings -->
  <circle cx="280" cy="300" r="170" fill="none" stroke="#3de7ff" stroke-width="3" opacity="0.28"/>
  <circle cx="280" cy="300" r="200" fill="none" stroke="#ffb84d" stroke-width="2" opacity="0.2" stroke-dasharray="10 14"/>
</g>

  <!-- Left readability veil -->
  <rect x="0" y="0" width="620" height="630" fill="url(#hatch-bar)" opacity="0.35"/>
  <path d="M0 0 H560 Q640 0 640 80 V550 Q640 630 560 630 H0 Z" fill="#0a0c10" opacity="0.42"/>

  <!-- Frame -->
  <rect x="28" y="28" width="1144" height="574" rx="22" fill="none" stroke="#c4a882" stroke-opacity="0.38" stroke-width="2.5"/>
  <rect x="40" y="40" width="1120" height="550" rx="16" fill="none" stroke="#3de7ff" stroke-opacity="0.18" stroke-width="1.5"/>

  <!-- Brand egg mark -->
  <g transform="translate(72,72)">
    <ellipse cx="22" cy="28" rx="18" ry="24" fill="#1a2030" stroke="#c9a15a" stroke-width="2"/>
    <ellipse cx="22" cy="28" rx="10" ry="14" fill="#3de7ff" opacity="0.55"/>
    <circle cx="22" cy="30" r="5" fill="#ffb84d"/>
  </g>
  <text x="118" y="108" fill="#ffb84d" font-family="Georgia, 'Times New Roman', serif" font-size="26" letter-spacing="7" font-weight="700">RIFTWILDS</text>
  <text x="118" y="132" fill="#a89b86" font-family="Georgia, 'Times New Roman', serif" font-size="14" letter-spacing="3">SHAREABLE MOMENT</text>

  <!-- Copy -->
  <text x="72" y="280" fill="#f3efe6" font-family="Georgia, 'Times New Roman', serif" font-size="54" font-weight="700">I hatched a Riftling</text>
  <text x="72" y="340" fill="#c4b8a4" font-family="Georgia, 'Times New Roman', serif" font-size="26">Free egg · Care · Explore the Rift</text>

  <!-- CTA chip -->
  <rect x="72" y="420" width="168" height="52" rx="12" fill="url(#hatch-btn)"/>
  <text x="156" y="454" text-anchor="middle" fill="#0c0e12" font-family="Georgia, 'Times New Roman', serif" font-size="20" font-weight="700">Hatch free</text>

  <text x="72" y="540" fill="#7a7268" font-family="Georgia, 'Times New Roman', serif" font-size="15">riftwilds.com · Free for Keepers, kids &amp; streamers</text>
</svg>