<svg xmlns="http://www.w3.org/2000/svg" width="1200" height="630" viewBox="0 0 1200 630" role="img" aria-label="Riftwilds — Listen to the Rift">
  <defs>
    <linearGradient id="listen-sky" x1="0" y1="0" x2="1" y2="1">
      <stop offset="0%" stop-color="#1a1510"/>
      <stop offset="42%" stop-color="#0c141f"/>
      <stop offset="100%" stop-color="#12161c"/>
    </linearGradient>
    <radialGradient id="listen-bloomL" cx="18%" cy="22%" r="48%">
      <stop offset="0%" stop-color="#3d9bff" stop-opacity="0.42"/>
      <stop offset="100%" stop-color="#3d9bff" stop-opacity="0"/>
    </radialGradient>
    <radialGradient id="listen-bloomR" cx="82%" cy="38%" r="42%">
      <stop offset="0%" stop-color="#ffb84d" stop-opacity="0.18"/>
      <stop offset="100%" stop-color="#ffb84d" stop-opacity="0"/>
    </radialGradient>
    <linearGradient id="listen-bar" x1="0" y1="0" x2="0" y2="1">
      <stop offset="0%" stop-color="#0a0c10" stop-opacity="0"/>
      <stop offset="55%" stop-color="#0a0c10" stop-opacity="0.55"/>
      <stop offset="100%" stop-color="#0a0c10" stop-opacity="0.88"/>
    </linearGradient>
    <linearGradient id="listen-btn" x1="0" y1="0" x2="0" y2="1">
      <stop offset="0%" stop-color="#3d9bff"/>
      <stop offset="100%" stop-color="#3d9bff" stop-opacity="0.82"/>
    </linearGradient>
    <filter id="listen-soft" x="-20%" y="-20%" width="140%" height="140%">
      <feGaussianBlur stdDeviation="8"/>
    </filter>
  </defs>

  <!-- Atmosphere -->
  <rect width="1200" height="630" fill="url(#listen-sky)"/>
  <rect width="1200" height="630" fill="url(#listen-bloomL)"/>
  <rect width="1200" height="630" fill="url(#listen-bloomR)"/>
  <circle cx="980" cy="120" r="3" fill="#f3efe6" opacity="0.55"/>
  <circle cx="1040" cy="90" r="2" fill="#f3efe6" opacity="0.4"/>
  <circle cx="860" cy="70" r="2.5" fill="#3de7ff" opacity="0.45"/>
  <circle cx="720" cy="110" r="1.8" fill="#f3efe6" opacity="0.35"/>
  <circle cx="1120" cy="200" r="2" fill="#ffb84d" opacity="0.4"/>

  <!-- Scene art (right half) -->
  <g transform="translate(620,40)">
  <!-- vinyl / rift disc -->
  <circle cx="280" cy="300" r="190" fill="#0a1020" stroke="#3d9bff" stroke-width="6"/>
  <circle cx="280" cy="300" r="160" fill="none" stroke="#3de7ff" stroke-width="2" opacity="0.35"/>
  <circle cx="280" cy="300" r="130" fill="none" stroke="#3d9bff" stroke-width="2" opacity="0.4"/>
  <circle cx="280" cy="300" r="100" fill="none" stroke="#a8e7ff" stroke-width="2" opacity="0.3"/>
  <circle cx="280" cy="300" r="48" fill="#1a1510" stroke="#ffb84d" stroke-width="4"/>
  <circle cx="280" cy="300" r="16" fill="#3de7ff"/>
  <!-- sound waves -->
  <path d="M480 200 Q560 300 480 400" fill="none" stroke="#3d9bff" stroke-width="6" opacity="0.55" stroke-linecap="round"/>
  <path d="M510 160 Q620 300 510 440" fill="none" stroke="#3de7ff" stroke-width="5" opacity="0.4" stroke-linecap="round"/>
  <path d="M540 120 Q680 300 540 480" fill="none" stroke="#a8e7ff" stroke-width="4" opacity="0.28" stroke-linecap="round"/>
  <!-- left waves -->
  <path d="M80 200 Q0 300 80 400" fill="none" stroke="#3d9bff" stroke-width="5" opacity="0.35" stroke-linecap="round"/>
  <path d="M50 160 Q-60 300 50 440" fill="none" stroke="#3de7ff" stroke-width="4" opacity="0.25" stroke-linecap="round"/>
  <!-- note accents -->
  <g transform="translate(420,120)" fill="#ffb84d">
    <ellipse cx="0" cy="28" rx="14" ry="10"/>
    <rect x="10" y="-20" width="5" height="48" rx="2"/>
    <path d="M15 -20c20 0 28 12 28 24" fill="none" stroke="#ffb84d" stroke-width="4"/>
  </g>
  <g transform="translate(100,140)" fill="#3de7ff" opacity="0.85">
    <ellipse cx="0" cy="22" rx="12" ry="8"/>
    <rect x="8" y="-16" width="4" height="40" rx="2"/>
  </g>
</g>

  <!-- Left readability veil -->
  <rect x="0" y="0" width="620" height="630" fill="url(#listen-bar)" opacity="0.35"/>
  <path d="M0 0 H560 Q640 0 640 80 V550 Q640 630 560 630 H0 Z" fill="#0a0c10" opacity="0.42"/>

  <!-- Frame -->
  <rect x="28" y="28" width="1144" height="574" rx="22" fill="none" stroke="#c4a882" stroke-opacity="0.38" stroke-width="2.5"/>
  <rect x="40" y="40" width="1120" height="550" rx="16" fill="none" stroke="#3d9bff" stroke-opacity="0.18" stroke-width="1.5"/>

  <!-- Brand egg mark -->
  <g transform="translate(72,72)">
    <ellipse cx="22" cy="28" rx="18" ry="24" fill="#1a2030" stroke="#c9a15a" stroke-width="2"/>
    <ellipse cx="22" cy="28" rx="10" ry="14" fill="#3de7ff" opacity="0.55"/>
    <circle cx="22" cy="30" r="5" fill="#ffb84d"/>
  </g>
  <text x="118" y="108" fill="#ffb84d" font-family="Georgia, 'Times New Roman', serif" font-size="26" letter-spacing="7" font-weight="700">RIFTWILDS</text>
  <text x="118" y="132" fill="#a89b86" font-family="Georgia, 'Times New Roman', serif" font-size="14" letter-spacing="3">SHAREABLE MOMENT</text>

  <!-- Copy -->
  <text x="72" y="280" fill="#f3efe6" font-family="Georgia, 'Times New Roman', serif" font-size="54" font-weight="700">Listen to the Rift</text>
  <text x="72" y="340" fill="#c4b8a4" font-family="Georgia, 'Times New Roman', serif" font-size="26">Soundtrack ambience teasers</text>

  <!-- CTA chip -->
  <rect x="72" y="420" width="168" height="52" rx="12" fill="url(#listen-btn)"/>
  <text x="156" y="454" text-anchor="middle" fill="#0c0e12" font-family="Georgia, 'Times New Roman', serif" font-size="20" font-weight="700">Listen</text>

  <text x="72" y="540" fill="#7a7268" font-family="Georgia, 'Times New Roman', serif" font-size="15">riftwilds.com · Free for Keepers, kids &amp; streamers</text>
</svg>