<svg xmlns="http://www.w3.org/2000/svg" width="1200" height="630" viewBox="0 0 1200 630" role="img" aria-label="Riftwilds — Kids coloring pack">
  <defs>
    <linearGradient id="coloring-sky" x1="0" y1="0" x2="1" y2="1">
      <stop offset="0%" stop-color="#1a1510"/>
      <stop offset="42%" stop-color="#0c141f"/>
      <stop offset="100%" stop-color="#12161c"/>
    </linearGradient>
    <radialGradient id="coloring-bloomL" cx="18%" cy="22%" r="48%">
      <stop offset="0%" stop-color="#ff6b6b" stop-opacity="0.42"/>
      <stop offset="100%" stop-color="#ff6b6b" stop-opacity="0"/>
    </radialGradient>
    <radialGradient id="coloring-bloomR" cx="82%" cy="38%" r="42%">
      <stop offset="0%" stop-color="#ffb84d" stop-opacity="0.18"/>
      <stop offset="100%" stop-color="#ffb84d" stop-opacity="0"/>
    </radialGradient>
    <linearGradient id="coloring-bar" x1="0" y1="0" x2="0" y2="1">
      <stop offset="0%" stop-color="#0a0c10" stop-opacity="0"/>
      <stop offset="55%" stop-color="#0a0c10" stop-opacity="0.55"/>
      <stop offset="100%" stop-color="#0a0c10" stop-opacity="0.88"/>
    </linearGradient>
    <linearGradient id="coloring-btn" x1="0" y1="0" x2="0" y2="1">
      <stop offset="0%" stop-color="#ff6b6b"/>
      <stop offset="100%" stop-color="#ff6b6b" stop-opacity="0.82"/>
    </linearGradient>
    <filter id="coloring-soft" x="-20%" y="-20%" width="140%" height="140%">
      <feGaussianBlur stdDeviation="8"/>
    </filter>
  </defs>

  <!-- Atmosphere -->
  <rect width="1200" height="630" fill="url(#coloring-sky)"/>
  <rect width="1200" height="630" fill="url(#coloring-bloomL)"/>
  <rect width="1200" height="630" fill="url(#coloring-bloomR)"/>
  <circle cx="980" cy="120" r="3" fill="#f3efe6" opacity="0.55"/>
  <circle cx="1040" cy="90" r="2" fill="#f3efe6" opacity="0.4"/>
  <circle cx="860" cy="70" r="2.5" fill="#3de7ff" opacity="0.45"/>
  <circle cx="720" cy="110" r="1.8" fill="#f3efe6" opacity="0.35"/>
  <circle cx="1120" cy="200" r="2" fill="#ffb84d" opacity="0.4"/>

  <!-- Scene art (right half) -->
  <g transform="translate(620,40)">
  <!-- paper sheet -->
  <rect x="100" y="80" width="340" height="420" rx="12" fill="#f3efe6" stroke="#c4a882" stroke-width="4"/>
  <rect x="120" y="100" width="300" height="360" rx="6" fill="#fffdf8"/>
  <!-- line-art Spark -->
  <g transform="translate(270,260)" fill="none" stroke="#2a2118" stroke-width="4" stroke-linecap="round" stroke-linejoin="round">
    <ellipse cx="0" cy="20" rx="70" ry="60"/>
    <circle cx="-22" cy="8" r="8"/>
    <circle cx="22" cy="8" r="8"/>
    <path d="M-18 36c12 14 36 14 48 0"/>
    <path d="M0 -70l12 32 34 6-26 24 8 34-28-18-28 18 8-34-26-24 34-6 12-32Z"/>
    <ellipse cx="-58" cy="40" rx="16" ry="22" transform="rotate(-25 -58 40)"/>
    <ellipse cx="58" cy="40" rx="16" ry="22" transform="rotate(25 58 40)"/>
  </g>
  <!-- crayons -->
  <g transform="translate(420,140) rotate(28)">
    <rect x="0" y="0" width="22" height="160" rx="6" fill="#ff6b6b"/>
    <polygon points="0,0 22,0 11,-28" fill="#ff9a9a"/>
  </g>
  <g transform="translate(460,180) rotate(18)">
    <rect x="0" y="0" width="22" height="150" rx="6" fill="#3de7ff"/>
    <polygon points="0,0 22,0 11,-28" fill="#a8e7ff"/>
  </g>
  <g transform="translate(500,220) rotate(8)">
    <rect x="0" y="0" width="22" height="140" rx="6" fill="#ffb84d"/>
    <polygon points="0,0 22,0 11,-28" fill="#ffe566"/>
  </g>
  <!-- color dabs -->
  <circle cx="150" cy="420" r="16" fill="#ff6b6b" opacity="0.7"/>
  <circle cx="190" cy="440" r="12" fill="#3dffb0" opacity="0.7"/>
  <circle cx="170" cy="460" r="10" fill="#3de7ff" opacity="0.7"/>
</g>

  <!-- Left readability veil -->
  <rect x="0" y="0" width="620" height="630" fill="url(#coloring-bar)" opacity="0.35"/>
  <path d="M0 0 H560 Q640 0 640 80 V550 Q640 630 560 630 H0 Z" fill="#0a0c10" opacity="0.42"/>

  <!-- Frame -->
  <rect x="28" y="28" width="1144" height="574" rx="22" fill="none" stroke="#c4a882" stroke-opacity="0.38" stroke-width="2.5"/>
  <rect x="40" y="40" width="1120" height="550" rx="16" fill="none" stroke="#ff6b6b" stroke-opacity="0.18" stroke-width="1.5"/>

  <!-- Brand egg mark -->
  <g transform="translate(72,72)">
    <ellipse cx="22" cy="28" rx="18" ry="24" fill="#1a2030" stroke="#c9a15a" stroke-width="2"/>
    <ellipse cx="22" cy="28" rx="10" ry="14" fill="#3de7ff" opacity="0.55"/>
    <circle cx="22" cy="30" r="5" fill="#ffb84d"/>
  </g>
  <text x="118" y="108" fill="#ffb84d" font-family="Georgia, 'Times New Roman', serif" font-size="26" letter-spacing="7" font-weight="700">RIFTWILDS</text>
  <text x="118" y="132" fill="#a89b86" font-family="Georgia, 'Times New Roman', serif" font-size="14" letter-spacing="3">SHAREABLE MOMENT</text>

  <!-- Copy -->
  <text x="72" y="280" fill="#f3efe6" font-family="Georgia, 'Times New Roman', serif" font-size="54" font-weight="700">Kids coloring pack</text>
  <text x="72" y="340" fill="#c4b8a4" font-family="Georgia, 'Times New Roman', serif" font-size="26">28 printable pages · free for families</text>

  <!-- CTA chip -->
  <rect x="72" y="420" width="252" height="52" rx="12" fill="url(#coloring-btn)"/>
  <text x="198" y="454" text-anchor="middle" fill="#0c0e12" font-family="Georgia, 'Times New Roman', serif" font-size="20" font-weight="700">Color &amp; print</text>

  <text x="72" y="540" fill="#7a7268" font-family="Georgia, 'Times New Roman', serif" font-size="15">riftwilds.com · Free for Keepers, kids &amp; streamers</text>
</svg>