<svg xmlns="http://www.w3.org/2000/svg" width="1200" height="630" viewBox="0 0 1200 630" role="img" aria-label="Riftwilds — Become a Keeper">
  <defs>
    <linearGradient id="keeper-sky" x1="0" y1="0" x2="1" y2="1">
      <stop offset="0%" stop-color="#1a1510"/>
      <stop offset="42%" stop-color="#0c141f"/>
      <stop offset="100%" stop-color="#12161c"/>
    </linearGradient>
    <radialGradient id="keeper-bloomL" cx="18%" cy="22%" r="48%">
      <stop offset="0%" stop-color="#c4a882" stop-opacity="0.42"/>
      <stop offset="100%" stop-color="#c4a882" stop-opacity="0"/>
    </radialGradient>
    <radialGradient id="keeper-bloomR" cx="82%" cy="38%" r="42%">
      <stop offset="0%" stop-color="#ffb84d" stop-opacity="0.18"/>
      <stop offset="100%" stop-color="#ffb84d" stop-opacity="0"/>
    </radialGradient>
    <linearGradient id="keeper-bar" x1="0" y1="0" x2="0" y2="1">
      <stop offset="0%" stop-color="#0a0c10" stop-opacity="0"/>
      <stop offset="55%" stop-color="#0a0c10" stop-opacity="0.55"/>
      <stop offset="100%" stop-color="#0a0c10" stop-opacity="0.88"/>
    </linearGradient>
    <linearGradient id="keeper-btn" x1="0" y1="0" x2="0" y2="1">
      <stop offset="0%" stop-color="#c4a882"/>
      <stop offset="100%" stop-color="#c4a882" stop-opacity="0.82"/>
    </linearGradient>
    <filter id="keeper-soft" x="-20%" y="-20%" width="140%" height="140%">
      <feGaussianBlur stdDeviation="8"/>
    </filter>
  </defs>

  <!-- Atmosphere -->
  <rect width="1200" height="630" fill="url(#keeper-sky)"/>
  <rect width="1200" height="630" fill="url(#keeper-bloomL)"/>
  <rect width="1200" height="630" fill="url(#keeper-bloomR)"/>
  <circle cx="980" cy="120" r="3" fill="#f3efe6" opacity="0.55"/>
  <circle cx="1040" cy="90" r="2" fill="#f3efe6" opacity="0.4"/>
  <circle cx="860" cy="70" r="2.5" fill="#3de7ff" opacity="0.45"/>
  <circle cx="720" cy="110" r="1.8" fill="#f3efe6" opacity="0.35"/>
  <circle cx="1120" cy="200" r="2" fill="#ffb84d" opacity="0.4"/>

  <!-- Scene art (right half) -->
  <g transform="translate(620,40)">
  <!-- parchment seal -->
  <ellipse cx="280" cy="300" rx="180" ry="180" fill="#c4a882" opacity="0.25"/>
  <circle cx="280" cy="300" r="150" fill="none" stroke="#c4a882" stroke-width="14"/>
  <circle cx="280" cy="300" r="128" fill="none" stroke="#8b5a3c" stroke-width="6"/>
  <circle cx="280" cy="300" r="112" fill="#1a1814" stroke="#e8d5b0" stroke-width="3"/>
  <!-- egg crest -->
  <ellipse cx="280" cy="280" rx="42" ry="56" fill="#e8d5b0"/>
  <ellipse cx="280" cy="280" rx="28" ry="38" fill="#f3efe6"/>
  <path d="M255 255c18-8 36 4 48 22" stroke="#3de7ff" stroke-width="5" fill="none" stroke-linecap="round"/>
  <circle cx="280" cy="295" r="10" fill="#ffb84d"/>
  <!-- star -->
  <path d="M280 180l10 24 26 4-20 18 6 26-22-12-22 12 6-26-20-18 26-4 10-24Z" fill="#ffb84d"/>
  <!-- cape / cloak hint -->
  <path d="M200 360c30-40 80-50 160-50s130 10 160 50c-20 50-80 90-160 90s-140-40-160-90Z" fill="#3de7ff" opacity="0.2"/>
  <path d="M220 370c24-28 60-36 120-36s96 8 120 36c-16 36-60 64-120 64s-104-28-120-64Z" fill="#c4a882" opacity="0.35"/>
  <text x="280" y="480" text-anchor="middle" fill="#ffb84d" font-family="Georgia, serif" font-size="18" letter-spacing="4">KEEPER</text>
</g>

  <!-- Left readability veil -->
  <rect x="0" y="0" width="620" height="630" fill="url(#keeper-bar)" opacity="0.35"/>
  <path d="M0 0 H560 Q640 0 640 80 V550 Q640 630 560 630 H0 Z" fill="#0a0c10" opacity="0.42"/>

  <!-- Frame -->
  <rect x="28" y="28" width="1144" height="574" rx="22" fill="none" stroke="#c4a882" stroke-opacity="0.38" stroke-width="2.5"/>
  <rect x="40" y="40" width="1120" height="550" rx="16" fill="none" stroke="#c4a882" stroke-opacity="0.18" stroke-width="1.5"/>

  <!-- Brand egg mark -->
  <g transform="translate(72,72)">
    <ellipse cx="22" cy="28" rx="18" ry="24" fill="#1a2030" stroke="#c9a15a" stroke-width="2"/>
    <ellipse cx="22" cy="28" rx="10" ry="14" fill="#3de7ff" opacity="0.55"/>
    <circle cx="22" cy="30" r="5" fill="#ffb84d"/>
  </g>
  <text x="118" y="108" fill="#ffb84d" font-family="Georgia, 'Times New Roman', serif" font-size="26" letter-spacing="7" font-weight="700">RIFTWILDS</text>
  <text x="118" y="132" fill="#a89b86" font-family="Georgia, 'Times New Roman', serif" font-size="14" letter-spacing="3">SHAREABLE MOMENT</text>

  <!-- Copy -->
  <text x="72" y="280" fill="#f3efe6" font-family="Georgia, 'Times New Roman', serif" font-size="54" font-weight="700">Become a Keeper</text>
  <text x="72" y="340" fill="#c4b8a4" font-family="Georgia, 'Times New Roman', serif" font-size="26">Story first · Credits ≠ SOL</text>

  <!-- CTA chip -->
  <rect x="72" y="420" width="228" height="52" rx="12" fill="url(#keeper-btn)"/>
  <text x="186" y="454" text-anchor="middle" fill="#0c0e12" font-family="Georgia, 'Times New Roman', serif" font-size="20" font-weight="700">Learn the story</text>

  <text x="72" y="540" fill="#7a7268" font-family="Georgia, 'Times New Roman', serif" font-size="15">riftwilds.com · Free for Keepers, kids &amp; streamers</text>
</svg>