<svg xmlns="http://www.w3.org/2000/svg" width="1200" height="630" viewBox="0 0 1200 630" role="img" aria-label="Riftwilds — Legends of the Rift">
  <defs>
    <linearGradient id="comics-sky" x1="0" y1="0" x2="1" y2="1">
      <stop offset="0%" stop-color="#1a1510"/>
      <stop offset="42%" stop-color="#0c141f"/>
      <stop offset="100%" stop-color="#12161c"/>
    </linearGradient>
    <radialGradient id="comics-bloomL" cx="18%" cy="22%" r="48%">
      <stop offset="0%" stop-color="#ffb84d" stop-opacity="0.42"/>
      <stop offset="100%" stop-color="#ffb84d" stop-opacity="0"/>
    </radialGradient>
    <radialGradient id="comics-bloomR" cx="82%" cy="38%" r="42%">
      <stop offset="0%" stop-color="#ffb84d" stop-opacity="0.18"/>
      <stop offset="100%" stop-color="#ffb84d" stop-opacity="0"/>
    </radialGradient>
    <linearGradient id="comics-bar" x1="0" y1="0" x2="0" y2="1">
      <stop offset="0%" stop-color="#0a0c10" stop-opacity="0"/>
      <stop offset="55%" stop-color="#0a0c10" stop-opacity="0.55"/>
      <stop offset="100%" stop-color="#0a0c10" stop-opacity="0.88"/>
    </linearGradient>
    <linearGradient id="comics-btn" x1="0" y1="0" x2="0" y2="1">
      <stop offset="0%" stop-color="#ffb84d"/>
      <stop offset="100%" stop-color="#ffb84d" stop-opacity="0.82"/>
    </linearGradient>
    <filter id="comics-soft" x="-20%" y="-20%" width="140%" height="140%">
      <feGaussianBlur stdDeviation="8"/>
    </filter>
  </defs>

  <!-- Atmosphere -->
  <rect width="1200" height="630" fill="url(#comics-sky)"/>
  <rect width="1200" height="630" fill="url(#comics-bloomL)"/>
  <rect width="1200" height="630" fill="url(#comics-bloomR)"/>
  <circle cx="980" cy="120" r="3" fill="#f3efe6" opacity="0.55"/>
  <circle cx="1040" cy="90" r="2" fill="#f3efe6" opacity="0.4"/>
  <circle cx="860" cy="70" r="2.5" fill="#3de7ff" opacity="0.45"/>
  <circle cx="720" cy="110" r="1.8" fill="#f3efe6" opacity="0.35"/>
  <circle cx="1120" cy="200" r="2" fill="#ffb84d" opacity="0.4"/>

  <!-- Scene art (right half) -->
  <g transform="translate(620,40)">
  <!-- stacked comic pages -->
  <g transform="rotate(-8 280 300)">
    <rect x="140" y="120" width="280" height="380" rx="10" fill="#2a2118" stroke="#c4a882" stroke-width="4"/>
    <rect x="156" y="136" width="248" height="300" rx="6" fill="#0f1826"/>
    <rect x="170" y="156" width="100" height="70" rx="4" fill="#ffb84d" opacity="0.55"/>
    <rect x="284" y="156" width="100" height="70" rx="4" fill="#3de7ff" opacity="0.4"/>
    <rect x="170" y="240" width="214" height="90" rx="4" fill="#c4a882" opacity="0.25"/>
    <rect x="170" y="346" width="140" height="60" rx="4" fill="#ff6b6b" opacity="0.35"/>
    <rect x="324" y="346" width="60" height="60" rx="4" fill="#3dffb0" opacity="0.3"/>
    <text x="280" y="470" text-anchor="middle" fill="#ffb84d" font-family="Georgia, serif" font-size="18" letter-spacing="2">LEGENDS</text>
  </g>
  <g transform="rotate(6 320 280)">
    <rect x="200" y="80" width="260" height="360" rx="10" fill="#1a1510" stroke="#ffb84d" stroke-width="3" opacity="0.95"/>
    <rect x="216" y="96" width="228" height="280" rx="6" fill="#12161c"/>
    <path d="M240 140h180 M240 180h140 M240 220h160" stroke="#a89b86" stroke-width="4" opacity="0.45"/>
    <circle cx="330" cy="310" r="48" fill="none" stroke="#3de7ff" stroke-width="5" opacity="0.5"/>
    <ellipse cx="330" cy="310" rx="18" ry="24" fill="#e8d5b0"/>
  </g>
  <!-- amber star burst -->
  <path d="M460 100l10 28 28 6-22 20 6 28-22-14-22 14 6-28-22-20 28-6 10-28Z" fill="#ffb84d" opacity="0.85"/>
</g>

  <!-- Left readability veil -->
  <rect x="0" y="0" width="620" height="630" fill="url(#comics-bar)" opacity="0.35"/>
  <path d="M0 0 H560 Q640 0 640 80 V550 Q640 630 560 630 H0 Z" fill="#0a0c10" opacity="0.42"/>

  <!-- Frame -->
  <rect x="28" y="28" width="1144" height="574" rx="22" fill="none" stroke="#c4a882" stroke-opacity="0.38" stroke-width="2.5"/>
  <rect x="40" y="40" width="1120" height="550" rx="16" fill="none" stroke="#ffb84d" stroke-opacity="0.18" stroke-width="1.5"/>

  <!-- Brand egg mark -->
  <g transform="translate(72,72)">
    <ellipse cx="22" cy="28" rx="18" ry="24" fill="#1a2030" stroke="#c9a15a" stroke-width="2"/>
    <ellipse cx="22" cy="28" rx="10" ry="14" fill="#3de7ff" opacity="0.55"/>
    <circle cx="22" cy="30" r="5" fill="#ffb84d"/>
  </g>
  <text x="118" y="108" fill="#ffb84d" font-family="Georgia, 'Times New Roman', serif" font-size="26" letter-spacing="7" font-weight="700">RIFTWILDS</text>
  <text x="118" y="132" fill="#a89b86" font-family="Georgia, 'Times New Roman', serif" font-size="14" letter-spacing="3">SHAREABLE MOMENT</text>

  <!-- Copy -->
  <text x="72" y="280" fill="#f3efe6" font-family="Georgia, 'Times New Roman', serif" font-size="54" font-weight="700">Legends of the Rift</text>
  <text x="72" y="340" fill="#c4b8a4" font-family="Georgia, 'Times New Roman', serif" font-size="26">Official comic series · cozy lore</text>

  <!-- CTA chip -->
  <rect x="72" y="420" width="180" height="52" rx="12" fill="url(#comics-btn)"/>
  <text x="162" y="454" text-anchor="middle" fill="#0c0e12" font-family="Georgia, 'Times New Roman', serif" font-size="20" font-weight="700">Read comics</text>

  <text x="72" y="540" fill="#7a7268" font-family="Georgia, 'Times New Roman', serif" font-size="15">riftwilds.com · Free for Keepers, kids &amp; streamers</text>
</svg>