<?xml version="1.0" encoding="UTF-8"?>
<svg xmlns="http://www.w3.org/2000/svg" viewBox="0 0 1400 480" width="5600" height="1920">
  <defs>
    <radialGradient id="aura" cx="50%" cy="40%" r="60%">
      <stop offset="0%" stop-color="#7ec8ff" stop-opacity="0.5"/>
      <stop offset="100%" stop-color="#0a1220" stop-opacity="0"/>
    </radialGradient>
    <linearGradient id="sky" x1="0" y1="0" x2="1" y2="1">
      <stop offset="0%" stop-color="#1a2744"/>
      <stop offset="55%" stop-color="#2a4a6a"/>
      <stop offset="100%" stop-color="#0d1828"/>
    </linearGradient>
    <linearGradient id="aurora" x1="0" y1="0" x2="1" y2="0">
      <stop offset="0%" stop-color="#5ad0c0" stop-opacity="0.3"/>
      <stop offset="50%" stop-color="#a78bfa" stop-opacity="0.45"/>
      <stop offset="100%" stop-color="#60a5fa" stop-opacity="0.25"/>
    </linearGradient>
  </defs>

  <rect width="1400" height="480" fill="#0f1a24"/>
  <ellipse cx="700" cy="420" rx="520" ry="50" fill="#1a2e28"/>
  <rect x="200" y="260" width="40" height="120" fill="#64748b"/>
  <ellipse cx="220" cy="250" rx="50" ry="20" fill="#94a3b8"/>
  <rect x="600" y="240" width="50" height="140" fill="#78716c"/>
  <circle cx="625" cy="220" r="36" fill="#a8a29e"/>
  <rect x="1000" y="270" width="36" height="110" fill="#64748b"/>
  <circle cx="250" cy="380" r="8" fill="#fbbf24"/>
  <circle cx="280" cy="390" r="6" fill="#fde68a"/>
  <circle cx="700" cy="360" r="10" fill="#7dd3fc" opacity="0.9"/>
  <circle cx="740" cy="370" r="7" fill="#a78bfa" opacity="0.85"/>
  <path d="M180 400 Q400 320 620 400" fill="none" stroke="#334155" stroke-width="8"/>
  <rect x="480" y="360" width="80" height="24" rx="4" fill="#3f4f3f"/>

</svg>
