<?xml version="1.0" encoding="UTF-8"?>
<svg xmlns="http://www.w3.org/2000/svg" viewBox="0 0 1400 560" width="5600" height="2240">
  <defs>
    <radialGradient id="aura" cx="50%" cy="40%" r="60%">
      <stop offset="0%" stop-color="#7ec8ff" stop-opacity="0.5"/>
      <stop offset="100%" stop-color="#0a1220" stop-opacity="0"/>
    </radialGradient>
    <linearGradient id="sky" x1="0" y1="0" x2="1" y2="1">
      <stop offset="0%" stop-color="#1a2744"/>
      <stop offset="55%" stop-color="#2a4a6a"/>
      <stop offset="100%" stop-color="#0d1828"/>
    </linearGradient>
    <linearGradient id="aurora" x1="0" y1="0" x2="1" y2="0">
      <stop offset="0%" stop-color="#5ad0c0" stop-opacity="0.3"/>
      <stop offset="50%" stop-color="#a78bfa" stop-opacity="0.45"/>
      <stop offset="100%" stop-color="#60a5fa" stop-opacity="0.25"/>
    </linearGradient>
  </defs>

  <rect width="1400" height="560" fill="url(#sky)"/>
  <ellipse cx="700" cy="120" rx="600" ry="80" fill="url(#aurora)"/>
  <ellipse cx="320" cy="360" rx="160" ry="48" fill="#1e3a4a"/>
  <ellipse cx="320" cy="340" rx="120" ry="36" fill="#2d5a5a"/>
  <circle cx="300" cy="300" r="18" fill="#fde68a" opacity="0.9"/>
  <circle cx="350" cy="290" r="12" fill="#7dd3fc" opacity="0.85"/>
  <ellipse cx="700" cy="400" rx="220" ry="60" fill="#1e2f44"/>
  <path d="M560 380 Q700 300 840 380" fill="none" stroke="#7dd3fc" stroke-width="6" opacity="0.7"/>
  <rect x="640" y="240" width="120" height="140" rx="8" fill="#334155"/>
  <polygon points="640,240 700,180 760,240" fill="#475569"/>
  <ellipse cx="1050" cy="370" rx="140" ry="40" fill="#1e3a4a"/>
  <circle cx="1020" cy="320" r="22" fill="#c4b5fd" opacity="0.8"/>
  <circle cx="1080" cy="310" r="14" fill="#fde68a" opacity="0.75"/>

</svg>
