<?xml version="1.0" encoding="UTF-8"?>
<svg xmlns="http://www.w3.org/2000/svg" width="2550" height="3300" viewBox="0 0 850 1100">
  <rect width="850" height="1100" fill="#ffffff"/>
  <rect x="28" y="28" width="794" height="1044" fill="none" stroke="#1a1a1a" stroke-width="3" rx="8"/>
  <text x="425" y="72" text-anchor="middle" font-family="Georgia, serif" font-size="28" fill="#1a1a1a">Spark the Glowpup</text>
  <text x="425" y="98" text-anchor="middle" font-family="Georgia, serif" font-size="14" fill="#444444">Riftwilds · Kids coloring page</text>
  <g transform="translate(0, 40)" fill="none" stroke="#111111" stroke-width="2.5" stroke-linecap="round" stroke-linejoin="round">
    
      <!-- Spark body -->
      <ellipse cx="425" cy="520" rx="140" ry="155"/>
      <ellipse cx="425" cy="470" rx="70" ry="48"/>
      <!-- ears -->
      <path d="M330 400 Q300 300 370 390"/>
      <path d="M520 400 Q550 300 480 390"/>
      <path d="M340 395 Q320 340 365 390" stroke-width="1.5"/>
      <path d="M510 395 Q530 340 485 390" stroke-width="1.5"/>
      <!-- eyes -->
      <circle cx="385" cy="480" r="18"/>
      <circle cx="465" cy="480" r="18"/>
      <circle cx="385" cy="480" r="6" fill="#111" stroke="none"/>
      <circle cx="465" cy="480" r="6" fill="#111" stroke="none"/>
      <!-- smile + nose -->
      <ellipse cx="425" cy="515" rx="10" ry="7"/>
      <path d="M400 545 Q425 570 450 545"/>
      <!-- paws -->
      <ellipse cx="350" cy="640" rx="36" ry="28"/>
      <ellipse cx="500" cy="640" rx="36" ry="28"/>
      <ellipse cx="370" cy="700" rx="40" ry="22"/>
      <ellipse cx="480" cy="700" rx="40" ry="22"/>
      <!-- sparkles -->
      <path d="M260 360 L270 390 L300 400 L270 410 L260 440 L250 410 L220 400 L250 390 Z" stroke-width="2"/>
      <path d="M580 340 L588 362 L610 370 L588 378 L580 400 L572 378 L550 370 L572 362 Z" stroke-width="2"/>
      <circle cx="300" cy="300" r="8"/>
      <circle cx="560" cy="280" r="6"/>
      <circle cx="620" cy="480" r="7"/>
      <!-- ground -->
      <ellipse cx="425" cy="760" rx="200" ry="24" stroke-width="2"/>
      <text x="425" y="860" text-anchor="middle" font-family="Georgia, serif" font-size="20" fill="#222" stroke="none">Color Spark any way you like!</text>
    
  </g>
  <text x="425" y="1068" text-anchor="middle" font-family="Georgia, serif" font-size="12" fill="#555555">Free for personal &amp; kids use · Not for resale · riftwilds.com</text>
</svg>