<?xml version="1.0" encoding="UTF-8"?>
<svg xmlns="http://www.w3.org/2000/svg" viewBox="0 0 512 512" role="img" aria-label="Riftwilds egg mark">
  <defs>
    <radialGradient id="shell" cx="46%" cy="38%" r="62%">
      <stop offset="0%" stop-color="#2a3142"/>
      <stop offset="55%" stop-color="#12161f"/>
      <stop offset="100%" stop-color="#07090e"/>
    </radialGradient>
    <linearGradient id="vein" x1="0%" y1="0%" x2="100%" y2="100%">
      <stop offset="0%" stop-color="#c9a15a"/>
      <stop offset="50%" stop-color="#e0b86a"/>
      <stop offset="100%" stop-color="#8a6230"/>
    </linearGradient>
    <linearGradient id="rift" x1="50%" y1="8%" x2="50%" y2="92%">
      <stop offset="0%" stop-color="#7ef7ff" stop-opacity="0.35"/>
      <stop offset="35%" stop-color="#3de7ff"/>
      <stop offset="55%" stop-color="#9af6ff"/>
      <stop offset="100%" stop-color="#1aa8c4" stop-opacity="0.55"/>
    </linearGradient>
    <radialGradient id="core" cx="50%" cy="50%" r="50%">
      <stop offset="0%" stop-color="#ffe2a0"/>
      <stop offset="40%" stop-color="#ffb84d"/>
      <stop offset="100%" stop-color="#c46a18"/>
    </radialGradient>
    <filter id="bloom" x="-40%" y="-40%" width="180%" height="180%">
      <feGaussianBlur stdDeviation="6" result="b"/>
      <feMerge>
        <feMergeNode in="b"/>
        <feMergeNode in="SourceGraphic"/>
      </feMerge>
    </filter>
    <filter id="soft" x="-20%" y="-20%" width="140%" height="140%">
      <feGaussianBlur stdDeviation="2.2"/>
    </filter>
  </defs>
  <ellipse cx="256" cy="258" rx="148" ry="198" fill="url(#shell)" stroke="#1e2430" stroke-width="3"/>
  <ellipse cx="256" cy="258" rx="148" ry="198" fill="none" stroke="#3de7ff" stroke-opacity="0.22" stroke-width="2" filter="url(#soft)"/>
  <!-- copper vein / circuit filigree -->
  <g stroke="url(#vein)" stroke-width="1.6" fill="none" stroke-linecap="round" opacity="0.9">
    <path d="M190 140 C210 170 215 210 205 250 C195 290 200 330 220 360"/>
    <path d="M322 138 C302 172 298 212 308 252 C318 292 312 332 292 362"/>
    <path d="M175 220 H210 M302 220 H337"/>
    <path d="M185 280 H215 M297 280 H327"/>
    <path d="M210 170 L230 185 L230 205"/>
    <path d="M302 170 L282 185 L282 205"/>
    <path d="M220 320 L240 335 M292 320 L272 335"/>
    <circle cx="210" cy="250" r="2.4" fill="#e0b86a" stroke="none"/>
    <circle cx="302" cy="250" r="2.4" fill="#e0b86a" stroke="none"/>
    <circle cx="230" cy="185" r="2" fill="#c9a15a" stroke="none"/>
    <circle cx="282" cy="185" r="2" fill="#c9a15a" stroke="none"/>
  </g>
  <!-- cyan rift -->
  <path d="M256 78 C248 120 236 160 232 210 C228 250 230 290 236 330 C242 370 250 410 256 442
           C262 410 270 370 276 330 C282 290 284 250 280 210 C276 160 264 120 256 78 Z"
        fill="url(#rift)" filter="url(#bloom)" opacity="0.95"/>
  <path d="M256 96 C250 140 242 185 240 230 C238 275 242 320 248 365 C252 395 255 420 256 430
           C257 420 260 395 264 365 C270 320 274 275 272 230 C270 185 262 140 256 96 Z"
        fill="#b8fbff" opacity="0.55"/>
  <!-- amber core -->
  <g filter="url(#bloom)">
    <polygon points="256,214 278,256 256,298 234,256" fill="url(#core)"/>
    <polygon points="256,228 268,256 256,284 244,256" fill="#fff1c8" opacity="0.75"/>
  </g>
  <!-- pole caps -->
  <polygon points="256,62 268,78 256,94 244,78" fill="#1a1f2a" stroke="#c9a15a" stroke-width="1.4"/>
  <polygon points="256,430 268,446 256,462 244,446" fill="#1a1f2a" stroke="#c9a15a" stroke-width="1.4"/>
</svg>
