<?xml version="1.0" encoding="UTF-8"?>
<svg xmlns="http://www.w3.org/2000/svg" viewBox="0 0 900 220" role="img" aria-label="Riftwilds logo">
  <defs>
    <radialGradient id="shell" cx="46%" cy="38%" r="62%">
      <stop offset="0%" stop-color="#2a3142"/>
      <stop offset="55%" stop-color="#12161f"/>
      <stop offset="100%" stop-color="#07090e"/>
    </radialGradient>
    <linearGradient id="vein" x1="0%" y1="0%" x2="100%" y2="100%">
      <stop offset="0%" stop-color="#c9a15a"/>
      <stop offset="100%" stop-color="#8a6230"/>
    </linearGradient>
    <linearGradient id="rift" x1="50%" y1="8%" x2="50%" y2="92%">
      <stop offset="0%" stop-color="#7ef7ff" stop-opacity="0.35"/>
      <stop offset="40%" stop-color="#3de7ff"/>
      <stop offset="100%" stop-color="#1aa8c4" stop-opacity="0.55"/>
    </linearGradient>
    <radialGradient id="core" cx="50%" cy="50%" r="50%">
      <stop offset="0%" stop-color="#ffe2a0"/>
      <stop offset="45%" stop-color="#ffb84d"/>
      <stop offset="100%" stop-color="#c46a18"/>
    </radialGradient>
    <linearGradient id="metal" x1="0%" y1="0%" x2="0%" y2="100%">
      <stop offset="0%" stop-color="#e8f0f8"/>
      <stop offset="35%" stop-color="#9eb4c9"/>
      <stop offset="70%" stop-color="#5d738c"/>
      <stop offset="100%" stop-color="#c5d4e4"/>
    </linearGradient>
    <filter id="bloom" x="-40%" y="-40%" width="180%" height="180%">
      <feGaussianBlur stdDeviation="4" result="b"/>
      <feMerge>
        <feMergeNode in="b"/>
        <feMergeNode in="SourceGraphic"/>
      </feMerge>
    </filter>
  </defs>
  <g transform="translate(8,10)">
    <ellipse cx="100" cy="100" rx="78" ry="100" fill="url(#shell)" stroke="#1e2430" stroke-width="2"/>
    <g stroke="url(#vein)" stroke-width="1.2" fill="none" opacity="0.9">
      <path d="M62 50 C75 70 78 95 72 120 C66 145 70 165 82 180"/>
      <path d="M138 50 C125 70 122 95 128 120 C134 145 130 165 118 180"/>
      <circle cx="72" cy="110" r="1.8" fill="#e0b86a" stroke="none"/>
      <circle cx="128" cy="110" r="1.8" fill="#e0b86a" stroke="none"/>
    </g>
    <path d="M100 18 C94 45 86 70 84 95 C82 120 84 145 88 168 C92 188 97 200 100 205
             C103 200 108 188 112 168 C116 145 118 120 116 95 C114 70 106 45 100 18 Z"
          fill="url(#rift)" filter="url(#bloom)"/>
    <polygon points="100,78 112,100 100,122 88,100" fill="url(#core)" filter="url(#bloom)"/>
    <polygon points="100,20 108,30 100,40 92,30" fill="#1a1f2a" stroke="#c9a15a" stroke-width="1"/>
    <polygon points="100,190 108,200 100,210 92,200" fill="#1a1f2a" stroke="#c9a15a" stroke-width="1"/>
  </g>
  <g transform="translate(210,40)">
    <text x="310" y="72" text-anchor="middle"
          font-family="Georgia, 'Times New Roman', serif"
          font-size="64" font-weight="700" letter-spacing="8"
          fill="url(#metal)" stroke="#1a2430" stroke-width="1">RIFTWILDS</text>
    <line x1="40" y1="96" x2="280" y2="96" stroke="#3de7ff" stroke-width="1.5" stroke-linecap="round" opacity="0.85"/>
    <line x1="340" y1="96" x2="580" y2="96" stroke="#3de7ff" stroke-width="1.5" stroke-linecap="round" opacity="0.85"/>
    <polygon points="310,84 322,96 310,108 298,96" fill="url(#core)"/>
  </g>
</svg>
