<svg xmlns="http://www.w3.org/2000/svg" viewBox="0 0 256 256">
  <ellipse cx="128" cy="150" rx="72" ry="58" fill="#ff7a3d"/>
  <ellipse cx="128" cy="145" rx="54" ry="44" fill="#ffb084"/>
  <circle cx="108" cy="138" r="7" fill="#2a2118"/>
  <circle cx="148" cy="138" r="7" fill="#2a2118"/>
  <ellipse cx="128" cy="158" rx="10" ry="7" fill="#ff5c7a" opacity="0.7"/>
  <path d="M86 108c-8-22-4-40 10-48 2 16 8 28 18 36-14 0-24 4-28 12Z" fill="#ffb84d"/>
  <path d="M170 108c8-22 4-40-10-48-2 16-8 28-18 36 14 0 24 4 30 12Z" fill="#ffb84d"/>
  <path d="M128 70l8 20 20 4-16 14 4 20-16-10-16 10 4-20-16-14 20-4 8-20Z" fill="#ffe566"/>
</svg>