<svg xmlns="http://www.w3.org/2000/svg" viewBox="0 0 256 256">
  <ellipse cx="128" cy="160" rx="60" ry="50" fill="#5aad62"/>
  <ellipse cx="128" cy="155" rx="44" ry="38" fill="#8fd49a"/>
  <circle cx="112" cy="150" r="6" fill="#2a2118"/>
  <circle cx="144" cy="150" r="6" fill="#2a2118"/>
  <path d="M118 168c6 8 14 8 20 0" stroke="#2a2118" stroke-width="3" fill="none" stroke-linecap="round"/>
  <path d="M128 60c20 30 10 50-8 70 30-8 48-30 40-62-10 8-20 8-32-8Z" fill="#3dffb0"/>
  <path d="M98 90c-10 24 0 40 18 50-22 4-40-10-40-34 8 2 14 0 22-16Z" fill="#5aad62"/>
  <path d="M158 90c10 24 0 40-18 50 22 4 40-10 40-34-8 2-14 0-22-16Z" fill="#5aad62"/>
</svg>