<?xml version="1.0" encoding="UTF-8"?>
<svg xmlns="http://www.w3.org/2000/svg" width="1920" height="1080" viewBox="0 0 1920 1080">
  <defs>
    <linearGradient id="sky" x1="0%" y1="0%" x2="0%" y2="100%">
      <stop offset="0%" stop-color="#0a1428"/>
      <stop offset="45%" stop-color="#0c1830"/>
      <stop offset="100%" stop-color="#070b16"/>
    </linearGradient>
    <radialGradient id="rift" cx="72%" cy="18%" r="38%">
      <stop offset="0%" stop-color="#3de7ff" stop-opacity="0.55"/>
      <stop offset="40%" stop-color="#2a7dff" stop-opacity="0.22"/>
      <stop offset="100%" stop-color="#070b16" stop-opacity="0"/>
    </radialGradient>
    <radialGradient id="amberGlow" cx="28%" cy="22%" r="32%">
      <stop offset="0%" stop-color="#ffb84d" stop-opacity="0.28"/>
      <stop offset="100%" stop-color="#070b16" stop-opacity="0"/>
    </radialGradient>
    <radialGradient id="plaza" cx="50%" cy="78%" r="42%">
      <stop offset="0%" stop-color="#3de7ff" stop-opacity="0.16"/>
      <stop offset="55%" stop-color="#ffb84d" stop-opacity="0.08"/>
      <stop offset="100%" stop-color="#070b16" stop-opacity="0"/>
    </radialGradient>
    <linearGradient id="stone" x1="0%" y1="0%" x2="0%" y2="100%">
      <stop offset="0%" stop-color="#121c30" stop-opacity="0.2"/>
      <stop offset="100%" stop-color="#0a101c" stop-opacity="0.85"/>
    </linearGradient>
    <filter id="soft" x="-20%" y="-20%" width="140%" height="140%">
      <feGaussianBlur stdDeviation="14"/>
    </filter>
    <pattern id="grid" width="64" height="64" patternUnits="userSpaceOnUse">
      <path d="M32 28 V36 M28 32 H36" stroke="#e8f0ff" stroke-opacity="0.045" stroke-width="1.4"/>
    </pattern>
    <radialGradient id="ui-hole" cx="50%" cy="40%" r="62%">
      <stop offset="0%" stop-color="#070b16" stop-opacity="0.2"/>
      <stop offset="55%" stop-color="#070b16" stop-opacity="0.06"/>
      <stop offset="100%" stop-color="#070b16" stop-opacity="0.42"/>
    </radialGradient>
    <linearGradient id="ui-bottom" x1="0%" y1="0%" x2="0%" y2="100%">
      <stop offset="0%" stop-color="#070b16" stop-opacity="0.05"/>
      <stop offset="65%" stop-color="#070b16" stop-opacity="0.16"/>
      <stop offset="100%" stop-color="#070b16" stop-opacity="0.52"/>
    </linearGradient>
  </defs>

  <rect width="100%" height="100%" fill="url(#sky)"/>
  <rect width="100%" height="100%" fill="url(#rift)" filter="url(#soft)"/>
  <rect width="100%" height="100%" fill="url(#amberGlow)" filter="url(#soft)"/>
  <rect width="100%" height="100%" fill="url(#grid)"/>

  <!-- Distant arcade / hall silhouettes -->
  <path d="M0 520 L180 360 L320 520 Z" fill="#101828" opacity="0.7"/>
  <path d="M1600 510 L1760 340 L1920 520 Z" fill="#101828" opacity="0.7"/>
  <rect x="360" y="300" width="90" height="280" fill="#142033" opacity="0.65"/>
  <rect x="480" y="260" width="70" height="320" fill="#152438" opacity="0.6"/>
  <rect x="1370" y="270" width="80" height="310" fill="#142033" opacity="0.62"/>
  <rect x="1480" y="300" width="95" height="280" fill="#152438" opacity="0.58"/>

  <!-- Soft arch suggestions -->
  <path d="M200 540 Q480 380 760 540" fill="none" stroke="#3de7ff" stroke-width="3" opacity="0.16"/>
  <path d="M1160 540 Q1440 370 1720 540" fill="none" stroke="#ffb84d" stroke-width="3" opacity="0.14"/>

  
      <line x1="227" y1="0" x2="227" y2="107" stroke="#1a2233" stroke-width="2.5" opacity="0.7"/>
      <ellipse cx="227" cy="133" rx="16" ry="24" fill="#1a1410" stroke="#ffb84d" stroke-width="2" opacity="0.92"/>
      <ellipse cx="227" cy="133" rx="9" ry="13" fill="#ffb84d" opacity="0.55"/>
      <circle cx="227" cy="133" r="42" fill="#ffb84d" opacity="0.11"/>
    
      <line x1="428" y1="0" x2="428" y2="188" stroke="#1a2233" stroke-width="2.5" opacity="0.7"/>
      <ellipse cx="428" cy="214" rx="16" ry="24" fill="#1a1410" stroke="#3de7ff" stroke-width="2" opacity="0.92"/>
      <ellipse cx="428" cy="214" rx="9" ry="13" fill="#3de7ff" opacity="0.55"/>
      <circle cx="428" cy="214" r="42" fill="#3de7ff" opacity="0.11"/>
    
      <line x1="689" y1="0" x2="689" y2="169" stroke="#1a2233" stroke-width="2.5" opacity="0.7"/>
      <ellipse cx="689" cy="195" rx="16" ry="24" fill="#1a1410" stroke="#ffb84d" stroke-width="2" opacity="0.92"/>
      <ellipse cx="689" cy="195" rx="9" ry="13" fill="#ffb84d" opacity="0.55"/>
      <circle cx="689" cy="195" r="42" fill="#ffb84d" opacity="0.11"/>
    
      <line x1="970" y1="0" x2="970" y2="150" stroke="#1a2233" stroke-width="2.5" opacity="0.7"/>
      <ellipse cx="970" cy="176" rx="16" ry="24" fill="#1a1410" stroke="#ffb84d" stroke-width="2" opacity="0.92"/>
      <ellipse cx="970" cy="176" rx="9" ry="13" fill="#ffb84d" opacity="0.55"/>
      <circle cx="970" cy="176" r="42" fill="#ffb84d" opacity="0.11"/>
    
      <line x1="1251" y1="0" x2="1251" y2="183" stroke="#1a2233" stroke-width="2.5" opacity="0.7"/>
      <ellipse cx="1251" cy="209" rx="16" ry="24" fill="#1a1410" stroke="#3de7ff" stroke-width="2" opacity="0.92"/>
      <ellipse cx="1251" cy="209" rx="9" ry="13" fill="#3de7ff" opacity="0.55"/>
      <circle cx="1251" cy="209" r="42" fill="#3de7ff" opacity="0.11"/>
    
      <line x1="1512" y1="0" x2="1512" y2="164" stroke="#1a2233" stroke-width="2.5" opacity="0.7"/>
      <ellipse cx="1512" cy="190" rx="16" ry="24" fill="#1a1410" stroke="#ffb84d" stroke-width="2" opacity="0.92"/>
      <ellipse cx="1512" cy="190" rx="9" ry="13" fill="#ffb84d" opacity="0.55"/>
      <circle cx="1512" cy="190" r="42" fill="#ffb84d" opacity="0.11"/>
    
      <line x1="1713" y1="0" x2="1713" y2="145" stroke="#1a2233" stroke-width="2.5" opacity="0.7"/>
      <ellipse cx="1713" cy="171" rx="16" ry="24" fill="#1a1410" stroke="#ffb84d" stroke-width="2" opacity="0.92"/>
      <ellipse cx="1713" cy="171" rx="9" ry="13" fill="#ffb84d" opacity="0.55"/>
      <circle cx="1713" cy="171" r="42" fill="#ffb84d" opacity="0.11"/>
    

  <!-- Plaza floor -->
  <path d="M0 680 Q480 620 960 660 T1920 640 L1920 1080 L0 1080 Z" fill="url(#stone)"/>
  <ellipse cx="960" cy="780" rx="620" ry="160" fill="url(#plaza)" filter="url(#soft)"/>
  <ellipse cx="960" cy="790" rx="280" ry="70" fill="none" stroke="#3de7ff" stroke-width="2" opacity="0.22"/>
  <ellipse cx="960" cy="790" rx="140" ry="34" fill="#ffb84d" opacity="0.1"/>

  <!-- Central fountain hint -->
  <ellipse cx="960" cy="760" rx="70" ry="22" fill="#0e1a28" opacity="0.85"/>
  <rect x="948" y="680" width="24" height="80" rx="8" fill="#162438" opacity="0.8"/>
  <circle cx="960" cy="668" r="18" fill="#3de7ff" opacity="0.28"/>
  <circle cx="960" cy="668" r="8" fill="#ffb84d" opacity="0.4"/>

  
      <ellipse cx="280" cy="780" rx="14" ry="8" fill="#050810" opacity="0.55"/>
      <rect x="272" y="732" width="16" height="48" rx="7" fill="#0a1220" opacity="0.72"/>
      <circle cx="280" cy="726" r="9" fill="#0c1628" opacity="0.75"/>
      <circle cx="282" cy="728" r="2" fill="#ffb84d" opacity="0.35"/>
    
      <ellipse cx="360" cy="790" rx="14" ry="8" fill="#050810" opacity="0.55"/>
      <rect x="352" y="736" width="16" height="54" rx="7" fill="#0a1220" opacity="0.72"/>
      <circle cx="360" cy="730" r="9" fill="#0c1628" opacity="0.75"/>
      <circle cx="362" cy="732" r="2" fill="#3de7ff" opacity="0.35"/>
    
      <ellipse cx="520" cy="770" rx="14" ry="8" fill="#050810" opacity="0.55"/>
      <rect x="512" y="710" width="16" height="60" rx="7" fill="#0a1220" opacity="0.72"/>
      <circle cx="520" cy="704" r="9" fill="#0c1628" opacity="0.75"/>
      <circle cx="522" cy="706" r="2" fill="#ffb84d" opacity="0.35"/>
    
      <ellipse cx="700" cy="785" rx="14" ry="8" fill="#050810" opacity="0.55"/>
      <rect x="692" y="719" width="16" height="66" rx="7" fill="#0a1220" opacity="0.72"/>
      <circle cx="700" cy="713" r="9" fill="#0c1628" opacity="0.75"/>
      <circle cx="702" cy="715" r="2" fill="#3de7ff" opacity="0.35"/>
    
      <ellipse cx="860" cy="775" rx="14" ry="8" fill="#050810" opacity="0.55"/>
      <rect x="852" y="727" width="16" height="48" rx="7" fill="#0a1220" opacity="0.72"/>
      <circle cx="860" cy="721" r="9" fill="#0c1628" opacity="0.75"/>
      <circle cx="862" cy="723" r="2" fill="#ffb84d" opacity="0.35"/>
    
      <ellipse cx="1020" cy="788" rx="14" ry="8" fill="#050810" opacity="0.55"/>
      <rect x="1012" y="734" width="16" height="54" rx="7" fill="#0a1220" opacity="0.72"/>
      <circle cx="1020" cy="728" r="9" fill="#0c1628" opacity="0.75"/>
      <circle cx="1022" cy="730" r="2" fill="#3de7ff" opacity="0.35"/>
    
      <ellipse cx="1180" cy="772" rx="14" ry="8" fill="#050810" opacity="0.55"/>
      <rect x="1172" y="712" width="16" height="60" rx="7" fill="#0a1220" opacity="0.72"/>
      <circle cx="1180" cy="706" r="9" fill="#0c1628" opacity="0.75"/>
      <circle cx="1182" cy="708" r="2" fill="#ffb84d" opacity="0.35"/>
    
      <ellipse cx="1340" cy="790" rx="14" ry="8" fill="#050810" opacity="0.55"/>
      <rect x="1332" y="724" width="16" height="66" rx="7" fill="#0a1220" opacity="0.72"/>
      <circle cx="1340" cy="718" r="9" fill="#0c1628" opacity="0.75"/>
      <circle cx="1342" cy="720" r="2" fill="#3de7ff" opacity="0.35"/>
    
      <ellipse cx="1520" cy="778" rx="14" ry="8" fill="#050810" opacity="0.55"/>
      <rect x="1512" y="730" width="16" height="48" rx="7" fill="#0a1220" opacity="0.72"/>
      <circle cx="1520" cy="724" r="9" fill="#0c1628" opacity="0.75"/>
      <circle cx="1522" cy="726" r="2" fill="#ffb84d" opacity="0.35"/>
    
      <ellipse cx="1640" cy="785" rx="14" ry="8" fill="#050810" opacity="0.55"/>
      <rect x="1632" y="731" width="16" height="54" rx="7" fill="#0a1220" opacity="0.72"/>
      <circle cx="1640" cy="725" r="9" fill="#0c1628" opacity="0.75"/>
      <circle cx="1642" cy="727" r="2" fill="#3de7ff" opacity="0.35"/>
    
  <circle cx="1673" cy="924" r="1" fill="#3de7ff" opacity="0.16640000000000002"/><circle cx="294" cy="197" r="3" fill="#3de7ff" opacity="0.13119999999999998"/><circle cx="1415" cy="450" r="3" fill="#3de7ff" opacity="0.22399999999999998"/><circle cx="636" cy="251" r="2" fill="#3de7ff" opacity="0.13119999999999998"/><circle cx="533" cy="912" r="3" fill="#3de7ff" opacity="0.2304"/><circle cx="1186" cy="369" r="3" fill="#3de7ff" opacity="0.11199999999999999"/><circle cx="51" cy="918" r="3" fill="#3de7ff" opacity="0.1344"/><circle cx="1816" cy="1031" r="1" fill="#3de7ff" opacity="0.20799999999999996"/><circle cx="1249" cy="604" r="1" fill="#3de7ff" opacity="0.1152"/><circle cx="1374" cy="909" r="1" fill="#3de7ff" opacity="0.2336"/><circle cx="543" cy="202" r="3" fill="#3de7ff" opacity="0.2304"/><circle cx="628" cy="51" r="1" fill="#3de7ff" opacity="0.21439999999999998"/><circle cx="109" cy="208" r="2" fill="#3de7ff" opacity="0.2304"/><circle cx="1882" cy="929" r="2" fill="#3de7ff" opacity="0.22719999999999999"/><circle cx="1483" cy="806" r="2" fill="#3de7ff" opacity="0.26239999999999997"/><circle cx="1040" cy="895" r="1" fill="#3de7ff" opacity="0.2528"/><circle cx="441" cy="964" r="2" fill="#3de7ff" opacity="0.2368"/><circle cx="278" cy="445" r="2" fill="#3de7ff" opacity="0.18239999999999998"/><circle cx="1847" cy="978" r="1" fill="#3de7ff" opacity="0.2688"/><circle cx="236" cy="835" r="1" fill="#3de7ff" opacity="0.1376"/><circle cx="581" cy="376" r="3" fill="#3de7ff" opacity="0.2176"/><circle cx="530" cy="153" r="2" fill="#3de7ff" opacity="0.21439999999999998"/><circle cx="355" cy="262" r="1" fill="#3de7ff" opacity="0.22399999999999998"/><circle cx="520" cy="799" r="1" fill="#3de7ff" opacity="0.2208"/><circle cx="401" cy="252" r="3" fill="#3de7ff" opacity="0.1792"/><circle cx="78" cy="405" r="3" fill="#3de7ff" opacity="0.21439999999999998"/><circle cx="207" cy="146" r="3" fill="#3de7ff" opacity="0.2688"/><circle cx="1508" cy="1051" r="2" fill="#3de7ff" opacity="0.18239999999999998"/><circle cx="413" cy="1040" r="2" fill="#3de7ff" opacity="0.1216"/><circle cx="1482" cy="289" r="3" fill="#3de7ff" opacity="0.25920000000000004"/><circle cx="251" cy="1062" r="1" fill="#3de7ff" opacity="0.21119999999999997"/><circle cx="1280" cy="719" r="3" fill="#3de7ff" opacity="0.13119999999999998"/><circle cx="1897" cy="36" r="2" fill="#3de7ff" opacity="0.21119999999999997"/><circle cx="134" cy="13" r="1" fill="#3de7ff" opacity="0.1888"/><circle cx="103" cy="2" r="1" fill="#3de7ff" opacity="0.1216"/><circle cx="348" cy="387" r="2" fill="#3de7ff" opacity="0.2464"/><circle cx="1909" cy="344" r="3" fill="#3de7ff" opacity="0.192"/><circle cx="2" cy="801" r="1" fill="#3de7ff" opacity="0.1248"/><circle cx="787" cy="262" r="2" fill="#3de7ff" opacity="0.256"/><circle cx="888" cy="639" r="3" fill="#3de7ff" opacity="0.18239999999999998"/><circle cx="65" cy="876" r="3" fill="#3de7ff" opacity="0.1472"/><circle cx="446" cy="789" r="3" fill="#3de7ff" opacity="0.2208"/><circle cx="255" cy="634" r="3" fill="#3de7ff" opacity="0.26239999999999997"/><circle cx="212" cy="347" r="2" fill="#3de7ff" opacity="0.2336"/><circle cx="1485" cy="896" r="1" fill="#3de7ff" opacity="0.1984"/><circle cx="186" cy="641" r="2" fill="#3de7ff" opacity="0.21439999999999998"/><circle cx="1323" cy="6" r="1" fill="#3de7ff" opacity="0.26239999999999997"/><circle cx="112" cy="151" r="3" fill="#3de7ff" opacity="0.1632"/><circle cx="25" cy="260" r="3" fill="#3de7ff" opacity="0.192"/><circle cx="886" cy="181" r="3" fill="#3de7ff" opacity="0.18239999999999998"/><circle cx="1687" cy="978" r="2" fill="#3de7ff" opacity="0.1728"/><circle cx="716" cy="187" r="1" fill="#3de7ff" opacity="0.11199999999999999"/><circle cx="1829" cy="704" r="2" fill="#3de7ff" opacity="0.2688"/><circle cx="1778" cy="137" r="2" fill="#3de7ff" opacity="0.1504"/><circle cx="835" cy="534" r="1" fill="#3de7ff" opacity="0.20479999999999998"/><circle cx="1256" cy="679" r="2" fill="#3de7ff" opacity="0.1504"/><circle cx="241" cy="988" r="3" fill="#3de7ff" opacity="0.2368"/><circle cx="1454" cy="1013" r="3" fill="#3de7ff" opacity="0.2336"/><circle cx="687" cy="218" r="2" fill="#3de7ff" opacity="0.2368"/><circle cx="1604" cy="91" r="1" fill="#3de7ff" opacity="0.1888"/><circle cx="1149" cy="1032" r="3" fill="#3de7ff" opacity="0.1984"/><circle cx="1450" cy="321" r="3" fill="#3de7ff" opacity="0.1376"/><circle cx="219" cy="478" r="1" fill="#3de7ff" opacity="0.24960000000000002"/><circle cx="352" cy="591" r="3" fill="#3de7ff" opacity="0.2336"/><circle cx="841" cy="68" r="2" fill="#3de7ff" opacity="0.1536"/><circle cx="1766" cy="925" r="1" fill="#3de7ff" opacity="0.18239999999999998"/><circle cx="839" cy="754" r="3" fill="#3de7ff" opacity="0.14079999999999998"/><circle cx="1340" cy="491" r="2" fill="#3de7ff" opacity="0.1696"/><circle cx="853" cy="632" r="2" fill="#3de7ff" opacity="0.16640000000000002"/><circle cx="1634" cy="785" r="2" fill="#3de7ff" opacity="0.2656"/>
  <circle cx="1907" cy="118" r="3" fill="#ffb84d" opacity="0.1196"/><circle cx="1240" cy="111" r="2" fill="#ffb84d" opacity="0.11699999999999999"/><circle cx="1697" cy="388" r="3" fill="#ffb84d" opacity="0.1196"/><circle cx="30" cy="469" r="1" fill="#ffb84d" opacity="0.1586"/><circle cx="479" cy="938" r="1" fill="#ffb84d" opacity="0.17679999999999998"/><circle cx="1076" cy="1035" r="3" fill="#ffb84d" opacity="0.1638"/><circle cx="429" cy="1064" r="3" fill="#ffb84d" opacity="0.1664"/><circle cx="1306" cy="97" r="3" fill="#ffb84d" opacity="0.1794"/><circle cx="1547" cy="182" r="1" fill="#ffb84d" opacity="0.19240000000000002"/><circle cx="1616" cy="847" r="2" fill="#ffb84d" opacity="0.1586"/><circle cx="1017" cy="724" r="3" fill="#ffb84d" opacity="0.0988"/><circle cx="1238" cy="309" r="2" fill="#ffb84d" opacity="0.1222"/><circle cx="1783" cy="138" r="1" fill="#ffb84d" opacity="0.0988"/><circle cx="172" cy="467" r="1" fill="#ffb84d" opacity="0.1534"/><circle cx="1797" cy="776" r="2" fill="#ffb84d" opacity="0.1092"/><circle cx="722" cy="41" r="1" fill="#ffb84d" opacity="0.11699999999999999"/><circle cx="419" cy="158" r="2" fill="#ffb84d" opacity="0.1872"/><circle cx="200" cy="231" r="1" fill="#ffb84d" opacity="0.1638"/><circle cx="1745" cy="884" r="3" fill="#ffb84d" opacity="0.156"/><circle cx="910" cy="501" r="2" fill="#ffb84d" opacity="0.091"/><circle cx="1551" cy="898" r="1" fill="#ffb84d" opacity="0.1872"/><circle cx="292" cy="811" r="3" fill="#ffb84d" opacity="0.2158"/><circle cx="1117" cy="920" r="3" fill="#ffb84d" opacity="0.17159999999999997"/><circle cx="1162" cy="169" r="1" fill="#ffb84d" opacity="0.1586"/><circle cx="699" cy="614" r="1" fill="#ffb84d" opacity="0.11439999999999999"/><circle cx="1344" cy="599" r="2" fill="#ffb84d" opacity="0.1586"/><circle cx="1833" cy="500" r="2" fill="#ffb84d" opacity="0.17679999999999998"/><circle cx="838" cy="1005" r="3" fill="#ffb84d" opacity="0.195"/><circle cx="1575" cy="610" r="3" fill="#ffb84d" opacity="0.104"/><circle cx="284" cy="691" r="1" fill="#ffb84d" opacity="0.2158"/><circle cx="949" cy="824" r="2" fill="#ffb84d" opacity="0.1872"/><circle cx="450" cy="25" r="1" fill="#ffb84d" opacity="0.1898"/><circle cx="1107" cy="630" r="2" fill="#ffb84d" opacity="0.11439999999999999"/><circle cx="696" cy="1055" r="1" fill="#ffb84d" opacity="0.1378"/><circle cx="257" cy="868" r="2" fill="#ffb84d" opacity="0.1612"/><circle cx="1022" cy="357" r="3" fill="#ffb84d" opacity="0.1898"/><circle cx="1599" cy="274" r="1" fill="#ffb84d" opacity="0.1976"/><circle cx="1684" cy="203" r="1" fill="#ffb84d" opacity="0.2158"/><circle cx="653" cy="128" r="3" fill="#ffb84d" opacity="0.13520000000000001"/><circle cx="634" cy="441" r="1" fill="#ffb84d" opacity="0.1378"/>

  <!-- UI readability scrims -->
  <rect width="100%" height="100%" fill="url(#ui-hole)"/>
  <rect width="100%" height="100%" fill="url(#ui-bottom)"/>
</svg>