<?xml version="1.0" encoding="UTF-8"?>
<svg xmlns="http://www.w3.org/2000/svg" width="1500" height="2100" viewBox="0 0 500 700">
  <defs>
    
  <linearGradient id="c-parchment" x1="0" y1="0" x2="0" y2="1">
    <stop stop-color="#f4e8d0"/><stop offset="0.55" stop-color="#e8d5b0"/><stop offset="1" stop-color="#d4bc8e"/>
  </linearGradient>
  <linearGradient id="c-ink" x1="0" y1="0" x2="0" y2="1">
    <stop stop-color="#1a1510"/><stop offset="0.5" stop-color="#141820"/><stop offset="1" stop-color="#0e1218"/>
  </linearGradient>
  <linearGradient id="c-bronze" x1="0" y1="0" x2="1" y2="1">
    <stop stop-color="#e8c878"/><stop offset="0.4" stop-color="#c4a882"/><stop offset="1" stop-color="#8b6914"/>
  </linearGradient>
  <linearGradient id="c-rift" x1="0" y1="0" x2="0" y2="1">
    <stop stop-color="#66e0ff"/><stop offset="0.5" stop-color="#3de7ff"/><stop offset="1" stop-color="#1a8fb8"/>
  </linearGradient>
  <radialGradient id="c-amberGlow" cx="50%" cy="40%" r="50%">
    <stop stop-color="#ffe566" stop-opacity="0.55"/><stop offset="0.55" stop-color="#ffb84d" stop-opacity="0.2"/><stop offset="1" stop-color="#ffb84d" stop-opacity="0"/>
  </radialGradient>
  <radialGradient id="c-cyanGlow" cx="50%" cy="35%" r="55%">
    <stop stop-color="#3de7ff" stop-opacity="0.45"/><stop offset="0.6" stop-color="#3de7ff" stop-opacity="0.12"/><stop offset="1" stop-color="#3de7ff" stop-opacity="0"/>
  </radialGradient>
  <filter id="c-soft" x="-30%" y="-30%" width="160%" height="160%">
    <feGaussianBlur stdDeviation="6"/>
  </filter>
    <linearGradient id="bg" x1="0" y1="0" x2="0" y2="1">
      <stop stop-color="#1a1510"/><stop offset="0.45" stop-color="#121a28"/><stop offset="1" stop-color="#2a2018"/>
    </linearGradient>
  </defs>
  <rect width="500" height="700" fill="url(#bg)"/>
  
  <rect width="500" height="700" fill="url(#c-cyanGlow)" opacity="0.5"/>
  <g transform="translate(250,280) scale(0.85)">
    <path d="M-140 180 L0 -120 L140 180 Z" fill="#c44840"/>
    <path d="M-140 180 L0 -120 L140 180 Z" fill="none" stroke="#8b2018" stroke-width="4"/>
    <path d="M0 -120 L0 180" stroke="#ffe566" stroke-width="6"/>
    <path d="M-80 40 L80 40" stroke="#ffe566" stroke-width="4"/>
    <path d="M-50 110 L50 110" stroke="#ffe566" stroke-width="3"/>
    <path d="M0 -120 L0 -160"/><path d="M0 -160 L28 -140 L0 -128" fill="#ffb84d"/>
    
      <path d="M40 -40 L90 40 L70 50 L30 -20 Z" fill="#1a1510" opacity="0.55"/>
      <path d="M-20 60 L40 160" stroke="#3de7ff" stroke-width="3" opacity="0.6"/>
      <circle cx="60" cy="-20" r="8" fill="#ff7a3d" opacity="0.7"/>
    
    <path d="M-30 180 Q0 120 30 180" fill="#1a1510"/>
  </g>
  <g transform="translate(60, 380) scale(0.55)">
    <ellipse cx="100" cy="180" rx="46" ry="9" fill="#2a2118" opacity="0.22"/>
    <circle cx="100" cy="110" r="58" fill="#2a6eb8" opacity="0.55"/>
    <circle cx="100" cy="110" r="52" fill="#3d9bff" opacity="0.75"/>
    <circle cx="100" cy="110" r="42" fill="#7ec8ff" opacity="0.85"/>
    <ellipse cx="82" cy="92" rx="16" ry="12" fill="#fff" opacity="0.4"/>
    <ellipse cx="88" cy="118" rx="6" ry="7" fill="#1a3048"/>
    <ellipse cx="116" cy="118" rx="6" ry="7" fill="#1a3048"/>
    <circle cx="90" cy="116" r="1.8" fill="#fff" opacity="0.9"/>
    <circle cx="118" cy="116" r="1.8" fill="#fff" opacity="0.9"/>
    <path d="M90 136c6 9 14 9 20 0" stroke="#1a3048" stroke-width="2.8" fill="none" stroke-linecap="round"/>
    <circle cx="52" cy="78" r="14" fill="#a8e7ff" opacity="0.7"/>
    <circle cx="154" cy="88" r="12" fill="#a8e7ff" opacity="0.6"/>
    <circle cx="148" cy="150" r="10" fill="#3de7ff" opacity="0.5"/>
    <circle cx="56" cy="148" r="9" fill="#3de7ff" opacity="0.45"/>
    <circle cx="100" cy="58" r="6" fill="#e8d5b0" opacity="0.9"/>
    <circle cx="100" cy="58" r="3.5" fill="#3de7ff"/>
    <path d="M70 160 Q100 178 130 160" fill="none" stroke="#7ec8ff" stroke-width="3" opacity="0.5"/>
  </g>
  <g transform="translate(320, 390) scale(0.5)">
    <ellipse cx="100" cy="182" rx="48" ry="9" fill="#2a2118" opacity="0.3"/>
    <!-- leaner body -->
    <ellipse cx="100" cy="132" rx="40" ry="38" fill="#e8a838"/>
    <ellipse cx="100" cy="124" rx="30" ry="28" fill="#ffc84a"/>
    <ellipse cx="90" cy="112" rx="10" ry="8" fill="#fff0a8" opacity="0.45"/>
    <!-- hind legs -->
    <path d="M70 150 Q62 168 68 178 Q78 176 80 160 Z" fill="#d4922a"/>
    <path d="M130 150 Q138 168 132 178 Q122 176 120 160 Z" fill="#d4922a"/>
    <ellipse cx="68" cy="178" rx="10" ry="5" fill="#b87820"/>
    <ellipse cx="132" cy="178" rx="10" ry="5" fill="#b87820"/>
    <!-- forelegs -->
    <path d="M62 128 Q48 145 52 160 Q64 158 70 140 Z" fill="#ffb84d"/>
    <path d="M138 128 Q152 145 148 160 Q136 158 130 140 Z" fill="#ffb84d"/>
    <!-- head (smaller vs body) -->
    <ellipse cx="100" cy="72" rx="34" ry="32" fill="#ffe566"/>
    <ellipse cx="100" cy="68" rx="24" ry="20" fill="#fff2a0"/>
    <!-- pointed ears -->
    <path d="M72 58 L60 18 L84 50 Z" fill="#ff9a2a"/>
    <path d="M72 52 L64 28 L80 48 Z" fill="#ffc84a"/>
    <path d="M128 58 L140 18 L116 50 Z" fill="#ff9a2a"/>
    <path d="M128 52 L136 28 L120 48 Z" fill="#ffc84a"/>
    <!-- flame mane crest -->
    <path d="M82 42c-10-20 0-34 16-38 0 12 6 20 12 26-10-2-18 2-28 12Z" fill="#ff5a20"/>
    <path d="M118 42c10-20 0-34-16-38 0 12-6 20-12 26 10-2 18 2 28 12Z" fill="#ff5a20"/>
    <path d="M100 12c5 8 7 16 3 26 9-5 12-14 9-26-3 3-7 3-12 0Z" fill="#ffb84d"/>
    <!-- determined face — smaller eyes -->
    <ellipse cx="88" cy="70" rx="4.5" ry="5.5" fill="#1a1510"/>
    <ellipse cx="112" cy="70" rx="4.5" ry="5.5" fill="#1a1510"/>
    <circle cx="89.5" cy="68.5" r="1.4" fill="#fff" opacity="0.85"/>
    <circle cx="113.5" cy="68.5" r="1.4" fill="#fff" opacity="0.85"/>
    <ellipse cx="100" cy="80" rx="4" ry="3" fill="#e85a28"/>
    <path d="M92 90c5 5 11 5 16 0" stroke="#1a1510" stroke-width="2.2" fill="none" stroke-linecap="round"/>
    <!-- cyan rift crystal brow -->
    <path d="M100 36 L110 54 L100 62 L90 54 Z" fill="#3de7ff"/>
    <path d="M100 40 L106 52 L100 58 L94 52 Z" fill="#a8f4ff" opacity="0.8"/>
    <!-- flame tail -->
    <path d="M142 120c22-2 32 12 24 32-12-8-18-4-24 8 4-14 2-26 0-40Z" fill="#ff7a3d"/>
    <path d="M148 128c12 0 18 8 14 18-7-4-11-2-14 4 2-8 0-14 0-22Z" fill="#ffe566"/>
    <circle cx="46" cy="48" r="2.5" fill="#3de7ff" opacity="0.9"/>
    <circle cx="162" cy="64" r="2" fill="#ffb84d" opacity="0.85"/>
  </g>
  <g transform="translate(400,360) scale(0.65)">
    <ellipse cx="40" cy="122" rx="26" ry="7" fill="#2a2118" opacity="0.35"/>
    <!-- cloak -->
    <path d="M18 112 L24 58 L32 48 L40 44 L48 48 L56 58 L62 112 L50 118 L40 114 L30 118 Z" fill="#4a3020"/>
    <path d="M28 70 L40 90 L52 70" fill="#2a2118" opacity="0.25"/>
    <!-- hood -->
    <path d="M26 48 Q40 28 54 48 L48 58 Q40 52 32 58 Z" fill="#2a2118"/>
    <ellipse cx="40" cy="52" rx="10" ry="11" fill="#e8d5b0"/>
    <!-- staff -->
    <rect x="58" y="40" width="4" height="72" rx="1" fill="#8b6914"/>
    <path d="M54 38 L66 38 L60 28 Z" fill="#3de7ff" opacity="0.9"/>
    <circle cx="60" cy="34" r="5" fill="#66e0ff" opacity="0.55"/>
    <!-- belt amber -->
    <rect x="30" y="78" width="20" height="5" rx="1" fill="#c4a882"/>
  </g>
  <rect x="16" y="16" width="468" height="668" rx="12" fill="none" stroke="#c4a882" stroke-width="3"/>
  <rect x="24" y="24" width="452" height="652" rx="8" fill="none" stroke="#3de7ff" stroke-width="1" opacity="0.35"/>
  <text x="250" y="58" text-anchor="middle" font-family="Georgia, serif" font-size="14" fill="#ffb84d" letter-spacing="5">RIFTWILDS</text>
  <rect x="40" y="520" width="420" height="120" rx="8" fill="#1a1510" opacity="0.78" stroke="#c4a882" stroke-width="1.5"/>
  <text x="250" y="565" text-anchor="middle" font-family="Georgia, serif" font-size="36" fill="#f3efe6" font-weight="700">Circus Under Fire</text>
  <text x="250" y="598" text-anchor="middle" font-family="Georgia, serif" font-size="16" fill="#e8d5b0">Traveling Circus</text>
  <text x="250" y="625" text-anchor="middle" font-family="Georgia, serif" font-size="13" fill="#a89b86">Keepers defend the big top</text>
  <text x="250" y="670" text-anchor="middle" font-family="Georgia, serif" font-size="11" fill="#7a7064">5×7" · 300 DPI · Personal use · Not for resale</text>
</svg>