<?xml version="1.0" encoding="UTF-8"?>
<svg xmlns="http://www.w3.org/2000/svg" width="1500" height="2100" viewBox="0 0 500 700">
  <defs>
    
  <linearGradient id="c-parchment" x1="0" y1="0" x2="0" y2="1">
    <stop stop-color="#f4e8d0"/><stop offset="0.55" stop-color="#e8d5b0"/><stop offset="1" stop-color="#d4bc8e"/>
  </linearGradient>
  <linearGradient id="c-ink" x1="0" y1="0" x2="0" y2="1">
    <stop stop-color="#1a1510"/><stop offset="0.5" stop-color="#141820"/><stop offset="1" stop-color="#0e1218"/>
  </linearGradient>
  <linearGradient id="c-bronze" x1="0" y1="0" x2="1" y2="1">
    <stop stop-color="#e8c878"/><stop offset="0.4" stop-color="#c4a882"/><stop offset="1" stop-color="#8b6914"/>
  </linearGradient>
  <linearGradient id="c-rift" x1="0" y1="0" x2="0" y2="1">
    <stop stop-color="#a8f4ff"/><stop offset="0.35" stop-color="#3de7ff"/><stop offset="0.7" stop-color="#1a8fb8"/><stop offset="1" stop-color="#0a4a68"/>
  </linearGradient>
  <linearGradient id="c-warmSky" x1="0" y1="0" x2="0" y2="1">
    <stop stop-color="#0a1018"/><stop offset="0.35" stop-color="#1a2438"/><stop offset="0.65" stop-color="#3a3028"/><stop offset="1" stop-color="#5a4030"/>
  </linearGradient>
  <linearGradient id="c-earth" x1="0" y1="0" x2="0" y2="1">
    <stop stop-color="#3d6a42"/><stop offset="0.45" stop-color="#2f5a3a"/><stop offset="1" stop-color="#1a3020"/>
  </linearGradient>
  <radialGradient id="c-amberGlow" cx="50%" cy="40%" r="50%">
    <stop stop-color="#ffe566" stop-opacity="0.55"/><stop offset="0.55" stop-color="#ffb84d" stop-opacity="0.2"/><stop offset="1" stop-color="#ffb84d" stop-opacity="0"/>
  </radialGradient>
  <radialGradient id="c-cyanGlow" cx="50%" cy="35%" r="55%">
    <stop stop-color="#3de7ff" stop-opacity="0.45"/><stop offset="0.6" stop-color="#3de7ff" stop-opacity="0.12"/><stop offset="1" stop-color="#3de7ff" stop-opacity="0"/>
  </radialGradient>
  <radialGradient id="c-emberBloom" cx="70%" cy="30%" r="45%">
    <stop stop-color="#ff7a3d" stop-opacity="0.35"/><stop offset="0.5" stop-color="#ffb84d" stop-opacity="0.12"/><stop offset="1" stop-color="#ffb84d" stop-opacity="0"/>
  </radialGradient>
  <filter id="c-soft" x="-30%" y="-30%" width="160%" height="160%">
    <feGaussianBlur stdDeviation="6"/>
  </filter>
  <filter id="c-glow" x="-40%" y="-40%" width="180%" height="180%">
    <feGaussianBlur stdDeviation="4" result="b"/><feMerge><feMergeNode in="b"/><feMergeNode in="SourceGraphic"/></feMerge>
  </filter>
    <linearGradient id="bg" x1="0" y1="0" x2="0" y2="1">
      <stop stop-color="#1a1510"/><stop offset="0.45" stop-color="#121a28"/><stop offset="1" stop-color="#2a2018"/>
    </linearGradient>
  </defs>
  <rect width="500" height="700" fill="url(#bg)"/>
  
  <rect width="500" height="700" fill="url(#c-cyanGlow)" opacity="0.45"/>
  <rect width="500" height="700" fill="url(#c-emberBloom)" opacity="0.55"/>
  <ellipse cx="120" cy="90" rx="100" ry="40" fill="#0a0a12" opacity="0.5"/>
  <g transform="translate(250,260) scale(0.9)">
    <path d="M-140 180 L0 -120 L140 180 Z" fill="#c44840"/>
    <path d="M-140 180 L0 -120 L140 180 Z" fill="none" stroke="#8b2018" stroke-width="4"/>
    <path d="M0 -120 L0 180" stroke="#ffe566" stroke-width="6"/>
    <path d="M-80 40 L80 40" stroke="#ffe566" stroke-width="4"/>
    <path d="M-50 110 L50 110" stroke="#ffe566" stroke-width="3"/>
    <path d="M0 -120 L0 -160"/><path d="M0 -160 L28 -140 L0 -128" fill="#ffb84d"/>
    
      <path d="M40 -40 L90 40 L70 50 L30 -20 Z" fill="#1a1510" opacity="0.55"/>
      <path d="M-20 60 L40 160" stroke="#3de7ff" stroke-width="3" opacity="0.6"/>
      <circle cx="60" cy="-20" r="8" fill="#ff7a3d" opacity="0.7"/>
    
    <path d="M-30 180 Q0 120 30 180" fill="#1a1510"/>
  </g>
  
  <ellipse cx="420" cy="160" rx="48" ry="108" fill="#3de7ff" opacity="0.14" filter="url(#soft)"/>
  <ellipse cx="420" cy="160" rx="25.6" ry="86.39999999999999" fill="#1a8fb8" opacity="0.2" filter="url(#soft)"/>
  <path d="M420 70 Q404 160 420 250 Q436 160 420 70 Z" fill="url(#rift)" opacity="0.92"/>
  <path d="M420 86 Q413.6 160 420 234 Q426.4 160 420 86 Z" fill="#a8f4ff" opacity="0.65"/>
  <!-- lightning forks -->
  <path d="M407.2 133 L394.4 160 L405.6 168 L391.2 196" stroke="#a8f4ff" stroke-width="2.5" fill="none" opacity="0.75"/>
  <path d="M431.2 142 L448.8 180 L437.6 188" stroke="#ffe566" stroke-width="2" fill="none" opacity="0.55"/>
  <circle cx="372" cy="110" r="5" fill="#3de7ff" opacity="0.9"/>
  <circle cx="476" cy="170" r="3.5" fill="#ffe566" opacity="0.8"/>
  <circle cx="396" cy="230" r="2.5" fill="#fff" opacity="0.7"/>
  <circle cx="450" cy="80" r="2" fill="#a8f4ff" opacity="0.85"/>
  <circle cx="410" cy="180" r="1.5" fill="#ffb84d" opacity="0.7"/>
  
  <g opacity="0.75">
    <rect x="140" y="200" width="18" height="10" rx="1" fill="#8b5a3c" transform="rotate(-18 150 205)"/>
    <rect x="200" y="170" width="14" height="8" rx="1" fill="#c4a882" transform="rotate(22 207 174)"/>
    <path d="M180 150 L192 162 L178 166 Z" fill="#5c3d2e"/>
    <circle cx="230" cy="190" r="4" fill="#3de7ff" opacity="0.6"/>
    <circle cx="125" cy="175" r="3" fill="#ffb84d" opacity="0.55"/>
  </g>
  <g transform="translate(50, 390) scale(0.55)">
    <ellipse cx="100" cy="180" rx="46" ry="9" fill="#2a2118" opacity="0.22"/>
    <circle cx="100" cy="110" r="58" fill="#2a6eb8" opacity="0.55"/>
    <circle cx="100" cy="110" r="52" fill="#3d9bff" opacity="0.75"/>
    <circle cx="100" cy="110" r="42" fill="#7ec8ff" opacity="0.85"/>
    <ellipse cx="82" cy="92" rx="16" ry="12" fill="#fff" opacity="0.4"/>
    <ellipse cx="88" cy="118" rx="6" ry="7" fill="#1a3048"/>
    <ellipse cx="116" cy="118" rx="6" ry="7" fill="#1a3048"/>
    <circle cx="90" cy="116" r="1.8" fill="#fff" opacity="0.9"/>
    <circle cx="118" cy="116" r="1.8" fill="#fff" opacity="0.9"/>
    <path d="M90 136c6 9 14 9 20 0" stroke="#1a3048" stroke-width="2.8" fill="none" stroke-linecap="round"/>
    <circle cx="52" cy="78" r="14" fill="#a8e7ff" opacity="0.7"/>
    <circle cx="154" cy="88" r="12" fill="#a8e7ff" opacity="0.6"/>
    <circle cx="148" cy="150" r="10" fill="#3de7ff" opacity="0.5"/>
    <circle cx="56" cy="148" r="9" fill="#3de7ff" opacity="0.45"/>
    <circle cx="100" cy="58" r="6" fill="#e8d5b0" opacity="0.9"/>
    <circle cx="100" cy="58" r="3.5" fill="#3de7ff"/>
    <path d="M70 160 Q100 178 130 160" fill="none" stroke="#7ec8ff" stroke-width="3" opacity="0.5"/>
  </g>
  <g transform="translate(300, 400) scale(0.52)">
    <ellipse cx="100" cy="186" rx="42" ry="8" fill="#2a2118" opacity="0.35"/>
    <!-- athletic torso — longer, less balloon -->
    <ellipse cx="100" cy="138" rx="34" ry="36" fill="#d4922a"/>
    <ellipse cx="100" cy="128" rx="26" ry="28" fill="#e8a838"/>
    <ellipse cx="92" cy="116" rx="8" ry="7" fill="#fff0a8" opacity="0.4"/>
    <!-- braced hind legs -->
    <path d="M72 152 Q58 172 64 184 Q78 180 82 162 Z" fill="#b87820"/>
    <path d="M128 152 Q142 172 136 184 Q122 180 118 162 Z" fill="#b87820"/>
    <ellipse cx="64" cy="184" rx="11" ry="5" fill="#8b5a18"/>
    <ellipse cx="136" cy="184" rx="11" ry="5" fill="#8b5a18"/>
    <!-- forward-planted forelegs -->
    <path d="M58 130 Q40 148 46 168 Q62 164 70 142 Z" fill="#ffb84d"/>
    <path d="M142 130 Q160 148 154 168 Q138 164 130 142 Z" fill="#ffb84d"/>
    <ellipse cx="46" cy="168" rx="9" ry="4" fill="#d4922a"/>
    <ellipse cx="154" cy="168" rx="9" ry="4" fill="#d4922a"/>
    <!-- compact head (game-true proportions) -->
    <ellipse cx="100" cy="68" rx="28" ry="26" fill="#ffe566"/>
    <ellipse cx="100" cy="64" rx="20" ry="16" fill="#fff2a0"/>
    <!-- tall pointed ears -->
    <path d="M76 54 L62 8 L88 46 Z" fill="#ff7a3d"/>
    <path d="M76 48 L66 20 L84 44 Z" fill="#ffc84a"/>
    <path d="M124 54 L138 8 L112 46 Z" fill="#ff7a3d"/>
    <path d="M124 48 L134 20 L116 44 Z" fill="#ffc84a"/>
    <!-- fierce flame mane -->
    <path d="M80 38c-14-24-2-42 18-48 2 14 8 24 14 32-12-4-22 2-32 16Z" fill="#ff3a10"/>
    <path d="M120 38c14-24 2-42-18-48-2 14-8 24-14 32 12-4 22 2 32 16Z" fill="#ff3a10"/>
    <path d="M100 4c6 10 8 20 2 32 12-6 16-18 12-34-4 4-8 4-14 2Z" fill="#ffb84d"/>
    <path d="M100 0c4 8 5 14 1 22 8-4 10-12 8-22-2 2-5 2-9 0Z" fill="#ffe566"/>
    <!-- determined narrowed eyes -->
    <path d="M82 64 L94 62" stroke="#1a1510" stroke-width="2.2" stroke-linecap="round"/>
    <path d="M118 64 L106 62" stroke="#1a1510" stroke-width="2.2" stroke-linecap="round"/>
    <ellipse cx="88" cy="70" rx="3.5" ry="4.5" fill="#1a1510"/>
    <ellipse cx="112" cy="70" rx="3.5" ry="4.5" fill="#1a1510"/>
    <circle cx="89" cy="68.5" r="1.1" fill="#3de7ff" opacity="0.95"/>
    <circle cx="113" cy="68.5" r="1.1" fill="#3de7ff" opacity="0.95"/>
    <ellipse cx="100" cy="80" rx="3.5" ry="2.5" fill="#c44820"/>
    <path d="M90 88c4 2 12 2 16 0" stroke="#1a1510" stroke-width="2" fill="none" stroke-linecap="round"/>
    <!-- cyan rift crystal brow — bright focus -->
    <path d="M100 30 L112 50 L100 60 L88 50 Z" fill="#3de7ff"/>
    <path d="M100 34 L108 48 L100 56 L92 48 Z" fill="#a8f4ff" opacity="0.9"/>
    <circle cx="100" cy="44" r="3" fill="#fff" opacity="0.55"/>
    <!-- sweeping flame tail -->
    <path d="M138 118c28-8 42 14 30 38-16-10-24-4-30 12 6-18 2-32 0-50Z" fill="#ff5a20"/>
    <path d="M146 126c16-2 24 10 18 22-10-6-14-2-18 6 4-10 2-18 0-28Z" fill="#ffe566"/>
    <circle cx="40" cy="42" r="2.5" fill="#3de7ff" opacity="0.95"/>
    <circle cx="168" cy="58" r="2" fill="#ffb84d" opacity="0.9"/>
    <circle cx="52" cy="96" r="1.5" fill="#a8f4ff" opacity="0.7"/>
  </g>
  <g transform="translate(40,360) scale(0.7)">
    <ellipse cx="40" cy="128" rx="28" ry="7" fill="#2a2118" opacity="0.4"/>
    <!-- layered cloak -->
    <path d="M14 118 L22 52 L32 40 L40 36 L48 40 L58 52 L66 118 L52 126 L40 120 L28 126 Z" fill="#2a3848"/>
    <path d="M20 118 L26 70 L40 95 L54 70 L60 118 L50 122 L40 116 L30 122 Z" fill="#2a2118" opacity="0.28"/>
    <!-- hood + face -->
    <path d="M24 46 Q40 22 56 46 L50 58 Q40 50 30 58 Z" fill="#1a1510"/>
    <ellipse cx="40" cy="50" rx="9" ry="10" fill="#e8d5b0"/>
    <ellipse cx="37" cy="48" rx="1.5" ry="2" fill="#1a1510"/>
    <ellipse cx="43" cy="48" rx="1.5" ry="2" fill="#1a1510"/>
    <!-- bronze staff + cyan crystal -->
    <rect x="60" y="28" width="5" height="90" rx="1.5" fill="#8b6914"/>
    <path d="M54 30 L72 30 L63 14 Z" fill="#3de7ff" opacity="0.95"/>
    <circle cx="63" cy="24" r="7" fill="#66e0ff" opacity="0.45" filter="url(#soft)"/>
    <!-- amber belt + pouch -->
    <rect x="28" y="82" width="24" height="6" rx="1" fill="#c4a882"/>
    <ellipse cx="48" cy="92" rx="5" ry="6" fill="#8b5a3c"/>
  </g>
  <g transform="translate(400,350) scale(0.7)">
    <ellipse cx="40" cy="128" rx="28" ry="7" fill="#2a2118" opacity="0.4"/>
    <!-- layered cloak -->
    <path d="M14 118 L22 52 L32 40 L40 36 L48 40 L58 52 L66 118 L52 126 L40 120 L28 126 Z" fill="#4a3020"/>
    <path d="M20 118 L26 70 L40 95 L54 70 L60 118 L50 122 L40 116 L30 122 Z" fill="#2a2118" opacity="0.28"/>
    <!-- hood + face -->
    <path d="M24 46 Q40 22 56 46 L50 58 Q40 50 30 58 Z" fill="#1a1510"/>
    <ellipse cx="40" cy="50" rx="9" ry="10" fill="#e8d5b0"/>
    <ellipse cx="37" cy="48" rx="1.5" ry="2" fill="#1a1510"/>
    <ellipse cx="43" cy="48" rx="1.5" ry="2" fill="#1a1510"/>
    <!-- bronze staff + cyan crystal -->
    <rect x="60" y="28" width="5" height="90" rx="1.5" fill="#8b6914"/>
    <path d="M54 30 L72 30 L63 14 Z" fill="#3de7ff" opacity="0.95"/>
    <circle cx="63" cy="24" r="7" fill="#66e0ff" opacity="0.45" filter="url(#soft)"/>
    <!-- amber belt + pouch -->
    <rect x="28" y="82" width="24" height="6" rx="1" fill="#c4a882"/>
    <ellipse cx="48" cy="92" rx="5" ry="6" fill="#8b5a3c"/>
  </g>
  <rect x="16" y="16" width="468" height="668" rx="12" fill="none" stroke="#c4a882" stroke-width="3"/>
  <rect x="24" y="24" width="452" height="652" rx="8" fill="none" stroke="#3de7ff" stroke-width="1" opacity="0.35"/>
  <text x="250" y="58" text-anchor="middle" font-family="Georgia, serif" font-size="14" fill="#ffb84d" letter-spacing="5">RIFTWILDS</text>
  <rect x="40" y="520" width="420" height="120" rx="8" fill="#1a1510" opacity="0.78" stroke="#c4a882" stroke-width="1.5"/>
  <text x="250" y="565" text-anchor="middle" font-family="Georgia, serif" font-size="36" fill="#f3efe6" font-weight="700">Circus Under Fire</text>
  <text x="250" y="598" text-anchor="middle" font-family="Georgia, serif" font-size="16" fill="#e8d5b0">Traveling Circus</text>
  <text x="250" y="625" text-anchor="middle" font-family="Georgia, serif" font-size="13" fill="#a89b86">Keepers defend the big top</text>
  <text x="250" y="670" text-anchor="middle" font-family="Georgia, serif" font-size="11" fill="#7a7064">5×7" · 300 DPI · Personal use · Not for resale</text>
</svg>