<?xml version="1.0" encoding="UTF-8"?>
<svg xmlns="http://www.w3.org/2000/svg" width="2480" height="3508" viewBox="0 0 794 1123">
  <defs>
    
  <linearGradient id="parchment" x1="0" y1="0" x2="0" y2="1">
    <stop stop-color="#f4e8d0"/><stop offset="0.55" stop-color="#e8d5b0"/><stop offset="1" stop-color="#d4bc8e"/>
  </linearGradient>
  <linearGradient id="ink" x1="0" y1="0" x2="0" y2="1">
    <stop stop-color="#1a1510"/><stop offset="0.5" stop-color="#141820"/><stop offset="1" stop-color="#0e1218"/>
  </linearGradient>
  <linearGradient id="bronze" x1="0" y1="0" x2="1" y2="1">
    <stop stop-color="#e8c878"/><stop offset="0.4" stop-color="#c4a882"/><stop offset="1" stop-color="#8b6914"/>
  </linearGradient>
  <linearGradient id="rift" x1="0" y1="0" x2="0" y2="1">
    <stop stop-color="#a8f4ff"/><stop offset="0.35" stop-color="#3de7ff"/><stop offset="0.7" stop-color="#1a8fb8"/><stop offset="1" stop-color="#0a4a68"/>
  </linearGradient>
  <linearGradient id="warmSky" x1="0" y1="0" x2="0" y2="1">
    <stop stop-color="#0a1018"/><stop offset="0.35" stop-color="#1a2438"/><stop offset="0.65" stop-color="#3a3028"/><stop offset="1" stop-color="#5a4030"/>
  </linearGradient>
  <linearGradient id="earth" x1="0" y1="0" x2="0" y2="1">
    <stop stop-color="#3d6a42"/><stop offset="0.45" stop-color="#2f5a3a"/><stop offset="1" stop-color="#1a3020"/>
  </linearGradient>
  <radialGradient id="amberGlow" cx="50%" cy="40%" r="50%">
    <stop stop-color="#ffe566" stop-opacity="0.55"/><stop offset="0.55" stop-color="#ffb84d" stop-opacity="0.2"/><stop offset="1" stop-color="#ffb84d" stop-opacity="0"/>
  </radialGradient>
  <radialGradient id="cyanGlow" cx="50%" cy="35%" r="55%">
    <stop stop-color="#3de7ff" stop-opacity="0.45"/><stop offset="0.6" stop-color="#3de7ff" stop-opacity="0.12"/><stop offset="1" stop-color="#3de7ff" stop-opacity="0"/>
  </radialGradient>
  <radialGradient id="emberBloom" cx="70%" cy="30%" r="45%">
    <stop stop-color="#ff7a3d" stop-opacity="0.35"/><stop offset="0.5" stop-color="#ffb84d" stop-opacity="0.12"/><stop offset="1" stop-color="#ffb84d" stop-opacity="0"/>
  </radialGradient>
  <filter id="soft" x="-30%" y="-30%" width="160%" height="160%">
    <feGaussianBlur stdDeviation="6"/>
  </filter>
  <filter id="glow" x="-40%" y="-40%" width="180%" height="180%">
    <feGaussianBlur stdDeviation="4" result="b"/><feMerge><feMergeNode in="b"/><feMergeNode in="SourceGraphic"/></feMerge>
  </filter>
    <linearGradient id="sky" x1="0" y1="0" x2="0" y2="1">
      <stop stop-color="#060a12"/><stop offset="0.35" stop-color="#152438"/><stop offset="0.7" stop-color="#3a2c24"/><stop offset="1" stop-color="#5a4030"/>
    </linearGradient>
  </defs>
  <rect width="794" height="1123" fill="url(#sky)"/>
  <rect width="794" height="1123" fill="url(#amberGlow)" opacity="0.55"/>
  <rect width="794" height="1123" fill="url(#emberBloom)" opacity="0.7"/>
  <!-- layered storm front -->
  <ellipse cx="142.92" cy="179.68" rx="180" ry="60" fill="#060c18" opacity="0.8"/>
  <ellipse cx="436.70000000000005" cy="134.76" rx="200" ry="50" fill="#0a1424" opacity="0.75"/>
  <ellipse cx="674.9" cy="224.60000000000002" rx="140" ry="55" fill="#0e1828" opacity="0.7"/>
  <g transform="translate(15.88,539.04) scale(0.85)">
    <rect x="0" y="40" width="110" height="70" fill="#6a4530"/>
    <path d="M-10 40 L55 -20 L120 40 Z" fill="#4a3020"/>
    <path d="M-10 40 L55 -20 L120 40 Z" fill="none" stroke="#c4a882" stroke-width="2" opacity="0.5"/>
    <rect x="38" y="62" width="28" height="48" fill="#1a1510" opacity="0.65"/>
    <rect x="12" y="55" width="18" height="16" fill="#3de7ff" opacity="0.25"/>
    <rect x="80" y="55" width="18" height="16" fill="#ffb84d" opacity="0.2"/>
    <path d="M70 -5 L105 42" stroke="#2a2118" stroke-width="4"/><path d="M90 30 L130 80" fill="#4a3020" opacity="0.85"/><circle cx="95" cy="20" r="6" fill="#ff7a3d" opacity="0.55"/>
    <circle cx="55" cy="28" r="4" fill="#ffb84d" opacity="0.7"/>
  </g>
  <g transform="translate(619.32,583.96) scale(0.7)">
    <rect x="0" y="40" width="110" height="70" fill="#6a4530"/>
    <path d="M-10 40 L55 -20 L120 40 Z" fill="#4a3020"/>
    <path d="M-10 40 L55 -20 L120 40 Z" fill="none" stroke="#c4a882" stroke-width="2" opacity="0.5"/>
    <rect x="38" y="62" width="28" height="48" fill="#1a1510" opacity="0.65"/>
    <rect x="12" y="55" width="18" height="16" fill="#3de7ff" opacity="0.25"/>
    <rect x="80" y="55" width="18" height="16" fill="#ffb84d" opacity="0.2"/>
    <path d="M70 -5 L105 42" stroke="#2a2118" stroke-width="4"/><path d="M90 30 L130 80" fill="#4a3020" opacity="0.85"/><circle cx="95" cy="20" r="6" fill="#ff7a3d" opacity="0.55"/>
    <circle cx="55" cy="28" r="4" fill="#ffb84d" opacity="0.7"/>
  </g>
  
  <ellipse cx="587.56" cy="404.28" rx="102" ry="323.424" fill="#3de7ff" opacity="0.14" filter="url(#soft)"/>
  <ellipse cx="587.56" cy="404.28" rx="54.400000000000006" ry="258.7392" fill="#1a8fb8" opacity="0.2" filter="url(#soft)"/>
  <path d="M587.56 134.76 Q553.56 404.28 587.56 673.8 Q621.56 404.28 587.56 134.76 Z" fill="url(#rift)" opacity="0.92"/>
  <path d="M587.56 150.76 Q573.9599999999999 404.28 587.56 657.8 Q601.16 404.28 587.56 150.76 Z" fill="#a8f4ff" opacity="0.65"/>
  <!-- lightning forks -->
  <path d="M560.3599999999999 323.424 L533.16 404.28 L556.9599999999999 412.28 L526.3599999999999 512.088" stroke="#a8f4ff" stroke-width="2.5" fill="none" opacity="0.75"/>
  <path d="M611.3599999999999 350.376 L648.76 424.28 L624.9599999999999 432.28" stroke="#ffe566" stroke-width="2" fill="none" opacity="0.55"/>
  <circle cx="539.56" cy="354.28" r="5" fill="#3de7ff" opacity="0.9"/>
  <circle cx="643.56" cy="414.28" r="3.5" fill="#ffe566" opacity="0.8"/>
  <circle cx="563.56" cy="474.28" r="2.5" fill="#fff" opacity="0.7"/>
  <circle cx="617.56" cy="324.28" r="2" fill="#a8f4ff" opacity="0.85"/>
  <circle cx="577.56" cy="424.28" r="1.5" fill="#ffb84d" opacity="0.7"/>
  
  <g opacity="0.75">
    <rect x="396.70000000000005" y="471.65999999999997" width="18" height="10" rx="1" fill="#8b5a3c" transform="rotate(-18 406.70000000000005 476.65999999999997)"/>
    <rect x="456.70000000000005" y="441.65999999999997" width="14" height="8" rx="1" fill="#c4a882" transform="rotate(22 463.70000000000005 445.65999999999997)"/>
    <path d="M436.70000000000005 421.65999999999997 L448.70000000000005 433.65999999999997 L434.70000000000005 437.65999999999997 Z" fill="#5c3d2e"/>
    <circle cx="486.70000000000005" cy="461.65999999999997" r="4" fill="#3de7ff" opacity="0.6"/>
    <circle cx="381.70000000000005" cy="446.65999999999997" r="3" fill="#ffb84d" opacity="0.55"/>
  </g>
  <!-- warm earth ridge + cyan cracks -->
  <path d="M0 786.0999999999999 Q198.5 696.26 381.12 763.6400000000001 Q571.68 853.48 794 718.72 L794 1123 L0 1123 Z" fill="url(#earth)"/>
  <path d="M0 875.94 Q277.9 808.56 436.70000000000005 898.4000000000001 Q635.2 988.24 794 853.48 L794 1123 L0 1123 Z" fill="#1a3020" opacity="0.85"/>
  <path d="M254.08 786.0999999999999 L317.6 965.78 L285.84 1078.08" stroke="#3de7ff" stroke-width="3.5" fill="none" opacity="0.65"/>
  <path d="M412.88 808.56 L476.4 1033.16" stroke="#2a2118" stroke-width="5" fill="none" opacity="0.45"/>
  <path d="M158.8 831.02 L222.32000000000002 1010.7" stroke="#3de7ff" stroke-width="2" fill="none" opacity="0.4"/>
  <g transform="translate(63.52,696.26) scale(1.1)">
    <rect x="8" y="0" width="4" height="14" fill="#8b6914"/>
    <rect x="2" y="14" width="16" height="18" rx="2" fill="#c4a882"/>
    <rect x="5" y="17" width="10" height="12" rx="1" fill="#ffb84d" opacity="0.85"/>
    <ellipse cx="10" cy="40" rx="14" ry="8" fill="#ffb84d" opacity="0.25" filter="url(#soft)"/>
  </g>
  <g transform="translate(698.72,741.1800000000001) scale(0.95)">
    <rect x="8" y="0" width="4" height="14" fill="#8b6914"/>
    <rect x="2" y="14" width="16" height="18" rx="2" fill="#c4a882"/>
    <rect x="5" y="17" width="10" height="12" rx="1" fill="#ffb84d" opacity="0.85"/>
    <ellipse cx="10" cy="40" rx="14" ry="8" fill="#ffb84d" opacity="0.25" filter="url(#soft)"/>
  </g>
  <g transform="translate(79.4,628.8800000000001) scale(1.15)">
    <ellipse cx="40" cy="128" rx="28" ry="7" fill="#2a2118" opacity="0.4"/>
    <!-- layered cloak -->
    <path d="M14 118 L22 52 L32 40 L40 36 L48 40 L58 52 L66 118 L52 126 L40 120 L28 126 Z" fill="#2a3848"/>
    <path d="M20 118 L26 70 L40 95 L54 70 L60 118 L50 122 L40 116 L30 122 Z" fill="#2a2118" opacity="0.28"/>
    <!-- hood + face -->
    <path d="M24 46 Q40 22 56 46 L50 58 Q40 50 30 58 Z" fill="#1a1510"/>
    <ellipse cx="40" cy="50" rx="9" ry="10" fill="#e8d5b0"/>
    <ellipse cx="37" cy="48" rx="1.5" ry="2" fill="#1a1510"/>
    <ellipse cx="43" cy="48" rx="1.5" ry="2" fill="#1a1510"/>
    <!-- bronze staff + cyan crystal -->
    <rect x="60" y="28" width="5" height="90" rx="1.5" fill="#8b6914"/>
    <path d="M54 30 L72 30 L63 14 Z" fill="#3de7ff" opacity="0.95"/>
    <circle cx="63" cy="24" r="7" fill="#66e0ff" opacity="0.45" filter="url(#soft)"/>
    <!-- amber belt + pouch -->
    <rect x="28" y="82" width="24" height="6" rx="1" fill="#c4a882"/>
    <ellipse cx="48" cy="92" rx="5" ry="6" fill="#8b5a3c"/>
  </g>
  <g transform="translate(174.68,673.8) scale(0.85)">
    <ellipse cx="40" cy="128" rx="28" ry="7" fill="#2a2118" opacity="0.4"/>
    <!-- layered cloak -->
    <path d="M14 118 L22 52 L32 40 L40 36 L48 40 L58 52 L66 118 L52 126 L40 120 L28 126 Z" fill="#4a3a28"/>
    <path d="M20 118 L26 70 L40 95 L54 70 L60 118 L50 122 L40 116 L30 122 Z" fill="#2a2118" opacity="0.28"/>
    <!-- hood + face -->
    <path d="M24 46 Q40 22 56 46 L50 58 Q40 50 30 58 Z" fill="#1a1510"/>
    <ellipse cx="40" cy="50" rx="9" ry="10" fill="#e8d5b0"/>
    <ellipse cx="37" cy="48" rx="1.5" ry="2" fill="#1a1510"/>
    <ellipse cx="43" cy="48" rx="1.5" ry="2" fill="#1a1510"/>
    <!-- bronze staff + cyan crystal -->
    <rect x="60" y="28" width="5" height="90" rx="1.5" fill="#8b6914"/>
    <path d="M54 30 L72 30 L63 14 Z" fill="#3de7ff" opacity="0.95"/>
    <circle cx="63" cy="24" r="7" fill="#66e0ff" opacity="0.45" filter="url(#soft)"/>
    <!-- amber belt + pouch -->
    <rect x="28" y="82" width="24" height="6" rx="1" fill="#c4a882"/>
    <ellipse cx="48" cy="92" rx="5" ry="6" fill="#8b5a3c"/>
  </g>
  <g transform="translate(247,314.44000000000005) scale(1.5)">
    
    <ellipse cx="100" cy="186" rx="42" ry="8" fill="#2a2118" opacity="0.35"/>
    <!-- athletic torso — longer, less balloon -->
    <ellipse cx="100" cy="138" rx="34" ry="36" fill="#d4922a"/>
    <ellipse cx="100" cy="128" rx="26" ry="28" fill="#e8a838"/>
    <ellipse cx="92" cy="116" rx="8" ry="7" fill="#fff0a8" opacity="0.4"/>
    <!-- braced hind legs -->
    <path d="M72 152 Q58 172 64 184 Q78 180 82 162 Z" fill="#b87820"/>
    <path d="M128 152 Q142 172 136 184 Q122 180 118 162 Z" fill="#b87820"/>
    <ellipse cx="64" cy="184" rx="11" ry="5" fill="#8b5a18"/>
    <ellipse cx="136" cy="184" rx="11" ry="5" fill="#8b5a18"/>
    <!-- forward-planted forelegs -->
    <path d="M58 130 Q40 148 46 168 Q62 164 70 142 Z" fill="#ffb84d"/>
    <path d="M142 130 Q160 148 154 168 Q138 164 130 142 Z" fill="#ffb84d"/>
    <ellipse cx="46" cy="168" rx="9" ry="4" fill="#d4922a"/>
    <ellipse cx="154" cy="168" rx="9" ry="4" fill="#d4922a"/>
    <!-- compact head (game-true proportions) -->
    <ellipse cx="100" cy="68" rx="28" ry="26" fill="#ffe566"/>
    <ellipse cx="100" cy="64" rx="20" ry="16" fill="#fff2a0"/>
    <!-- tall pointed ears -->
    <path d="M76 54 L62 8 L88 46 Z" fill="#ff7a3d"/>
    <path d="M76 48 L66 20 L84 44 Z" fill="#ffc84a"/>
    <path d="M124 54 L138 8 L112 46 Z" fill="#ff7a3d"/>
    <path d="M124 48 L134 20 L116 44 Z" fill="#ffc84a"/>
    <!-- fierce flame mane -->
    <path d="M80 38c-14-24-2-42 18-48 2 14 8 24 14 32-12-4-22 2-32 16Z" fill="#ff3a10"/>
    <path d="M120 38c14-24 2-42-18-48-2 14-8 24-14 32 12-4 22 2 32 16Z" fill="#ff3a10"/>
    <path d="M100 4c6 10 8 20 2 32 12-6 16-18 12-34-4 4-8 4-14 2Z" fill="#ffb84d"/>
    <path d="M100 0c4 8 5 14 1 22 8-4 10-12 8-22-2 2-5 2-9 0Z" fill="#ffe566"/>
    <!-- determined narrowed eyes -->
    <path d="M82 64 L94 62" stroke="#1a1510" stroke-width="2.2" stroke-linecap="round"/>
    <path d="M118 64 L106 62" stroke="#1a1510" stroke-width="2.2" stroke-linecap="round"/>
    <ellipse cx="88" cy="70" rx="3.5" ry="4.5" fill="#1a1510"/>
    <ellipse cx="112" cy="70" rx="3.5" ry="4.5" fill="#1a1510"/>
    <circle cx="89" cy="68.5" r="1.1" fill="#3de7ff" opacity="0.95"/>
    <circle cx="113" cy="68.5" r="1.1" fill="#3de7ff" opacity="0.95"/>
    <ellipse cx="100" cy="80" rx="3.5" ry="2.5" fill="#c44820"/>
    <path d="M90 88c4 2 12 2 16 0" stroke="#1a1510" stroke-width="2" fill="none" stroke-linecap="round"/>
    <!-- cyan rift crystal brow — bright focus -->
    <path d="M100 30 L112 50 L100 60 L88 50 Z" fill="#3de7ff"/>
    <path d="M100 34 L108 48 L100 56 L92 48 Z" fill="#a8f4ff" opacity="0.9"/>
    <circle cx="100" cy="44" r="3" fill="#fff" opacity="0.55"/>
    <!-- sweeping flame tail -->
    <path d="M138 118c28-8 42 14 30 38-16-10-24-4-30 12 6-18 2-32 0-50Z" fill="#ff5a20"/>
    <path d="M146 126c16-2 24 10 18 22-10-6-14-2-18 6 4-10 2-18 0-28Z" fill="#ffe566"/>
    <circle cx="40" cy="42" r="2.5" fill="#3de7ff" opacity="0.95"/>
    <circle cx="168" cy="58" r="2" fill="#ffb84d" opacity="0.9"/>
    <circle cx="52" cy="96" r="1.5" fill="#a8f4ff" opacity="0.7"/>
  
  </g>
  <!-- bronze title plate -->
  <rect x="79.4" y="915.2449999999999" width="635.2" height="145.99" rx="12" fill="#12100c" opacity="0.82" stroke="#c4a882" stroke-width="2.5"/>
  <rect x="95.28" y="926.4749999999999" width="603.44" height="123.53" rx="8" fill="none" stroke="#3de7ff" stroke-width="1" opacity="0.35"/>
  <text x="397" y="95.45500000000001" text-anchor="middle" font-family="Georgia, serif" font-size="18" fill="#ffb84d" letter-spacing="8">RIFTWILDS</text>
  <text x="397" y="982.625" text-anchor="middle" font-family="Georgia, serif" font-size="48" fill="#f3efe6" font-weight="700">Spark's Stand</text>
  <text x="397" y="1027.545" text-anchor="middle" font-family="Georgia, serif" font-size="17" fill="#e8d5b0">Glowpup guardian · Keepers hold the line</text>
  <text x="397" y="1072.465" text-anchor="middle" font-family="Georgia, serif" font-size="13" fill="#c4a882">300 DPI print · Personal use · Not for resale</text>
</svg>