<?xml version="1.0" encoding="UTF-8"?>
<svg xmlns="http://www.w3.org/2000/svg" width="2550" height="3300" viewBox="0 0 850 1100">
  <defs>
    
  <linearGradient id="parchment" x1="0" y1="0" x2="0" y2="1">
    <stop stop-color="#f4e8d0"/><stop offset="0.55" stop-color="#e8d5b0"/><stop offset="1" stop-color="#d4bc8e"/>
  </linearGradient>
  <linearGradient id="ink" x1="0" y1="0" x2="0" y2="1">
    <stop stop-color="#1a1510"/><stop offset="0.5" stop-color="#141820"/><stop offset="1" stop-color="#0e1218"/>
  </linearGradient>
  <linearGradient id="bronze" x1="0" y1="0" x2="1" y2="1">
    <stop stop-color="#e8c878"/><stop offset="0.4" stop-color="#c4a882"/><stop offset="1" stop-color="#8b6914"/>
  </linearGradient>
  <linearGradient id="rift" x1="0" y1="0" x2="0" y2="1">
    <stop stop-color="#a8f4ff"/><stop offset="0.35" stop-color="#3de7ff"/><stop offset="0.7" stop-color="#1a8fb8"/><stop offset="1" stop-color="#0a4a68"/>
  </linearGradient>
  <linearGradient id="warmSky" x1="0" y1="0" x2="0" y2="1">
    <stop stop-color="#0a1018"/><stop offset="0.35" stop-color="#1a2438"/><stop offset="0.65" stop-color="#3a3028"/><stop offset="1" stop-color="#5a4030"/>
  </linearGradient>
  <linearGradient id="earth" x1="0" y1="0" x2="0" y2="1">
    <stop stop-color="#3d6a42"/><stop offset="0.45" stop-color="#2f5a3a"/><stop offset="1" stop-color="#1a3020"/>
  </linearGradient>
  <radialGradient id="amberGlow" cx="50%" cy="40%" r="50%">
    <stop stop-color="#ffe566" stop-opacity="0.55"/><stop offset="0.55" stop-color="#ffb84d" stop-opacity="0.2"/><stop offset="1" stop-color="#ffb84d" stop-opacity="0"/>
  </radialGradient>
  <radialGradient id="cyanGlow" cx="50%" cy="35%" r="55%">
    <stop stop-color="#3de7ff" stop-opacity="0.45"/><stop offset="0.6" stop-color="#3de7ff" stop-opacity="0.12"/><stop offset="1" stop-color="#3de7ff" stop-opacity="0"/>
  </radialGradient>
  <radialGradient id="emberBloom" cx="70%" cy="30%" r="45%">
    <stop stop-color="#ff7a3d" stop-opacity="0.35"/><stop offset="0.5" stop-color="#ffb84d" stop-opacity="0.12"/><stop offset="1" stop-color="#ffb84d" stop-opacity="0"/>
  </radialGradient>
  <filter id="soft" x="-30%" y="-30%" width="160%" height="160%">
    <feGaussianBlur stdDeviation="6"/>
  </filter>
  <filter id="glow" x="-40%" y="-40%" width="180%" height="180%">
    <feGaussianBlur stdDeviation="4" result="b"/><feMerge><feMergeNode in="b"/><feMergeNode in="SourceGraphic"/></feMerge>
  </filter>
    <linearGradient id="sky" x1="0" y1="0" x2="0" y2="1">
      <stop stop-color="#060e1c"/><stop offset="0.45" stop-color="#1a3048"/><stop offset="0.8" stop-color="#2a4030"/><stop offset="1" stop-color="#3a3828"/>
    </linearGradient>
    <radialGradient id="nestglow" cx="50%" cy="52%" r="42%">
      <stop stop-color="#3de7ff" stop-opacity="0.45"/><stop offset="0.5" stop-color="#ffb84d" stop-opacity="0.2"/><stop offset="1" stop-color="#3de7ff" stop-opacity="0"/>
    </radialGradient>
  </defs>
  <rect width="850" height="1100" fill="url(#sky)"/>
  
  <path d="M0 165 Q212.5 55 425 198 Q637.5 308.00000000000006 850 132" fill="none" stroke="#3de7ff" stroke-width="18" opacity="0.25"/>
  <path d="M0 242 Q255 110 467.50000000000006 264 Q680 352 850 198" fill="none" stroke="#7dffc0" stroke-width="14" opacity="0.2"/>
  <path d="M0 308.00000000000006 Q170 198 382.5 330 Q595 418 850 242" fill="none" stroke="#ffb84d" stroke-width="10" opacity="0.15"/>
  <rect width="850" height="1100" fill="url(#nestglow)"/>
  <ellipse cx="200" cy="150" rx="120" ry="40" fill="#060c18" opacity="0.5"/>
  <ellipse cx="650" cy="130" rx="140" ry="45" fill="#0a1424" opacity="0.45"/>
  <!-- timber hatchery arch with bronze trim -->
  <path d="M160 800 Q160 400 425 360 Q690 400 690 800" fill="none" stroke="#6a4530" stroke-width="22"/>
  <path d="M180 800 Q180 420 425 385 Q670 420 670 800" fill="none" stroke="#c4a882" stroke-width="7" opacity="0.7"/>
  <path d="M200 800 Q200 440 425 405 Q650 440 650 800" fill="none" stroke="#8b6914" stroke-width="2" opacity="0.4"/>
  <g transform="translate(175,520) scale(1.05)">
    <rect x="8" y="0" width="4" height="14" fill="#8b6914"/>
    <rect x="2" y="14" width="16" height="18" rx="2" fill="#c4a882"/>
    <rect x="5" y="17" width="10" height="12" rx="1" fill="#ffb84d" opacity="0.85"/>
    <ellipse cx="10" cy="40" rx="14" ry="8" fill="#ffb84d" opacity="0.25" filter="url(#soft)"/>
  </g>
  <g transform="translate(650,520) scale(1.05)">
    <rect x="8" y="0" width="4" height="14" fill="#8b6914"/>
    <rect x="2" y="14" width="16" height="18" rx="2" fill="#c4a882"/>
    <rect x="5" y="17" width="10" height="12" rx="1" fill="#ffb84d" opacity="0.85"/>
    <ellipse cx="10" cy="40" rx="14" ry="8" fill="#ffb84d" opacity="0.25" filter="url(#soft)"/>
  </g>
  <!-- nest -->
  <ellipse cx="425" cy="750" rx="220" ry="60" fill="#3d6a42" opacity="0.75"/>
  <path d="M220 730 Q320 640 400 730 Q425 680 450 730 Q530 640 630 730" fill="#5aad62" opacity="0.55"/>
  <path d="M250 760 Q340 690 425 765 Q510 690 600 760" fill="#2f5a3a" opacity="0.7"/>
  <!-- eggs with rift markings -->
  <ellipse cx="350" cy="620" rx="52" ry="72" fill="#e8d5b0"/>
  <ellipse cx="350" cy="620" rx="40" ry="56" fill="#f3efe6"/>
  <path d="M328 585c16-8 32 2 38 16" stroke="#3de7ff" stroke-width="4.5" fill="none"/>
  <path d="M350 555 L360 576 L350 586 L340 576 Z" fill="#ffb84d"/>
  <ellipse cx="500" cy="640" rx="44" ry="60" fill="#d4bc8e"/>
  <ellipse cx="500" cy="640" rx="34" ry="48" fill="#e8d5b0"/>
  <path d="M482 612c12-5 24 2 28 14" stroke="#3de7ff" stroke-width="3.5" fill="none"/>
  <ellipse cx="425" cy="680" rx="28" ry="38" fill="#c4a882"/>
  <path d="M425 650 L432 664 L425 670 L418 664 Z" fill="#3de7ff"/>
  <g transform="translate(540,690) scale(0.48)">
    <ellipse cx="100" cy="186" rx="42" ry="8" fill="#2a2118" opacity="0.35"/>
    <!-- athletic torso — longer, less balloon -->
    <ellipse cx="100" cy="138" rx="34" ry="36" fill="#d4922a"/>
    <ellipse cx="100" cy="128" rx="26" ry="28" fill="#e8a838"/>
    <ellipse cx="92" cy="116" rx="8" ry="7" fill="#fff0a8" opacity="0.4"/>
    <!-- braced hind legs -->
    <path d="M72 152 Q58 172 64 184 Q78 180 82 162 Z" fill="#b87820"/>
    <path d="M128 152 Q142 172 136 184 Q122 180 118 162 Z" fill="#b87820"/>
    <ellipse cx="64" cy="184" rx="11" ry="5" fill="#8b5a18"/>
    <ellipse cx="136" cy="184" rx="11" ry="5" fill="#8b5a18"/>
    <!-- forward-planted forelegs -->
    <path d="M58 130 Q40 148 46 168 Q62 164 70 142 Z" fill="#ffb84d"/>
    <path d="M142 130 Q160 148 154 168 Q138 164 130 142 Z" fill="#ffb84d"/>
    <ellipse cx="46" cy="168" rx="9" ry="4" fill="#d4922a"/>
    <ellipse cx="154" cy="168" rx="9" ry="4" fill="#d4922a"/>
    <!-- compact head (game-true proportions) -->
    <ellipse cx="100" cy="68" rx="28" ry="26" fill="#ffe566"/>
    <ellipse cx="100" cy="64" rx="20" ry="16" fill="#fff2a0"/>
    <!-- tall pointed ears -->
    <path d="M76 54 L62 8 L88 46 Z" fill="#ff7a3d"/>
    <path d="M76 48 L66 20 L84 44 Z" fill="#ffc84a"/>
    <path d="M124 54 L138 8 L112 46 Z" fill="#ff7a3d"/>
    <path d="M124 48 L134 20 L116 44 Z" fill="#ffc84a"/>
    <!-- fierce flame mane -->
    <path d="M80 38c-14-24-2-42 18-48 2 14 8 24 14 32-12-4-22 2-32 16Z" fill="#ff3a10"/>
    <path d="M120 38c14-24 2-42-18-48-2 14-8 24-14 32 12-4 22 2 32 16Z" fill="#ff3a10"/>
    <path d="M100 4c6 10 8 20 2 32 12-6 16-18 12-34-4 4-8 4-14 2Z" fill="#ffb84d"/>
    <path d="M100 0c4 8 5 14 1 22 8-4 10-12 8-22-2 2-5 2-9 0Z" fill="#ffe566"/>
    <!-- determined narrowed eyes -->
    <path d="M82 64 L94 62" stroke="#1a1510" stroke-width="2.2" stroke-linecap="round"/>
    <path d="M118 64 L106 62" stroke="#1a1510" stroke-width="2.2" stroke-linecap="round"/>
    <ellipse cx="88" cy="70" rx="3.5" ry="4.5" fill="#1a1510"/>
    <ellipse cx="112" cy="70" rx="3.5" ry="4.5" fill="#1a1510"/>
    <circle cx="89" cy="68.5" r="1.1" fill="#3de7ff" opacity="0.95"/>
    <circle cx="113" cy="68.5" r="1.1" fill="#3de7ff" opacity="0.95"/>
    <ellipse cx="100" cy="80" rx="3.5" ry="2.5" fill="#c44820"/>
    <path d="M90 88c4 2 12 2 16 0" stroke="#1a1510" stroke-width="2" fill="none" stroke-linecap="round"/>
    <!-- cyan rift crystal brow — bright focus -->
    <path d="M100 30 L112 50 L100 60 L88 50 Z" fill="#3de7ff"/>
    <path d="M100 34 L108 48 L100 56 L92 48 Z" fill="#a8f4ff" opacity="0.9"/>
    <circle cx="100" cy="44" r="3" fill="#fff" opacity="0.55"/>
    <!-- sweeping flame tail -->
    <path d="M138 118c28-8 42 14 30 38-16-10-24-4-30 12 6-18 2-32 0-50Z" fill="#ff5a20"/>
    <path d="M146 126c16-2 24 10 18 22-10-6-14-2-18 6 4-10 2-18 0-28Z" fill="#ffe566"/>
    <circle cx="40" cy="42" r="2.5" fill="#3de7ff" opacity="0.95"/>
    <circle cx="168" cy="58" r="2" fill="#ffb84d" opacity="0.9"/>
    <circle cx="52" cy="96" r="1.5" fill="#a8f4ff" opacity="0.7"/>
  </g>
  <g transform="translate(120,680) scale(0.95)">
    <ellipse cx="40" cy="128" rx="28" ry="7" fill="#2a2118" opacity="0.4"/>
    <!-- layered cloak -->
    <path d="M14 118 L22 52 L32 40 L40 36 L48 40 L58 52 L66 118 L52 126 L40 120 L28 126 Z" fill="#2a3848"/>
    <path d="M20 118 L26 70 L40 95 L54 70 L60 118 L50 122 L40 116 L30 122 Z" fill="#2a2118" opacity="0.28"/>
    <!-- hood + face -->
    <path d="M24 46 Q40 22 56 46 L50 58 Q40 50 30 58 Z" fill="#1a1510"/>
    <ellipse cx="40" cy="50" rx="9" ry="10" fill="#e8d5b0"/>
    <ellipse cx="37" cy="48" rx="1.5" ry="2" fill="#1a1510"/>
    <ellipse cx="43" cy="48" rx="1.5" ry="2" fill="#1a1510"/>
    <!-- bronze staff + cyan crystal -->
    <rect x="60" y="28" width="5" height="90" rx="1.5" fill="#8b6914"/>
    <path d="M54 30 L72 30 L63 14 Z" fill="#3de7ff" opacity="0.95"/>
    <circle cx="63" cy="24" r="7" fill="#66e0ff" opacity="0.45" filter="url(#soft)"/>
    <!-- amber belt + pouch -->
    <rect x="28" y="82" width="24" height="6" rx="1" fill="#c4a882"/>
    <ellipse cx="48" cy="92" rx="5" ry="6" fill="#8b5a3c"/>
  </g>
  <g transform="translate(680,700) scale(0.8)">
    <ellipse cx="40" cy="128" rx="28" ry="7" fill="#2a2118" opacity="0.4"/>
    <!-- layered cloak -->
    <path d="M14 118 L22 52 L32 40 L40 36 L48 40 L58 52 L66 118 L52 126 L40 120 L28 126 Z" fill="#4a3a28"/>
    <path d="M20 118 L26 70 L40 95 L54 70 L60 118 L50 122 L40 116 L30 122 Z" fill="#2a2118" opacity="0.28"/>
    <!-- hood + face -->
    <path d="M24 46 Q40 22 56 46 L50 58 Q40 50 30 58 Z" fill="#1a1510"/>
    <ellipse cx="40" cy="50" rx="9" ry="10" fill="#e8d5b0"/>
    <ellipse cx="37" cy="48" rx="1.5" ry="2" fill="#1a1510"/>
    <ellipse cx="43" cy="48" rx="1.5" ry="2" fill="#1a1510"/>
    <!-- bronze staff + cyan crystal -->
    <rect x="60" y="28" width="5" height="90" rx="1.5" fill="#8b6914"/>
    <path d="M54 30 L72 30 L63 14 Z" fill="#3de7ff" opacity="0.95"/>
    <circle cx="63" cy="24" r="7" fill="#66e0ff" opacity="0.45" filter="url(#soft)"/>
    <!-- amber belt + pouch -->
    <rect x="28" y="82" width="24" height="6" rx="1" fill="#c4a882"/>
    <ellipse cx="48" cy="92" rx="5" ry="6" fill="#8b5a3c"/>
  </g>
  <circle cx="180" cy="180" r="2.5" fill="#fff" opacity="0.85"/>
  <circle cx="620" cy="160" r="2" fill="#3de7ff" opacity="0.95"/>
  <circle cx="740" cy="240" r="2.5" fill="#ffb84d" opacity="0.85"/>
  <circle cx="120" cy="260" r="2" fill="#7dffc0" opacity="0.8"/>
  <circle cx="400" cy="200" r="1.5" fill="#a8f4ff" opacity="0.7"/>
  <rect x="70" y="890" width="710" height="130" rx="12" fill="#12100c" opacity="0.84" stroke="#c4a882" stroke-width="2.5"/>
  <rect x="85" y="902" width="680" height="106" rx="8" fill="none" stroke="#3de7ff" stroke-width="1" opacity="0.3"/>
  <text x="425" y="72" text-anchor="middle" font-family="Georgia, serif" font-size="18" fill="#3de7ff" letter-spacing="7">RIFTWILDS</text>
  <text x="425" y="945" text-anchor="middle" font-family="Georgia, serif" font-size="38" fill="#f3efe6" font-weight="700">Hatchery Aurora</text>
  <text x="425" y="985" text-anchor="middle" font-family="Georgia, serif" font-size="17" fill="#e8d5b0">Nest eggs under riftlight — care before the storm</text>
  <text x="425" y="1050" text-anchor="middle" font-family="Georgia, serif" font-size="13" fill="#c4a882">300 DPI print · US Letter · Personal use · Not for resale</text>
</svg>