<?xml version="1.0" encoding="UTF-8"?>
<svg xmlns="http://www.w3.org/2000/svg" width="2550" height="3300" viewBox="0 0 850 1100">
  <defs>
    
  <linearGradient id="parchment" x1="0" y1="0" x2="0" y2="1">
    <stop stop-color="#f4e8d0"/><stop offset="0.55" stop-color="#e8d5b0"/><stop offset="1" stop-color="#d4bc8e"/>
  </linearGradient>
  <linearGradient id="ink" x1="0" y1="0" x2="0" y2="1">
    <stop stop-color="#1a1510"/><stop offset="0.5" stop-color="#141820"/><stop offset="1" stop-color="#0e1218"/>
  </linearGradient>
  <linearGradient id="bronze" x1="0" y1="0" x2="1" y2="1">
    <stop stop-color="#e8c878"/><stop offset="0.4" stop-color="#c4a882"/><stop offset="1" stop-color="#8b6914"/>
  </linearGradient>
  <linearGradient id="rift" x1="0" y1="0" x2="0" y2="1">
    <stop stop-color="#66e0ff"/><stop offset="0.5" stop-color="#3de7ff"/><stop offset="1" stop-color="#1a8fb8"/>
  </linearGradient>
  <radialGradient id="amberGlow" cx="50%" cy="40%" r="50%">
    <stop stop-color="#ffe566" stop-opacity="0.55"/><stop offset="0.55" stop-color="#ffb84d" stop-opacity="0.2"/><stop offset="1" stop-color="#ffb84d" stop-opacity="0"/>
  </radialGradient>
  <radialGradient id="cyanGlow" cx="50%" cy="35%" r="55%">
    <stop stop-color="#3de7ff" stop-opacity="0.45"/><stop offset="0.6" stop-color="#3de7ff" stop-opacity="0.12"/><stop offset="1" stop-color="#3de7ff" stop-opacity="0"/>
  </radialGradient>
  <filter id="soft" x="-30%" y="-30%" width="160%" height="160%">
    <feGaussianBlur stdDeviation="6"/>
  </filter>
    <linearGradient id="sky" x1="0" y1="0" x2="0" y2="1">
      <stop stop-color="#0c1524"/><stop offset="0.45" stop-color="#243848"/><stop offset="1" stop-color="#4a3828"/>
    </linearGradient>
  </defs>
  <rect width="850" height="1100" fill="url(#sky)"/>
  <rect width="850" height="1100" fill="url(#cyanGlow)" opacity="0.6"/>
  <ellipse cx="180" cy="160" rx="160" ry="55" fill="#0a1220" opacity="0.65"/>
  <ellipse cx="680" cy="120" rx="180" ry="60" fill="#0e1828" opacity="0.7"/>
  
  <ellipse cx="620" cy="320" rx="70.4" ry="187.00000000000003" fill="#3de7ff" opacity="0.12" filter="url(#soft)"/>
  <path d="M620 150 Q588 320 620 490 Q652 320 620 150 Z" fill="url(#rift)" opacity="0.85"/>
  <path d="M620 170 Q605.6 320 620 470 Q634.4 320 620 170 Z" fill="#a8f4ff" opacity="0.55"/>
  <circle cx="580" cy="280" r="4" fill="#3de7ff" opacity="0.8"/>
  <circle cx="670" cy="340" r="3" fill="#ffe566" opacity="0.7"/>
  <circle cx="600" cy="380" r="2.5" fill="#fff" opacity="0.6"/>
  <!-- hills / plaza -->
  <path d="M0 620 Q200 540 380 580 Q560 500 720 560 Q800 530 850 580 L850 1100 L0 1100 Z" fill="#3d6a42"/>
  <path d="M0 720 Q240 660 450 720 Q650 780 850 700 L850 1100 L0 1100 Z" fill="#2f5a3a"/>
  <!-- sandstone plaza floor -->
  <ellipse cx="400" cy="700" rx="220" ry="50" fill="#c4a882" opacity="0.55"/>
  
  <ellipse cx="400" cy="660" rx="90" ry="22" fill="#5a8a9a" opacity="0.55"/>
  <path d="M330 660 L345 580 L455 580 L470 660 Z" fill="#c4a882"/>
  <path d="M360 580 L370 520 L430 520 L440 580 Z" fill="#d4c4a8"/>
  <ellipse cx="400" cy="520" rx="38" ry="10" fill="#e8d5b0"/>
  <circle cx="400" cy="490" r="14" fill="#3de7ff" opacity="0.9"/>
  <path d="M400 475 Q388 455 400 440 Q412 455 400 475" fill="#66e0ff" opacity="0.7"/>
  <!-- cracks -->
  <path d="M380 600 L392 630 L372 650" stroke="#2a2118" stroke-width="3" fill="none" opacity="0.45"/>
  <path d="M425 570 L435 610" stroke="#2a2118" stroke-width="2.5" fill="none" opacity="0.4"/>
  <path d="M345 630 L320 670" stroke="#3de7ff" stroke-width="2" fill="none" opacity="0.5"/>
  <g transform="translate(80,580)">
    <rect x="0" y="20" width="70" height="50" rx="3" fill="#8b5a3c"/>
    <path d="M-8 20 L35 -10 L78 20 Z" fill="#5c3d2e"/>
    <path d="M50 -2 L72 24" stroke="#2a2118" stroke-width="3"/><path d="M60 20 L85 55" fill="#5c3d2e" opacity="0.8"/>
    <rect x="8" y="30" width="22" height="18" fill="#1a2744" opacity="0.5"/>
  </g>
  <g transform="translate(680,560)">
    <rect x="0" y="20" width="70" height="50" rx="3" fill="#8b5a3c"/>
    <path d="M-8 20 L35 -10 L78 20 Z" fill="#5c3d2e"/>
    <path d="M50 -2 L72 24" stroke="#2a2118" stroke-width="3"/><path d="M60 20 L85 55" fill="#5c3d2e" opacity="0.8"/>
    <rect x="8" y="30" width="22" height="18" fill="#1a2744" opacity="0.5"/>
  </g>
  <g transform="translate(100,640) scale(0.95)">
    <ellipse cx="40" cy="122" rx="26" ry="7" fill="#2a2118" opacity="0.35"/>
    <!-- cloak -->
    <path d="M18 112 L24 58 L32 48 L40 44 L48 48 L56 58 L62 112 L50 118 L40 114 L30 118 Z" fill="#3a5068"/>
    <path d="M28 70 L40 90 L52 70" fill="#2a2118" opacity="0.25"/>
    <!-- hood -->
    <path d="M26 48 Q40 28 54 48 L48 58 Q40 52 32 58 Z" fill="#2a2118"/>
    <ellipse cx="40" cy="52" rx="10" ry="11" fill="#e8d5b0"/>
    <!-- staff -->
    <rect x="58" y="40" width="4" height="72" rx="1" fill="#8b6914"/>
    <path d="M54 38 L66 38 L60 28 Z" fill="#3de7ff" opacity="0.9"/>
    <circle cx="60" cy="34" r="5" fill="#66e0ff" opacity="0.55"/>
    <!-- belt amber -->
    <rect x="30" y="78" width="20" height="5" rx="1" fill="#c4a882"/>
  </g>
  <g transform="translate(620,650) scale(0.9)">
    <ellipse cx="40" cy="122" rx="26" ry="7" fill="#2a2118" opacity="0.35"/>
    <!-- cloak -->
    <path d="M18 112 L24 58 L32 48 L40 44 L48 48 L56 58 L62 112 L50 118 L40 114 L30 118 Z" fill="#4a3a28"/>
    <path d="M28 70 L40 90 L52 70" fill="#2a2118" opacity="0.25"/>
    <!-- hood -->
    <path d="M26 48 Q40 28 54 48 L48 58 Q40 52 32 58 Z" fill="#2a2118"/>
    <ellipse cx="40" cy="52" rx="10" ry="11" fill="#e8d5b0"/>
    <!-- staff -->
    <rect x="58" y="40" width="4" height="72" rx="1" fill="#8b6914"/>
    <path d="M54 38 L66 38 L60 28 Z" fill="#3de7ff" opacity="0.9"/>
    <circle cx="60" cy="34" r="5" fill="#66e0ff" opacity="0.55"/>
    <!-- belt amber -->
    <rect x="30" y="78" width="20" height="5" rx="1" fill="#c4a882"/>
  </g>
  <g transform="translate(200,720) scale(0.58)">
    <ellipse cx="100" cy="182" rx="48" ry="9" fill="#2a2118" opacity="0.3"/>
    <!-- leaner body -->
    <ellipse cx="100" cy="132" rx="40" ry="38" fill="#e8a838"/>
    <ellipse cx="100" cy="124" rx="30" ry="28" fill="#ffc84a"/>
    <ellipse cx="90" cy="112" rx="10" ry="8" fill="#fff0a8" opacity="0.45"/>
    <!-- hind legs -->
    <path d="M70 150 Q62 168 68 178 Q78 176 80 160 Z" fill="#d4922a"/>
    <path d="M130 150 Q138 168 132 178 Q122 176 120 160 Z" fill="#d4922a"/>
    <ellipse cx="68" cy="178" rx="10" ry="5" fill="#b87820"/>
    <ellipse cx="132" cy="178" rx="10" ry="5" fill="#b87820"/>
    <!-- forelegs -->
    <path d="M62 128 Q48 145 52 160 Q64 158 70 140 Z" fill="#ffb84d"/>
    <path d="M138 128 Q152 145 148 160 Q136 158 130 140 Z" fill="#ffb84d"/>
    <!-- head (smaller vs body) -->
    <ellipse cx="100" cy="72" rx="34" ry="32" fill="#ffe566"/>
    <ellipse cx="100" cy="68" rx="24" ry="20" fill="#fff2a0"/>
    <!-- pointed ears -->
    <path d="M72 58 L60 18 L84 50 Z" fill="#ff9a2a"/>
    <path d="M72 52 L64 28 L80 48 Z" fill="#ffc84a"/>
    <path d="M128 58 L140 18 L116 50 Z" fill="#ff9a2a"/>
    <path d="M128 52 L136 28 L120 48 Z" fill="#ffc84a"/>
    <!-- flame mane crest -->
    <path d="M82 42c-10-20 0-34 16-38 0 12 6 20 12 26-10-2-18 2-28 12Z" fill="#ff5a20"/>
    <path d="M118 42c10-20 0-34-16-38 0 12-6 20-12 26 10-2 18 2 28 12Z" fill="#ff5a20"/>
    <path d="M100 12c5 8 7 16 3 26 9-5 12-14 9-26-3 3-7 3-12 0Z" fill="#ffb84d"/>
    <!-- determined face — smaller eyes -->
    <ellipse cx="88" cy="70" rx="4.5" ry="5.5" fill="#1a1510"/>
    <ellipse cx="112" cy="70" rx="4.5" ry="5.5" fill="#1a1510"/>
    <circle cx="89.5" cy="68.5" r="1.4" fill="#fff" opacity="0.85"/>
    <circle cx="113.5" cy="68.5" r="1.4" fill="#fff" opacity="0.85"/>
    <ellipse cx="100" cy="80" rx="4" ry="3" fill="#e85a28"/>
    <path d="M92 90c5 5 11 5 16 0" stroke="#1a1510" stroke-width="2.2" fill="none" stroke-linecap="round"/>
    <!-- cyan rift crystal brow -->
    <path d="M100 36 L110 54 L100 62 L90 54 Z" fill="#3de7ff"/>
    <path d="M100 40 L106 52 L100 58 L94 52 Z" fill="#a8f4ff" opacity="0.8"/>
    <!-- flame tail -->
    <path d="M142 120c22-2 32 12 24 32-12-8-18-4-24 8 4-14 2-26 0-40Z" fill="#ff7a3d"/>
    <path d="M148 128c12 0 18 8 14 18-7-4-11-2-14 4 2-8 0-14 0-22Z" fill="#ffe566"/>
    <circle cx="46" cy="48" r="2.5" fill="#3de7ff" opacity="0.9"/>
    <circle cx="162" cy="64" r="2" fill="#ffb84d" opacity="0.85"/>
  </g>
  <g transform="translate(500,730) scale(0.52)">
    <ellipse cx="100" cy="178" rx="48" ry="10" fill="#2a2118" opacity="0.26"/>
    <ellipse cx="100" cy="134" rx="46" ry="38" fill="#3d8a48"/>
    <ellipse cx="100" cy="126" rx="34" ry="28" fill="#5aad62"/>
    <ellipse cx="88" cy="114" rx="12" ry="9" fill="#8fd49a" opacity="0.55"/>
    <ellipse cx="70" cy="164" rx="12" ry="14" fill="#2f6a38"/>
    <ellipse cx="130" cy="164" rx="12" ry="14" fill="#2f6a38"/>
    <ellipse cx="68" cy="176" rx="10" ry="6" fill="#245030"/>
    <ellipse cx="132" cy="176" rx="10" ry="6" fill="#245030"/>
    <path d="M48 120 Q30 100 42 78 Q58 90 56 112 Z" fill="#4a9a58"/>
    <path d="M152 120 Q170 100 158 78 Q142 90 144 112 Z" fill="#4a9a58"/>
    <ellipse cx="100" cy="86" rx="38" ry="34" fill="#5aad62"/>
    <ellipse cx="100" cy="80" rx="26" ry="22" fill="#8fd49a"/>
    <ellipse cx="86" cy="82" rx="5.5" ry="6.5" fill="#2a2118"/>
    <ellipse cx="114" cy="82" rx="5.5" ry="6.5" fill="#2a2118"/>
    <circle cx="87.5" cy="80" r="1.8" fill="#fff" opacity="0.85"/>
    <circle cx="115.5" cy="80" r="1.8" fill="#fff" opacity="0.85"/>
    <path d="M90 98c6 7 14 7 20 0" stroke="#2a2118" stroke-width="2.5" fill="none" stroke-linecap="round"/>
    <!-- leaf crest -->
    <path d="M100 28c16 22 8 40-4 56 24-6 38-24 32-52-8 6-16 6-28-4Z" fill="#3dffb0"/>
    <path d="M100 36c10 14 6 28-2 40 16-4 26-16 22-36-6 4-12 4-20-4Z" fill="#7dffc0" opacity="0.75"/>
    <path d="M72 48c-10 18 0 32 12 40-16 4-30-6-30-26 6 2 10 0 18-14Z" fill="#4a9a58"/>
    <path d="M128 48c10 18 0 32-12 40 16 4 30-6 30-26-6 2-10 0-18-14Z" fill="#4a9a58"/>
    <path d="M100 54 L106 68 L100 74 L94 68 Z" fill="#3de7ff" opacity="0.85"/>
    <ellipse cx="42" cy="150" rx="8" ry="10" fill="#3d8a48"/>
    <ellipse cx="158" cy="150" rx="8" ry="10" fill="#3d8a48"/>
  </g>
  <rect x="80" y="900" width="690" height="120" rx="10" fill="#1a1510" opacity="0.75" stroke="#c4a882" stroke-width="2"/>
  <text x="425" y="80" text-anchor="middle" font-family="Georgia, serif" font-size="18" fill="#ffb84d" letter-spacing="7">RIFTWILDS</text>
  <text x="425" y="950" text-anchor="middle" font-family="Georgia, serif" font-size="40" fill="#f3efe6" font-weight="700">Commons Under Threat</text>
  <text x="425" y="990" text-anchor="middle" font-family="Georgia, serif" font-size="18" fill="#e8d5b0">Keepers hold the plaza as the rift cracks stone</text>
  <text x="425" y="1055" text-anchor="middle" font-family="Georgia, serif" font-size="13" fill="#c4a882">300 DPI print · US Letter · Personal use · Not for resale</text>
</svg>