<?xml version="1.0" encoding="UTF-8"?>
<svg xmlns="http://www.w3.org/2000/svg" width="2550" height="3300" viewBox="0 0 850 1100">
  <defs>
  <linearGradient id="parchment" x1="0" y1="0" x2="0" y2="1">
    <stop stop-color="#f4e8d0"/><stop offset="0.55" stop-color="#e8d5b0"/><stop offset="1" stop-color="#d4bc8e"/>
  </linearGradient>
  <linearGradient id="ink" x1="0" y1="0" x2="0" y2="1">
    <stop stop-color="#1a1510"/><stop offset="0.5" stop-color="#141820"/><stop offset="1" stop-color="#0e1218"/>
  </linearGradient>
  <linearGradient id="bronze" x1="0" y1="0" x2="1" y2="1">
    <stop stop-color="#e8c878"/><stop offset="0.4" stop-color="#c4a882"/><stop offset="1" stop-color="#8b6914"/>
  </linearGradient>
  <linearGradient id="rift" x1="0" y1="0" x2="0" y2="1">
    <stop stop-color="#a8f4ff"/><stop offset="0.35" stop-color="#3de7ff"/><stop offset="0.7" stop-color="#1a8fb8"/><stop offset="1" stop-color="#0a4a68"/>
  </linearGradient>
  <linearGradient id="warmSky" x1="0" y1="0" x2="0" y2="1">
    <stop stop-color="#0a1018"/><stop offset="0.35" stop-color="#1a2438"/><stop offset="0.65" stop-color="#3a3028"/><stop offset="1" stop-color="#5a4030"/>
  </linearGradient>
  <linearGradient id="earth" x1="0" y1="0" x2="0" y2="1">
    <stop stop-color="#3d6a42"/><stop offset="0.45" stop-color="#2f5a3a"/><stop offset="1" stop-color="#1a3020"/>
  </linearGradient>
  <radialGradient id="amberGlow" cx="50%" cy="40%" r="50%">
    <stop stop-color="#ffe566" stop-opacity="0.55"/><stop offset="0.55" stop-color="#ffb84d" stop-opacity="0.2"/><stop offset="1" stop-color="#ffb84d" stop-opacity="0"/>
  </radialGradient>
  <radialGradient id="cyanGlow" cx="50%" cy="35%" r="55%">
    <stop stop-color="#3de7ff" stop-opacity="0.45"/><stop offset="0.6" stop-color="#3de7ff" stop-opacity="0.12"/><stop offset="1" stop-color="#3de7ff" stop-opacity="0"/>
  </radialGradient>
  <radialGradient id="emberBloom" cx="70%" cy="30%" r="45%">
    <stop stop-color="#ff7a3d" stop-opacity="0.35"/><stop offset="0.5" stop-color="#ffb84d" stop-opacity="0.12"/><stop offset="1" stop-color="#ffb84d" stop-opacity="0"/>
  </radialGradient>
  <filter id="soft" x="-30%" y="-30%" width="160%" height="160%">
    <feGaussianBlur stdDeviation="6"/>
  </filter>
  <filter id="glow" x="-40%" y="-40%" width="180%" height="180%">
    <feGaussianBlur stdDeviation="4" result="b"/><feMerge><feMergeNode in="b"/><feMergeNode in="SourceGraphic"/></feMerge>
  </filter></defs>
  <rect width="850" height="1100" fill="url(#parchment)"/>
  <rect x="24" y="24" width="802" height="1052" fill="none" stroke="#8b6914" stroke-width="3" rx="12"/>
  
  <text x="425" y="72" text-anchor="middle" font-family="Georgia, 'Times New Roman', serif" font-size="20" fill="#8b6914" letter-spacing="6">RIFTWILDS</text>
  <text x="425" y="122" text-anchor="middle" font-family="Georgia, 'Times New Roman', serif" font-size="44" fill="#1a1510" font-weight="700">Crest and Badge Stickers</text>
  <text x="425" y="158" text-anchor="middle" font-family="Georgia, 'Times New Roman', serif" font-size="20" fill="#5a5044">Keeper seals · Hatchery marks · Commons pride</text>
  <rect x="80" y="190" width="210" height="230" rx="26" fill="none" stroke="#8b6914" stroke-width="2" stroke-dasharray="8 6" opacity="0.65"/><g transform="translate(115,212)"><g transform="scale(1.35)">
    <rect x="8" y="8" width="124" height="124" rx="18" fill="#1a1510" stroke="#c4a882" stroke-width="5"/>
    <circle cx="70" cy="56" r="26" fill="none" stroke="#3de7ff" stroke-width="4"/>
    <circle cx="70" cy="56" r="8" fill="#ffb84d"/>
    <path d="M38 96h64" stroke="#c4a882" stroke-width="5" stroke-linecap="round"/>
    <path d="M48 28l22 12 22-12" stroke="#e8d5b0" stroke-width="3.5" fill="none" stroke-linecap="round"/>
    <path d="M70 82 L78 96 L70 104 L62 96 Z" fill="#3de7ff" opacity="0.8"/>
  </g></g><text x="185" y="408" text-anchor="middle" font-family="Georgia, serif" font-size="15" fill="#1a1510">Commons Crest</text><rect x="320" y="190" width="210" height="230" rx="26" fill="none" stroke="#8b6914" stroke-width="2" stroke-dasharray="8 6" opacity="0.65"/><g transform="translate(355,212)"><g transform="scale(1.35)">
    <ellipse cx="70" cy="120" rx="50" ry="12" fill="#3d8a48" opacity="0.45"/>
    <ellipse cx="70" cy="64" rx="42" ry="56" fill="#e8d5b0"/>
    <ellipse cx="70" cy="64" rx="34" ry="46" fill="#f3efe6"/>
    <path d="M48 50c16-8 32 2 40 16" stroke="#3de7ff" stroke-width="4" fill="none" stroke-linecap="round"/>
    <path d="M70 40 L78 56 L70 64 L62 56 Z" fill="#ffb84d"/>
    <circle cx="70" cy="78" r="6" fill="#3de7ff" opacity="0.7"/>
  </g></g><text x="425" y="408" text-anchor="middle" font-family="Georgia, serif" font-size="15" fill="#1a1510">Hatch Egg</text><rect x="560" y="190" width="210" height="230" rx="26" fill="none" stroke="#8b6914" stroke-width="2" stroke-dasharray="8 6" opacity="0.65"/><g transform="translate(595,212)"><g transform="scale(1.25)">
    <path d="M70 118s-48-30-62-60C-2 36 12 16 32 16c14 0 26 10 38 24C82 26 94 16 108 16c20 0 34 20 24 42-14 30-62 60-62 60Z" fill="#c44840"/>
    <path d="M70 108s-38-24-50-48c-8-16 4-32 20-32 12 0 22 8 30 20 8-12 18-20 30-20 16 0 28 16 20 32-12 24-50 48-50 48Z" fill="#e87870"/>
    <path d="M70 70 L76 82 L70 88 L64 82 Z" fill="#3de7ff" opacity="0.7"/>
  </g></g><text x="665" y="408" text-anchor="middle" font-family="Georgia, serif" font-size="15" fill="#1a1510">Care Heart</text><rect x="80" y="470" width="210" height="230" rx="26" fill="none" stroke="#8b6914" stroke-width="2" stroke-dasharray="8 6" opacity="0.65"/><g transform="translate(115,492)"><g transform="scale(1.15)">
    <path d="M70 10l16 12 20-4 8 20 18 10-8 20 8 20-18 10-8 20-20-4-16 12-16-12-20 4-8-20-18-10 8-20-8-20 18-10 8-20 20 4 16-12Z" fill="#c4a882"/>
    <circle cx="70" cy="70" r="32" fill="#1a1510"/>
    <ellipse cx="70" cy="62" rx="13" ry="16" fill="#e8d5b0"/>
    <path d="M48 92c10-12 34-12 44 0" fill="#3de7ff" opacity="0.8"/>
    <path d="M70 36l4 10 10 2-8 7 2 10-8-5-8 5 2-10-8-7 10-2 4-10Z" fill="#ffb84d"/>
  </g></g><text x="185" y="688" text-anchor="middle" font-family="Georgia, serif" font-size="15" fill="#1a1510">Keeper Badge</text><rect x="320" y="470" width="210" height="230" rx="26" fill="none" stroke="#8b6914" stroke-width="2" stroke-dasharray="8 6" opacity="0.65"/><g transform="translate(355,492)"><g><g transform="translate(0,0) scale(0.85)">
    <ellipse cx="100" cy="186" rx="42" ry="8" fill="#2a2118" opacity="0.35"/>
    <!-- athletic torso — longer, less balloon -->
    <ellipse cx="100" cy="138" rx="34" ry="36" fill="#d4922a"/>
    <ellipse cx="100" cy="128" rx="26" ry="28" fill="#e8a838"/>
    <ellipse cx="92" cy="116" rx="8" ry="7" fill="#fff0a8" opacity="0.4"/>
    <!-- braced hind legs -->
    <path d="M72 152 Q58 172 64 184 Q78 180 82 162 Z" fill="#b87820"/>
    <path d="M128 152 Q142 172 136 184 Q122 180 118 162 Z" fill="#b87820"/>
    <ellipse cx="64" cy="184" rx="11" ry="5" fill="#8b5a18"/>
    <ellipse cx="136" cy="184" rx="11" ry="5" fill="#8b5a18"/>
    <!-- forward-planted forelegs -->
    <path d="M58 130 Q40 148 46 168 Q62 164 70 142 Z" fill="#ffb84d"/>
    <path d="M142 130 Q160 148 154 168 Q138 164 130 142 Z" fill="#ffb84d"/>
    <ellipse cx="46" cy="168" rx="9" ry="4" fill="#d4922a"/>
    <ellipse cx="154" cy="168" rx="9" ry="4" fill="#d4922a"/>
    <!-- compact head (game-true proportions) -->
    <ellipse cx="100" cy="68" rx="28" ry="26" fill="#ffe566"/>
    <ellipse cx="100" cy="64" rx="20" ry="16" fill="#fff2a0"/>
    <!-- tall pointed ears -->
    <path d="M76 54 L62 8 L88 46 Z" fill="#ff7a3d"/>
    <path d="M76 48 L66 20 L84 44 Z" fill="#ffc84a"/>
    <path d="M124 54 L138 8 L112 46 Z" fill="#ff7a3d"/>
    <path d="M124 48 L134 20 L116 44 Z" fill="#ffc84a"/>
    <!-- fierce flame mane -->
    <path d="M80 38c-14-24-2-42 18-48 2 14 8 24 14 32-12-4-22 2-32 16Z" fill="#ff3a10"/>
    <path d="M120 38c14-24 2-42-18-48-2 14-8 24-14 32 12-4 22 2 32 16Z" fill="#ff3a10"/>
    <path d="M100 4c6 10 8 20 2 32 12-6 16-18 12-34-4 4-8 4-14 2Z" fill="#ffb84d"/>
    <path d="M100 0c4 8 5 14 1 22 8-4 10-12 8-22-2 2-5 2-9 0Z" fill="#ffe566"/>
    <!-- determined narrowed eyes -->
    <path d="M82 64 L94 62" stroke="#1a1510" stroke-width="2.2" stroke-linecap="round"/>
    <path d="M118 64 L106 62" stroke="#1a1510" stroke-width="2.2" stroke-linecap="round"/>
    <ellipse cx="88" cy="70" rx="3.5" ry="4.5" fill="#1a1510"/>
    <ellipse cx="112" cy="70" rx="3.5" ry="4.5" fill="#1a1510"/>
    <circle cx="89" cy="68.5" r="1.1" fill="#3de7ff" opacity="0.95"/>
    <circle cx="113" cy="68.5" r="1.1" fill="#3de7ff" opacity="0.95"/>
    <ellipse cx="100" cy="80" rx="3.5" ry="2.5" fill="#c44820"/>
    <path d="M90 88c4 2 12 2 16 0" stroke="#1a1510" stroke-width="2" fill="none" stroke-linecap="round"/>
    <!-- cyan rift crystal brow — bright focus -->
    <path d="M100 30 L112 50 L100 60 L88 50 Z" fill="#3de7ff"/>
    <path d="M100 34 L108 48 L100 56 L92 48 Z" fill="#a8f4ff" opacity="0.9"/>
    <circle cx="100" cy="44" r="3" fill="#fff" opacity="0.55"/>
    <!-- sweeping flame tail -->
    <path d="M138 118c28-8 42 14 30 38-16-10-24-4-30 12 6-18 2-32 0-50Z" fill="#ff5a20"/>
    <path d="M146 126c16-2 24 10 18 22-10-6-14-2-18 6 4-10 2-18 0-28Z" fill="#ffe566"/>
    <circle cx="40" cy="42" r="2.5" fill="#3de7ff" opacity="0.95"/>
    <circle cx="168" cy="58" r="2" fill="#ffb84d" opacity="0.9"/>
    <circle cx="52" cy="96" r="1.5" fill="#a8f4ff" opacity="0.7"/>
  </g></g></g><text x="425" y="688" text-anchor="middle" font-family="Georgia, serif" font-size="15" fill="#1a1510">Spark Seal</text><rect x="560" y="470" width="210" height="230" rx="26" fill="none" stroke="#8b6914" stroke-width="2" stroke-dasharray="8 6" opacity="0.65"/><g transform="translate(595,492)"><g><g transform="translate(0,0) scale(0.85)">
    <ellipse cx="100" cy="180" rx="46" ry="9" fill="#2a2118" opacity="0.22"/>
    <circle cx="100" cy="110" r="58" fill="#2a6eb8" opacity="0.55"/>
    <circle cx="100" cy="110" r="52" fill="#3d9bff" opacity="0.75"/>
    <circle cx="100" cy="110" r="42" fill="#7ec8ff" opacity="0.85"/>
    <ellipse cx="82" cy="92" rx="16" ry="12" fill="#fff" opacity="0.4"/>
    <ellipse cx="88" cy="118" rx="6" ry="7" fill="#1a3048"/>
    <ellipse cx="116" cy="118" rx="6" ry="7" fill="#1a3048"/>
    <circle cx="90" cy="116" r="1.8" fill="#fff" opacity="0.9"/>
    <circle cx="118" cy="116" r="1.8" fill="#fff" opacity="0.9"/>
    <path d="M90 136c6 9 14 9 20 0" stroke="#1a3048" stroke-width="2.8" fill="none" stroke-linecap="round"/>
    <circle cx="52" cy="78" r="14" fill="#a8e7ff" opacity="0.7"/>
    <circle cx="154" cy="88" r="12" fill="#a8e7ff" opacity="0.6"/>
    <circle cx="148" cy="150" r="10" fill="#3de7ff" opacity="0.5"/>
    <circle cx="56" cy="148" r="9" fill="#3de7ff" opacity="0.45"/>
    <circle cx="100" cy="58" r="6" fill="#e8d5b0" opacity="0.9"/>
    <circle cx="100" cy="58" r="3.5" fill="#3de7ff"/>
    <path d="M70 160 Q100 178 130 160" fill="none" stroke="#7ec8ff" stroke-width="3" opacity="0.5"/>
  </g></g></g><text x="665" y="688" text-anchor="middle" font-family="Georgia, serif" font-size="15" fill="#1a1510">Tide Mark</text>
  <text x="425" y="1055" text-anchor="middle" font-family="Georgia, 'Times New Roman', serif" font-size="20" fill="#5a5044">Riftwilds · 300 DPI print · Personal use only · Not for resale</text>
  <text x="425" y="1081" text-anchor="middle" font-family="Georgia, 'Times New Roman', serif" font-size="16" fill="#7a7064">US Letter · Stickers</text>
</svg>