<?xml version="1.0" encoding="UTF-8"?>
<svg xmlns="http://www.w3.org/2000/svg" width="2550" height="3300" viewBox="0 0 850 1100">
  <defs>
  <linearGradient id="parchment" x1="0" y1="0" x2="0" y2="1">
    <stop stop-color="#f4e8d0"/><stop offset="0.55" stop-color="#e8d5b0"/><stop offset="1" stop-color="#d4bc8e"/>
  </linearGradient>
  <linearGradient id="ink" x1="0" y1="0" x2="0" y2="1">
    <stop stop-color="#1a1510"/><stop offset="0.5" stop-color="#141820"/><stop offset="1" stop-color="#0e1218"/>
  </linearGradient>
  <linearGradient id="bronze" x1="0" y1="0" x2="1" y2="1">
    <stop stop-color="#e8c878"/><stop offset="0.4" stop-color="#c4a882"/><stop offset="1" stop-color="#8b6914"/>
  </linearGradient>
  <linearGradient id="rift" x1="0" y1="0" x2="0" y2="1">
    <stop stop-color="#66e0ff"/><stop offset="0.5" stop-color="#3de7ff"/><stop offset="1" stop-color="#1a8fb8"/>
  </linearGradient>
  <radialGradient id="amberGlow" cx="50%" cy="40%" r="50%">
    <stop stop-color="#ffe566" stop-opacity="0.55"/><stop offset="0.55" stop-color="#ffb84d" stop-opacity="0.2"/><stop offset="1" stop-color="#ffb84d" stop-opacity="0"/>
  </radialGradient>
  <radialGradient id="cyanGlow" cx="50%" cy="35%" r="55%">
    <stop stop-color="#3de7ff" stop-opacity="0.45"/><stop offset="0.6" stop-color="#3de7ff" stop-opacity="0.12"/><stop offset="1" stop-color="#3de7ff" stop-opacity="0"/>
  </radialGradient>
  <filter id="soft" x="-30%" y="-30%" width="160%" height="160%">
    <feGaussianBlur stdDeviation="6"/>
  </filter></defs>
  <rect width="850" height="1100" fill="url(#parchment)"/>
  <rect x="24" y="24" width="802" height="1052" fill="none" stroke="#8b6914" stroke-width="3" rx="12"/>
  
  <text x="425" y="72" text-anchor="middle" font-family="Georgia, 'Times New Roman', serif" font-size="20" fill="#8b6914" letter-spacing="6">RIFTWILDS</text>
  <text x="425" y="122" text-anchor="middle" font-family="Georgia, 'Times New Roman', serif" font-size="44" fill="#1a1510" font-weight="700">Riftling Trading Cards</text>
  <text x="425" y="158" text-anchor="middle" font-family="Georgia, 'Times New Roman', serif" font-size="20" fill="#5a5044">Fantasy collectibles · Cut · Trade · Battle lore</text>
  <g transform="translate(90,190)">
  
  <rect x="0" y="0" width="240" height="336" rx="14" fill="#12161c" stroke="url(#bronze)" stroke-width="5"/>
  <rect x="8" y="8" width="224" height="320" rx="10" fill="none" stroke="#ffb84d" stroke-width="2" opacity="0.85"/>
  <rect x="14" y="14" width="212" height="308" rx="8" fill="none" stroke="#e8d5b0" stroke-width="1" opacity="0.25"/>
  <!-- corner gems -->
  <circle cx="18" cy="18" r="5" fill="#ffb84d"/>
  <circle cx="222" cy="18" r="5" fill="#ffb84d"/>
  <circle cx="18" cy="318" r="5" fill="#ffb84d"/>
  <circle cx="222" cy="318" r="5" fill="#ffb84d"/>
  <!-- art window -->
  <rect x="22" y="22" width="196" height="168" rx="8" fill="#1a2744"/>
  <rect x="22" y="22" width="196" height="168" rx="8" fill="url(#cyanGlow)" opacity="0.5"/>
  <g transform="translate(22, 8) scale(0.95)">
    <ellipse cx="100" cy="182" rx="48" ry="9" fill="#2a2118" opacity="0.3"/>
    <!-- leaner body -->
    <ellipse cx="100" cy="132" rx="40" ry="38" fill="#e8a838"/>
    <ellipse cx="100" cy="124" rx="30" ry="28" fill="#ffc84a"/>
    <ellipse cx="90" cy="112" rx="10" ry="8" fill="#fff0a8" opacity="0.45"/>
    <!-- hind legs -->
    <path d="M70 150 Q62 168 68 178 Q78 176 80 160 Z" fill="#d4922a"/>
    <path d="M130 150 Q138 168 132 178 Q122 176 120 160 Z" fill="#d4922a"/>
    <ellipse cx="68" cy="178" rx="10" ry="5" fill="#b87820"/>
    <ellipse cx="132" cy="178" rx="10" ry="5" fill="#b87820"/>
    <!-- forelegs -->
    <path d="M62 128 Q48 145 52 160 Q64 158 70 140 Z" fill="#ffb84d"/>
    <path d="M138 128 Q152 145 148 160 Q136 158 130 140 Z" fill="#ffb84d"/>
    <!-- head (smaller vs body) -->
    <ellipse cx="100" cy="72" rx="34" ry="32" fill="#ffe566"/>
    <ellipse cx="100" cy="68" rx="24" ry="20" fill="#fff2a0"/>
    <!-- pointed ears -->
    <path d="M72 58 L60 18 L84 50 Z" fill="#ff9a2a"/>
    <path d="M72 52 L64 28 L80 48 Z" fill="#ffc84a"/>
    <path d="M128 58 L140 18 L116 50 Z" fill="#ff9a2a"/>
    <path d="M128 52 L136 28 L120 48 Z" fill="#ffc84a"/>
    <!-- flame mane crest -->
    <path d="M82 42c-10-20 0-34 16-38 0 12 6 20 12 26-10-2-18 2-28 12Z" fill="#ff5a20"/>
    <path d="M118 42c10-20 0-34-16-38 0 12-6 20-12 26 10-2 18 2 28 12Z" fill="#ff5a20"/>
    <path d="M100 12c5 8 7 16 3 26 9-5 12-14 9-26-3 3-7 3-12 0Z" fill="#ffb84d"/>
    <!-- determined face — smaller eyes -->
    <ellipse cx="88" cy="70" rx="4.5" ry="5.5" fill="#1a1510"/>
    <ellipse cx="112" cy="70" rx="4.5" ry="5.5" fill="#1a1510"/>
    <circle cx="89.5" cy="68.5" r="1.4" fill="#fff" opacity="0.85"/>
    <circle cx="113.5" cy="68.5" r="1.4" fill="#fff" opacity="0.85"/>
    <ellipse cx="100" cy="80" rx="4" ry="3" fill="#e85a28"/>
    <path d="M92 90c5 5 11 5 16 0" stroke="#1a1510" stroke-width="2.2" fill="none" stroke-linecap="round"/>
    <!-- cyan rift crystal brow -->
    <path d="M100 36 L110 54 L100 62 L90 54 Z" fill="#3de7ff"/>
    <path d="M100 40 L106 52 L100 58 L94 52 Z" fill="#a8f4ff" opacity="0.8"/>
    <!-- flame tail -->
    <path d="M142 120c22-2 32 12 24 32-12-8-18-4-24 8 4-14 2-26 0-40Z" fill="#ff7a3d"/>
    <path d="M148 128c12 0 18 8 14 18-7-4-11-2-14 4 2-8 0-14 0-22Z" fill="#ffe566"/>
    <circle cx="46" cy="48" r="2.5" fill="#3de7ff" opacity="0.9"/>
    <circle cx="162" cy="64" r="2" fill="#ffb84d" opacity="0.85"/>
  </g>
  <!-- rarity gem bar -->
  <rect x="22" y="198" width="196" height="18" rx="4" fill="#1a1510"/>
  <text x="120" y="211" text-anchor="middle" font-family="Georgia, serif" font-size="10" fill="#ffb84d" letter-spacing="2">★★★ COMPANION</text>
  <text x="120" y="238" text-anchor="middle" font-family="Georgia, serif" font-size="10" fill="#c4a882" letter-spacing="2">RIFTWILDS</text>
  <text x="120" y="268" text-anchor="middle" font-family="Georgia, serif" font-size="24" fill="#f3efe6" font-weight="700">Spark</text>
  <text x="120" y="290" text-anchor="middle" font-family="Georgia, serif" font-size="12" fill="#e8d5b0">Glowpup</text>
  <rect x="48" y="300" width="144" height="22" rx="4" fill="#ffb84d" opacity="0.92"/>
  <text x="120" y="315" text-anchor="middle" font-family="Georgia, serif" font-size="11" fill="#0c0e12" font-weight="700">Radiant</text>
  </g><rect x="86" y="186" width="248" height="344" rx="16" fill="none" stroke="#8b6914" stroke-width="2" stroke-dasharray="8 6" opacity="0.65"/><g transform="translate(440,190)">
  
  <rect x="0" y="0" width="240" height="336" rx="14" fill="#12161c" stroke="url(#bronze)" stroke-width="5"/>
  <rect x="8" y="8" width="224" height="320" rx="10" fill="none" stroke="#ff7a3d" stroke-width="2" opacity="0.85"/>
  <rect x="14" y="14" width="212" height="308" rx="8" fill="none" stroke="#e8d5b0" stroke-width="1" opacity="0.25"/>
  <!-- corner gems -->
  <circle cx="18" cy="18" r="5" fill="#ff7a3d"/>
  <circle cx="222" cy="18" r="5" fill="#ff7a3d"/>
  <circle cx="18" cy="318" r="5" fill="#ff7a3d"/>
  <circle cx="222" cy="318" r="5" fill="#ff7a3d"/>
  <!-- art window -->
  <rect x="22" y="22" width="196" height="168" rx="8" fill="#1a2744"/>
  <rect x="22" y="22" width="196" height="168" rx="8" fill="url(#cyanGlow)" opacity="0.5"/>
  <g transform="translate(22, 8) scale(0.95)">
    <ellipse cx="100" cy="178" rx="50" ry="10" fill="#2a2118" opacity="0.28"/>
    <ellipse cx="100" cy="132" rx="52" ry="40" fill="#e85a28"/>
    <ellipse cx="100" cy="124" rx="38" ry="30" fill="#ff8a4a"/>
    <ellipse cx="86" cy="112" rx="12" ry="9" fill="#ffc090" opacity="0.5"/>
    <ellipse cx="68" cy="164" rx="13" ry="15" fill="#c44820"/>
    <ellipse cx="132" cy="164" rx="13" ry="15" fill="#c44820"/>
    <ellipse cx="66" cy="176" rx="11" ry="6" fill="#a03818"/>
    <ellipse cx="134" cy="176" rx="11" ry="6" fill="#a03818"/>
    <ellipse cx="54" cy="138" rx="11" ry="15" fill="#ff7a3d" transform="rotate(-20 54 138)"/>
    <ellipse cx="146" cy="138" rx="11" ry="15" fill="#ff7a3d" transform="rotate(20 146 138)"/>
    <ellipse cx="100" cy="82" rx="42" ry="38" fill="#ff7a3d"/>
    <ellipse cx="100" cy="76" rx="30" ry="26" fill="#ffb084"/>
    <path d="M66 62 L52 28 L78 56 Z" fill="#ffb84d"/>
    <path d="M134 62 L148 28 L122 56 Z" fill="#ffb84d"/>
    <path d="M66 56 L56 36 L74 54 Z" fill="#ffe566"/>
    <path d="M134 56 L144 36 L126 54 Z" fill="#ffe566"/>
    <ellipse cx="86" cy="80" rx="6.5" ry="7.5" fill="#2a2118"/>
    <ellipse cx="114" cy="80" rx="6.5" ry="7.5" fill="#2a2118"/>
    <circle cx="88" cy="78" r="2" fill="#fff" opacity="0.85"/>
    <circle cx="116" cy="78" r="2" fill="#fff" opacity="0.85"/>
    <ellipse cx="100" cy="94" rx="8" ry="5" fill="#ff5c7a" opacity="0.7"/>
    <path d="M90 106c6 7 14 7 20 0" stroke="#2a2118" stroke-width="2.6" fill="none" stroke-linecap="round"/>
    <path d="M100 48 L108 64 L100 72 L92 64 Z" fill="#ffe566"/>
    <path d="M78 48c-6-16 4-26 16-28 0 10 4 18 10 22-10 0-18 2-26 6Z" fill="#ffb84d" opacity="0.85"/>
    <path d="M150 120c14 2 20 14 12 26-8-6-12-4-16 2 2-10 2-18 4-28Z" fill="#ff9a5c"/>
    <circle cx="44" cy="90" r="3" fill="#ffb84d" opacity="0.7"/>
  </g>
  <!-- rarity gem bar -->
  <rect x="22" y="198" width="196" height="18" rx="4" fill="#1a1510"/>
  <text x="120" y="211" text-anchor="middle" font-family="Georgia, serif" font-size="10" fill="#ff7a3d" letter-spacing="2">★★ UNCOMMON</text>
  <text x="120" y="238" text-anchor="middle" font-family="Georgia, serif" font-size="10" fill="#c4a882" letter-spacing="2">RIFTWILDS</text>
  <text x="120" y="268" text-anchor="middle" font-family="Georgia, serif" font-size="24" fill="#f3efe6" font-weight="700">Cindercub</text>
  <text x="120" y="290" text-anchor="middle" font-family="Georgia, serif" font-size="12" fill="#e8d5b0">Ember Cub</text>
  <rect x="48" y="300" width="144" height="22" rx="4" fill="#ff7a3d" opacity="0.92"/>
  <text x="120" y="315" text-anchor="middle" font-family="Georgia, serif" font-size="11" fill="#0c0e12" font-weight="700">Ember</text>
  </g><rect x="436" y="186" width="248" height="344" rx="16" fill="none" stroke="#8b6914" stroke-width="2" stroke-dasharray="8 6" opacity="0.65"/><g transform="translate(90,570)">
  
  <rect x="0" y="0" width="240" height="336" rx="14" fill="#12161c" stroke="url(#bronze)" stroke-width="5"/>
  <rect x="8" y="8" width="224" height="320" rx="10" fill="none" stroke="#5aad62" stroke-width="2" opacity="0.85"/>
  <rect x="14" y="14" width="212" height="308" rx="8" fill="none" stroke="#e8d5b0" stroke-width="1" opacity="0.25"/>
  <!-- corner gems -->
  <circle cx="18" cy="18" r="5" fill="#5aad62"/>
  <circle cx="222" cy="18" r="5" fill="#5aad62"/>
  <circle cx="18" cy="318" r="5" fill="#5aad62"/>
  <circle cx="222" cy="318" r="5" fill="#5aad62"/>
  <!-- art window -->
  <rect x="22" y="22" width="196" height="168" rx="8" fill="#1a2744"/>
  <rect x="22" y="22" width="196" height="168" rx="8" fill="url(#cyanGlow)" opacity="0.5"/>
  <g transform="translate(22, 8) scale(0.95)">
    <ellipse cx="100" cy="178" rx="48" ry="10" fill="#2a2118" opacity="0.26"/>
    <ellipse cx="100" cy="134" rx="46" ry="38" fill="#3d8a48"/>
    <ellipse cx="100" cy="126" rx="34" ry="28" fill="#5aad62"/>
    <ellipse cx="88" cy="114" rx="12" ry="9" fill="#8fd49a" opacity="0.55"/>
    <ellipse cx="70" cy="164" rx="12" ry="14" fill="#2f6a38"/>
    <ellipse cx="130" cy="164" rx="12" ry="14" fill="#2f6a38"/>
    <ellipse cx="68" cy="176" rx="10" ry="6" fill="#245030"/>
    <ellipse cx="132" cy="176" rx="10" ry="6" fill="#245030"/>
    <path d="M48 120 Q30 100 42 78 Q58 90 56 112 Z" fill="#4a9a58"/>
    <path d="M152 120 Q170 100 158 78 Q142 90 144 112 Z" fill="#4a9a58"/>
    <ellipse cx="100" cy="86" rx="38" ry="34" fill="#5aad62"/>
    <ellipse cx="100" cy="80" rx="26" ry="22" fill="#8fd49a"/>
    <ellipse cx="86" cy="82" rx="5.5" ry="6.5" fill="#2a2118"/>
    <ellipse cx="114" cy="82" rx="5.5" ry="6.5" fill="#2a2118"/>
    <circle cx="87.5" cy="80" r="1.8" fill="#fff" opacity="0.85"/>
    <circle cx="115.5" cy="80" r="1.8" fill="#fff" opacity="0.85"/>
    <path d="M90 98c6 7 14 7 20 0" stroke="#2a2118" stroke-width="2.5" fill="none" stroke-linecap="round"/>
    <!-- leaf crest -->
    <path d="M100 28c16 22 8 40-4 56 24-6 38-24 32-52-8 6-16 6-28-4Z" fill="#3dffb0"/>
    <path d="M100 36c10 14 6 28-2 40 16-4 26-16 22-36-6 4-12 4-20-4Z" fill="#7dffc0" opacity="0.75"/>
    <path d="M72 48c-10 18 0 32 12 40-16 4-30-6-30-26 6 2 10 0 18-14Z" fill="#4a9a58"/>
    <path d="M128 48c10 18 0 32-12 40 16 4 30-6 30-26-6 2-10 0-18-14Z" fill="#4a9a58"/>
    <path d="M100 54 L106 68 L100 74 L94 68 Z" fill="#3de7ff" opacity="0.85"/>
    <ellipse cx="42" cy="150" rx="8" ry="10" fill="#3d8a48"/>
    <ellipse cx="158" cy="150" rx="8" ry="10" fill="#3d8a48"/>
  </g>
  <!-- rarity gem bar -->
  <rect x="22" y="198" width="196" height="18" rx="4" fill="#1a1510"/>
  <text x="120" y="211" text-anchor="middle" font-family="Georgia, serif" font-size="10" fill="#5aad62" letter-spacing="2">★★ UNCOMMON</text>
  <text x="120" y="238" text-anchor="middle" font-family="Georgia, serif" font-size="10" fill="#c4a882" letter-spacing="2">RIFTWILDS</text>
  <text x="120" y="268" text-anchor="middle" font-family="Georgia, serif" font-size="24" fill="#f3efe6" font-weight="700">Mossprig</text>
  <text x="120" y="290" text-anchor="middle" font-family="Georgia, serif" font-size="12" fill="#e8d5b0">Grove Sprout</text>
  <rect x="48" y="300" width="144" height="22" rx="4" fill="#5aad62" opacity="0.92"/>
  <text x="120" y="315" text-anchor="middle" font-family="Georgia, serif" font-size="11" fill="#0c0e12" font-weight="700">Grove</text>
  </g><rect x="86" y="566" width="248" height="344" rx="16" fill="none" stroke="#8b6914" stroke-width="2" stroke-dasharray="8 6" opacity="0.65"/><g transform="translate(440,570)">
  
  <rect x="0" y="0" width="240" height="336" rx="14" fill="#12161c" stroke="url(#bronze)" stroke-width="5"/>
  <rect x="8" y="8" width="224" height="320" rx="10" fill="none" stroke="#3d9bff" stroke-width="2" opacity="0.85"/>
  <rect x="14" y="14" width="212" height="308" rx="8" fill="none" stroke="#e8d5b0" stroke-width="1" opacity="0.25"/>
  <!-- corner gems -->
  <circle cx="18" cy="18" r="5" fill="#3d9bff"/>
  <circle cx="222" cy="18" r="5" fill="#3d9bff"/>
  <circle cx="18" cy="318" r="5" fill="#3d9bff"/>
  <circle cx="222" cy="318" r="5" fill="#3d9bff"/>
  <!-- art window -->
  <rect x="22" y="22" width="196" height="168" rx="8" fill="#1a2744"/>
  <rect x="22" y="22" width="196" height="168" rx="8" fill="url(#cyanGlow)" opacity="0.5"/>
  <g transform="translate(22, 8) scale(0.95)">
    <ellipse cx="100" cy="180" rx="46" ry="9" fill="#2a2118" opacity="0.22"/>
    <circle cx="100" cy="110" r="58" fill="#2a6eb8" opacity="0.55"/>
    <circle cx="100" cy="110" r="52" fill="#3d9bff" opacity="0.75"/>
    <circle cx="100" cy="110" r="42" fill="#7ec8ff" opacity="0.85"/>
    <ellipse cx="82" cy="92" rx="16" ry="12" fill="#fff" opacity="0.4"/>
    <ellipse cx="88" cy="118" rx="6" ry="7" fill="#1a3048"/>
    <ellipse cx="116" cy="118" rx="6" ry="7" fill="#1a3048"/>
    <circle cx="90" cy="116" r="1.8" fill="#fff" opacity="0.9"/>
    <circle cx="118" cy="116" r="1.8" fill="#fff" opacity="0.9"/>
    <path d="M90 136c6 9 14 9 20 0" stroke="#1a3048" stroke-width="2.8" fill="none" stroke-linecap="round"/>
    <circle cx="52" cy="78" r="14" fill="#a8e7ff" opacity="0.7"/>
    <circle cx="154" cy="88" r="12" fill="#a8e7ff" opacity="0.6"/>
    <circle cx="148" cy="150" r="10" fill="#3de7ff" opacity="0.5"/>
    <circle cx="56" cy="148" r="9" fill="#3de7ff" opacity="0.45"/>
    <circle cx="100" cy="58" r="6" fill="#e8d5b0" opacity="0.9"/>
    <circle cx="100" cy="58" r="3.5" fill="#3de7ff"/>
    <path d="M70 160 Q100 178 130 160" fill="none" stroke="#7ec8ff" stroke-width="3" opacity="0.5"/>
  </g>
  <!-- rarity gem bar -->
  <rect x="22" y="198" width="196" height="18" rx="4" fill="#1a1510"/>
  <text x="120" y="211" text-anchor="middle" font-family="Georgia, serif" font-size="10" fill="#3d9bff" letter-spacing="2">★★ UNCOMMON</text>
  <text x="120" y="238" text-anchor="middle" font-family="Georgia, serif" font-size="10" fill="#c4a882" letter-spacing="2">RIFTWILDS</text>
  <text x="120" y="268" text-anchor="middle" font-family="Georgia, serif" font-size="24" fill="#f3efe6" font-weight="700">Bubbloon</text>
  <text x="120" y="290" text-anchor="middle" font-family="Georgia, serif" font-size="12" fill="#e8d5b0">Tide Bubble</text>
  <rect x="48" y="300" width="144" height="22" rx="4" fill="#3d9bff" opacity="0.92"/>
  <text x="120" y="315" text-anchor="middle" font-family="Georgia, serif" font-size="11" fill="#0c0e12" font-weight="700">Tide</text>
  </g><rect x="436" y="566" width="248" height="344" rx="16" fill="none" stroke="#8b6914" stroke-width="2" stroke-dasharray="8 6" opacity="0.65"/>
  <text x="425" y="1055" text-anchor="middle" font-family="Georgia, 'Times New Roman', serif" font-size="20" fill="#5a5044">Riftwilds · 300 DPI print · Personal use only · Not for resale</text>
  <text x="425" y="1081" text-anchor="middle" font-family="Georgia, 'Times New Roman', serif" font-size="16" fill="#7a7064">US Letter · ~2.5×3.5" cards</text>
</svg>