<?xml version="1.0" encoding="UTF-8"?>
<svg xmlns="http://www.w3.org/2000/svg" width="2550" height="3300" viewBox="0 0 850 1100">
  <defs>
  <linearGradient id="parchment" x1="0" y1="0" x2="0" y2="1">
    <stop stop-color="#f4e8d0"/><stop offset="0.55" stop-color="#e8d5b0"/><stop offset="1" stop-color="#d4bc8e"/>
  </linearGradient>
  <linearGradient id="ink" x1="0" y1="0" x2="0" y2="1">
    <stop stop-color="#1a1510"/><stop offset="0.5" stop-color="#141820"/><stop offset="1" stop-color="#0e1218"/>
  </linearGradient>
  <linearGradient id="bronze" x1="0" y1="0" x2="1" y2="1">
    <stop stop-color="#e8c878"/><stop offset="0.4" stop-color="#c4a882"/><stop offset="1" stop-color="#8b6914"/>
  </linearGradient>
  <linearGradient id="rift" x1="0" y1="0" x2="0" y2="1">
    <stop stop-color="#a8f4ff"/><stop offset="0.35" stop-color="#3de7ff"/><stop offset="0.7" stop-color="#1a8fb8"/><stop offset="1" stop-color="#0a4a68"/>
  </linearGradient>
  <linearGradient id="warmSky" x1="0" y1="0" x2="0" y2="1">
    <stop stop-color="#0a1018"/><stop offset="0.35" stop-color="#1a2438"/><stop offset="0.65" stop-color="#3a3028"/><stop offset="1" stop-color="#5a4030"/>
  </linearGradient>
  <linearGradient id="earth" x1="0" y1="0" x2="0" y2="1">
    <stop stop-color="#3d6a42"/><stop offset="0.45" stop-color="#2f5a3a"/><stop offset="1" stop-color="#1a3020"/>
  </linearGradient>
  <radialGradient id="amberGlow" cx="50%" cy="40%" r="50%">
    <stop stop-color="#ffe566" stop-opacity="0.55"/><stop offset="0.55" stop-color="#ffb84d" stop-opacity="0.2"/><stop offset="1" stop-color="#ffb84d" stop-opacity="0"/>
  </radialGradient>
  <radialGradient id="cyanGlow" cx="50%" cy="35%" r="55%">
    <stop stop-color="#3de7ff" stop-opacity="0.45"/><stop offset="0.6" stop-color="#3de7ff" stop-opacity="0.12"/><stop offset="1" stop-color="#3de7ff" stop-opacity="0"/>
  </radialGradient>
  <radialGradient id="emberBloom" cx="70%" cy="30%" r="45%">
    <stop stop-color="#ff7a3d" stop-opacity="0.35"/><stop offset="0.5" stop-color="#ffb84d" stop-opacity="0.12"/><stop offset="1" stop-color="#ffb84d" stop-opacity="0"/>
  </radialGradient>
  <filter id="soft" x="-30%" y="-30%" width="160%" height="160%">
    <feGaussianBlur stdDeviation="6"/>
  </filter>
  <filter id="glow" x="-40%" y="-40%" width="180%" height="180%">
    <feGaussianBlur stdDeviation="4" result="b"/><feMerge><feMergeNode in="b"/><feMergeNode in="SourceGraphic"/></feMerge>
  </filter></defs>
  <rect width="850" height="1100" fill="url(#parchment)"/>
  <rect x="24" y="24" width="802" height="1052" fill="none" stroke="#8b6914" stroke-width="3" rx="12"/>
  
  <text x="425" y="72" text-anchor="middle" font-family="Georgia, 'Times New Roman', serif" font-size="20" fill="#8b6914" letter-spacing="6">RIFTWILDS</text>
  <text x="425" y="122" text-anchor="middle" font-family="Georgia, 'Times New Roman', serif" font-size="44" fill="#1a1510" font-weight="700">Riftling Trading Cards</text>
  <text x="425" y="158" text-anchor="middle" font-family="Georgia, 'Times New Roman', serif" font-size="20" fill="#5a5044">Fantasy collectibles · Cut · Trade · Battle lore</text>
  <g transform="translate(90,190)">
  
  <rect x="0" y="0" width="240" height="336" rx="14" fill="#12161c" stroke="url(#bronze)" stroke-width="5"/>
  <rect x="8" y="8" width="224" height="320" rx="10" fill="none" stroke="#ffb84d" stroke-width="2" opacity="0.85"/>
  <rect x="14" y="14" width="212" height="308" rx="8" fill="none" stroke="#e8d5b0" stroke-width="1" opacity="0.25"/>
  <!-- corner gems -->
  <circle cx="18" cy="18" r="5" fill="#ffb84d"/>
  <circle cx="222" cy="18" r="5" fill="#ffb84d"/>
  <circle cx="18" cy="318" r="5" fill="#ffb84d"/>
  <circle cx="222" cy="318" r="5" fill="#ffb84d"/>
  <!-- art window — affinity atmosphere -->
  <rect x="22" y="22" width="196" height="168" rx="8" fill="#2a2010"/>
  <rect x="22" y="22" width="196" height="168" rx="8" fill="url(#cyanGlow)" opacity="0.35"/>
  <ellipse cx="120" cy="160" rx="70" ry="18" fill="#1a1510" opacity="0.45"/>
  <path d="M30 140 Q80 110 120 130 Q170 100 210 135 L210 185 L30 185 Z" fill="#2f5a3a" opacity="0.55"/>
  <ellipse cx="180" cy="60" rx="28" ry="40" fill="#3de7ff" opacity="0.18"/>
  <g transform="translate(22, 8) scale(0.95)">
    <ellipse cx="100" cy="186" rx="42" ry="8" fill="#2a2118" opacity="0.35"/>
    <!-- athletic torso — longer, less balloon -->
    <ellipse cx="100" cy="138" rx="34" ry="36" fill="#d4922a"/>
    <ellipse cx="100" cy="128" rx="26" ry="28" fill="#e8a838"/>
    <ellipse cx="92" cy="116" rx="8" ry="7" fill="#fff0a8" opacity="0.4"/>
    <!-- braced hind legs -->
    <path d="M72 152 Q58 172 64 184 Q78 180 82 162 Z" fill="#b87820"/>
    <path d="M128 152 Q142 172 136 184 Q122 180 118 162 Z" fill="#b87820"/>
    <ellipse cx="64" cy="184" rx="11" ry="5" fill="#8b5a18"/>
    <ellipse cx="136" cy="184" rx="11" ry="5" fill="#8b5a18"/>
    <!-- forward-planted forelegs -->
    <path d="M58 130 Q40 148 46 168 Q62 164 70 142 Z" fill="#ffb84d"/>
    <path d="M142 130 Q160 148 154 168 Q138 164 130 142 Z" fill="#ffb84d"/>
    <ellipse cx="46" cy="168" rx="9" ry="4" fill="#d4922a"/>
    <ellipse cx="154" cy="168" rx="9" ry="4" fill="#d4922a"/>
    <!-- compact head (game-true proportions) -->
    <ellipse cx="100" cy="68" rx="28" ry="26" fill="#ffe566"/>
    <ellipse cx="100" cy="64" rx="20" ry="16" fill="#fff2a0"/>
    <!-- tall pointed ears -->
    <path d="M76 54 L62 8 L88 46 Z" fill="#ff7a3d"/>
    <path d="M76 48 L66 20 L84 44 Z" fill="#ffc84a"/>
    <path d="M124 54 L138 8 L112 46 Z" fill="#ff7a3d"/>
    <path d="M124 48 L134 20 L116 44 Z" fill="#ffc84a"/>
    <!-- fierce flame mane -->
    <path d="M80 38c-14-24-2-42 18-48 2 14 8 24 14 32-12-4-22 2-32 16Z" fill="#ff3a10"/>
    <path d="M120 38c14-24 2-42-18-48-2 14-8 24-14 32 12-4 22 2 32 16Z" fill="#ff3a10"/>
    <path d="M100 4c6 10 8 20 2 32 12-6 16-18 12-34-4 4-8 4-14 2Z" fill="#ffb84d"/>
    <path d="M100 0c4 8 5 14 1 22 8-4 10-12 8-22-2 2-5 2-9 0Z" fill="#ffe566"/>
    <!-- determined narrowed eyes -->
    <path d="M82 64 L94 62" stroke="#1a1510" stroke-width="2.2" stroke-linecap="round"/>
    <path d="M118 64 L106 62" stroke="#1a1510" stroke-width="2.2" stroke-linecap="round"/>
    <ellipse cx="88" cy="70" rx="3.5" ry="4.5" fill="#1a1510"/>
    <ellipse cx="112" cy="70" rx="3.5" ry="4.5" fill="#1a1510"/>
    <circle cx="89" cy="68.5" r="1.1" fill="#3de7ff" opacity="0.95"/>
    <circle cx="113" cy="68.5" r="1.1" fill="#3de7ff" opacity="0.95"/>
    <ellipse cx="100" cy="80" rx="3.5" ry="2.5" fill="#c44820"/>
    <path d="M90 88c4 2 12 2 16 0" stroke="#1a1510" stroke-width="2" fill="none" stroke-linecap="round"/>
    <!-- cyan rift crystal brow — bright focus -->
    <path d="M100 30 L112 50 L100 60 L88 50 Z" fill="#3de7ff"/>
    <path d="M100 34 L108 48 L100 56 L92 48 Z" fill="#a8f4ff" opacity="0.9"/>
    <circle cx="100" cy="44" r="3" fill="#fff" opacity="0.55"/>
    <!-- sweeping flame tail -->
    <path d="M138 118c28-8 42 14 30 38-16-10-24-4-30 12 6-18 2-32 0-50Z" fill="#ff5a20"/>
    <path d="M146 126c16-2 24 10 18 22-10-6-14-2-18 6 4-10 2-18 0-28Z" fill="#ffe566"/>
    <circle cx="40" cy="42" r="2.5" fill="#3de7ff" opacity="0.95"/>
    <circle cx="168" cy="58" r="2" fill="#ffb84d" opacity="0.9"/>
    <circle cx="52" cy="96" r="1.5" fill="#a8f4ff" opacity="0.7"/>
  </g>
  <!-- rarity gem bar -->
  <rect x="22" y="198" width="196" height="18" rx="4" fill="#1a1510"/>
  <text x="120" y="211" text-anchor="middle" font-family="Georgia, serif" font-size="10" fill="#ffb84d" letter-spacing="2">★★★ COMPANION</text>
  <text x="120" y="238" text-anchor="middle" font-family="Georgia, serif" font-size="10" fill="#c4a882" letter-spacing="2">RIFTWILDS</text>
  <text x="120" y="268" text-anchor="middle" font-family="Georgia, serif" font-size="24" fill="#f3efe6" font-weight="700">Spark</text>
  <text x="120" y="290" text-anchor="middle" font-family="Georgia, serif" font-size="12" fill="#e8d5b0">Glowpup</text>
  <rect x="48" y="300" width="144" height="22" rx="4" fill="#ffb84d" opacity="0.92"/>
  <text x="120" y="315" text-anchor="middle" font-family="Georgia, serif" font-size="11" fill="#0c0e12" font-weight="700">Radiant</text>
  </g><rect x="86" y="186" width="248" height="344" rx="16" fill="none" stroke="#8b6914" stroke-width="2" stroke-dasharray="8 6" opacity="0.65"/><g transform="translate(440,190)">
  
  <rect x="0" y="0" width="240" height="336" rx="14" fill="#12161c" stroke="url(#bronze)" stroke-width="5"/>
  <rect x="8" y="8" width="224" height="320" rx="10" fill="none" stroke="#ff7a3d" stroke-width="2" opacity="0.85"/>
  <rect x="14" y="14" width="212" height="308" rx="8" fill="none" stroke="#e8d5b0" stroke-width="1" opacity="0.25"/>
  <!-- corner gems -->
  <circle cx="18" cy="18" r="5" fill="#ff7a3d"/>
  <circle cx="222" cy="18" r="5" fill="#ff7a3d"/>
  <circle cx="18" cy="318" r="5" fill="#ff7a3d"/>
  <circle cx="222" cy="318" r="5" fill="#ff7a3d"/>
  <!-- art window — affinity atmosphere -->
  <rect x="22" y="22" width="196" height="168" rx="8" fill="#2a1410"/>
  <rect x="22" y="22" width="196" height="168" rx="8" fill="url(#cyanGlow)" opacity="0.35"/>
  <ellipse cx="120" cy="160" rx="70" ry="18" fill="#1a1510" opacity="0.45"/>
  <path d="M30 140 Q80 110 120 130 Q170 100 210 135 L210 185 L30 185 Z" fill="#2f5a3a" opacity="0.55"/>
  
  <g transform="translate(22, 8) scale(0.95)">
    <ellipse cx="100" cy="178" rx="50" ry="10" fill="#2a2118" opacity="0.28"/>
    <ellipse cx="100" cy="132" rx="52" ry="40" fill="#e85a28"/>
    <ellipse cx="100" cy="124" rx="38" ry="30" fill="#ff8a4a"/>
    <ellipse cx="86" cy="112" rx="12" ry="9" fill="#ffc090" opacity="0.5"/>
    <ellipse cx="68" cy="164" rx="13" ry="15" fill="#c44820"/>
    <ellipse cx="132" cy="164" rx="13" ry="15" fill="#c44820"/>
    <ellipse cx="66" cy="176" rx="11" ry="6" fill="#a03818"/>
    <ellipse cx="134" cy="176" rx="11" ry="6" fill="#a03818"/>
    <ellipse cx="54" cy="138" rx="11" ry="15" fill="#ff7a3d" transform="rotate(-20 54 138)"/>
    <ellipse cx="146" cy="138" rx="11" ry="15" fill="#ff7a3d" transform="rotate(20 146 138)"/>
    <ellipse cx="100" cy="82" rx="42" ry="38" fill="#ff7a3d"/>
    <ellipse cx="100" cy="76" rx="30" ry="26" fill="#ffb084"/>
    <path d="M66 62 L52 28 L78 56 Z" fill="#ffb84d"/>
    <path d="M134 62 L148 28 L122 56 Z" fill="#ffb84d"/>
    <path d="M66 56 L56 36 L74 54 Z" fill="#ffe566"/>
    <path d="M134 56 L144 36 L126 54 Z" fill="#ffe566"/>
    <ellipse cx="86" cy="80" rx="6.5" ry="7.5" fill="#2a2118"/>
    <ellipse cx="114" cy="80" rx="6.5" ry="7.5" fill="#2a2118"/>
    <circle cx="88" cy="78" r="2" fill="#fff" opacity="0.85"/>
    <circle cx="116" cy="78" r="2" fill="#fff" opacity="0.85"/>
    <ellipse cx="100" cy="94" rx="8" ry="5" fill="#ff5c7a" opacity="0.7"/>
    <path d="M90 106c6 7 14 7 20 0" stroke="#2a2118" stroke-width="2.6" fill="none" stroke-linecap="round"/>
    <path d="M100 48 L108 64 L100 72 L92 64 Z" fill="#ffe566"/>
    <path d="M78 48c-6-16 4-26 16-28 0 10 4 18 10 22-10 0-18 2-26 6Z" fill="#ffb84d" opacity="0.85"/>
    <path d="M150 120c14 2 20 14 12 26-8-6-12-4-16 2 2-10 2-18 4-28Z" fill="#ff9a5c"/>
    <circle cx="44" cy="90" r="3" fill="#ffb84d" opacity="0.7"/>
  </g>
  <!-- rarity gem bar -->
  <rect x="22" y="198" width="196" height="18" rx="4" fill="#1a1510"/>
  <text x="120" y="211" text-anchor="middle" font-family="Georgia, serif" font-size="10" fill="#ff7a3d" letter-spacing="2">★★ UNCOMMON</text>
  <text x="120" y="238" text-anchor="middle" font-family="Georgia, serif" font-size="10" fill="#c4a882" letter-spacing="2">RIFTWILDS</text>
  <text x="120" y="268" text-anchor="middle" font-family="Georgia, serif" font-size="24" fill="#f3efe6" font-weight="700">Cindercub</text>
  <text x="120" y="290" text-anchor="middle" font-family="Georgia, serif" font-size="12" fill="#e8d5b0">Ember Cub</text>
  <rect x="48" y="300" width="144" height="22" rx="4" fill="#ff7a3d" opacity="0.92"/>
  <text x="120" y="315" text-anchor="middle" font-family="Georgia, serif" font-size="11" fill="#0c0e12" font-weight="700">Ember</text>
  </g><rect x="436" y="186" width="248" height="344" rx="16" fill="none" stroke="#8b6914" stroke-width="2" stroke-dasharray="8 6" opacity="0.65"/><g transform="translate(90,570)">
  
  <rect x="0" y="0" width="240" height="336" rx="14" fill="#12161c" stroke="url(#bronze)" stroke-width="5"/>
  <rect x="8" y="8" width="224" height="320" rx="10" fill="none" stroke="#5aad62" stroke-width="2" opacity="0.85"/>
  <rect x="14" y="14" width="212" height="308" rx="8" fill="none" stroke="#e8d5b0" stroke-width="1" opacity="0.25"/>
  <!-- corner gems -->
  <circle cx="18" cy="18" r="5" fill="#5aad62"/>
  <circle cx="222" cy="18" r="5" fill="#5aad62"/>
  <circle cx="18" cy="318" r="5" fill="#5aad62"/>
  <circle cx="222" cy="318" r="5" fill="#5aad62"/>
  <!-- art window — affinity atmosphere -->
  <rect x="22" y="22" width="196" height="168" rx="8" fill="#102018"/>
  <rect x="22" y="22" width="196" height="168" rx="8" fill="url(#cyanGlow)" opacity="0.35"/>
  <ellipse cx="120" cy="160" rx="70" ry="18" fill="#1a1510" opacity="0.45"/>
  <path d="M30 140 Q80 110 120 130 Q170 100 210 135 L210 185 L30 185 Z" fill="#2f5a3a" opacity="0.55"/>
  
  <g transform="translate(22, 8) scale(0.95)">
    <ellipse cx="100" cy="178" rx="48" ry="10" fill="#2a2118" opacity="0.26"/>
    <ellipse cx="100" cy="134" rx="46" ry="38" fill="#3d8a48"/>
    <ellipse cx="100" cy="126" rx="34" ry="28" fill="#5aad62"/>
    <ellipse cx="88" cy="114" rx="12" ry="9" fill="#8fd49a" opacity="0.55"/>
    <ellipse cx="70" cy="164" rx="12" ry="14" fill="#2f6a38"/>
    <ellipse cx="130" cy="164" rx="12" ry="14" fill="#2f6a38"/>
    <ellipse cx="68" cy="176" rx="10" ry="6" fill="#245030"/>
    <ellipse cx="132" cy="176" rx="10" ry="6" fill="#245030"/>
    <path d="M48 120 Q30 100 42 78 Q58 90 56 112 Z" fill="#4a9a58"/>
    <path d="M152 120 Q170 100 158 78 Q142 90 144 112 Z" fill="#4a9a58"/>
    <ellipse cx="100" cy="86" rx="38" ry="34" fill="#5aad62"/>
    <ellipse cx="100" cy="80" rx="26" ry="22" fill="#8fd49a"/>
    <ellipse cx="86" cy="82" rx="5.5" ry="6.5" fill="#2a2118"/>
    <ellipse cx="114" cy="82" rx="5.5" ry="6.5" fill="#2a2118"/>
    <circle cx="87.5" cy="80" r="1.8" fill="#fff" opacity="0.85"/>
    <circle cx="115.5" cy="80" r="1.8" fill="#fff" opacity="0.85"/>
    <path d="M90 98c6 7 14 7 20 0" stroke="#2a2118" stroke-width="2.5" fill="none" stroke-linecap="round"/>
    <!-- leaf crest -->
    <path d="M100 28c16 22 8 40-4 56 24-6 38-24 32-52-8 6-16 6-28-4Z" fill="#3dffb0"/>
    <path d="M100 36c10 14 6 28-2 40 16-4 26-16 22-36-6 4-12 4-20-4Z" fill="#7dffc0" opacity="0.75"/>
    <path d="M72 48c-10 18 0 32 12 40-16 4-30-6-30-26 6 2 10 0 18-14Z" fill="#4a9a58"/>
    <path d="M128 48c10 18 0 32-12 40 16 4 30-6 30-26-6 2-10 0-18-14Z" fill="#4a9a58"/>
    <path d="M100 54 L106 68 L100 74 L94 68 Z" fill="#3de7ff" opacity="0.85"/>
    <ellipse cx="42" cy="150" rx="8" ry="10" fill="#3d8a48"/>
    <ellipse cx="158" cy="150" rx="8" ry="10" fill="#3d8a48"/>
  </g>
  <!-- rarity gem bar -->
  <rect x="22" y="198" width="196" height="18" rx="4" fill="#1a1510"/>
  <text x="120" y="211" text-anchor="middle" font-family="Georgia, serif" font-size="10" fill="#5aad62" letter-spacing="2">★★ UNCOMMON</text>
  <text x="120" y="238" text-anchor="middle" font-family="Georgia, serif" font-size="10" fill="#c4a882" letter-spacing="2">RIFTWILDS</text>
  <text x="120" y="268" text-anchor="middle" font-family="Georgia, serif" font-size="24" fill="#f3efe6" font-weight="700">Mossprig</text>
  <text x="120" y="290" text-anchor="middle" font-family="Georgia, serif" font-size="12" fill="#e8d5b0">Grove Sprout</text>
  <rect x="48" y="300" width="144" height="22" rx="4" fill="#5aad62" opacity="0.92"/>
  <text x="120" y="315" text-anchor="middle" font-family="Georgia, serif" font-size="11" fill="#0c0e12" font-weight="700">Grove</text>
  </g><rect x="86" y="566" width="248" height="344" rx="16" fill="none" stroke="#8b6914" stroke-width="2" stroke-dasharray="8 6" opacity="0.65"/><g transform="translate(440,570)">
  
  <rect x="0" y="0" width="240" height="336" rx="14" fill="#12161c" stroke="url(#bronze)" stroke-width="5"/>
  <rect x="8" y="8" width="224" height="320" rx="10" fill="none" stroke="#3d9bff" stroke-width="2" opacity="0.85"/>
  <rect x="14" y="14" width="212" height="308" rx="8" fill="none" stroke="#e8d5b0" stroke-width="1" opacity="0.25"/>
  <!-- corner gems -->
  <circle cx="18" cy="18" r="5" fill="#3d9bff"/>
  <circle cx="222" cy="18" r="5" fill="#3d9bff"/>
  <circle cx="18" cy="318" r="5" fill="#3d9bff"/>
  <circle cx="222" cy="318" r="5" fill="#3d9bff"/>
  <!-- art window — affinity atmosphere -->
  <rect x="22" y="22" width="196" height="168" rx="8" fill="#102028"/>
  <rect x="22" y="22" width="196" height="168" rx="8" fill="url(#cyanGlow)" opacity="0.35"/>
  <ellipse cx="120" cy="160" rx="70" ry="18" fill="#1a1510" opacity="0.45"/>
  <path d="M30 140 Q80 110 120 130 Q170 100 210 135 L210 185 L30 185 Z" fill="#2f5a3a" opacity="0.55"/>
  <ellipse cx="180" cy="60" rx="28" ry="40" fill="#3de7ff" opacity="0.18"/>
  <g transform="translate(22, 8) scale(0.95)">
    <ellipse cx="100" cy="180" rx="46" ry="9" fill="#2a2118" opacity="0.22"/>
    <circle cx="100" cy="110" r="58" fill="#2a6eb8" opacity="0.55"/>
    <circle cx="100" cy="110" r="52" fill="#3d9bff" opacity="0.75"/>
    <circle cx="100" cy="110" r="42" fill="#7ec8ff" opacity="0.85"/>
    <ellipse cx="82" cy="92" rx="16" ry="12" fill="#fff" opacity="0.4"/>
    <ellipse cx="88" cy="118" rx="6" ry="7" fill="#1a3048"/>
    <ellipse cx="116" cy="118" rx="6" ry="7" fill="#1a3048"/>
    <circle cx="90" cy="116" r="1.8" fill="#fff" opacity="0.9"/>
    <circle cx="118" cy="116" r="1.8" fill="#fff" opacity="0.9"/>
    <path d="M90 136c6 9 14 9 20 0" stroke="#1a3048" stroke-width="2.8" fill="none" stroke-linecap="round"/>
    <circle cx="52" cy="78" r="14" fill="#a8e7ff" opacity="0.7"/>
    <circle cx="154" cy="88" r="12" fill="#a8e7ff" opacity="0.6"/>
    <circle cx="148" cy="150" r="10" fill="#3de7ff" opacity="0.5"/>
    <circle cx="56" cy="148" r="9" fill="#3de7ff" opacity="0.45"/>
    <circle cx="100" cy="58" r="6" fill="#e8d5b0" opacity="0.9"/>
    <circle cx="100" cy="58" r="3.5" fill="#3de7ff"/>
    <path d="M70 160 Q100 178 130 160" fill="none" stroke="#7ec8ff" stroke-width="3" opacity="0.5"/>
  </g>
  <!-- rarity gem bar -->
  <rect x="22" y="198" width="196" height="18" rx="4" fill="#1a1510"/>
  <text x="120" y="211" text-anchor="middle" font-family="Georgia, serif" font-size="10" fill="#3d9bff" letter-spacing="2">★★ UNCOMMON</text>
  <text x="120" y="238" text-anchor="middle" font-family="Georgia, serif" font-size="10" fill="#c4a882" letter-spacing="2">RIFTWILDS</text>
  <text x="120" y="268" text-anchor="middle" font-family="Georgia, serif" font-size="24" fill="#f3efe6" font-weight="700">Bubbloon</text>
  <text x="120" y="290" text-anchor="middle" font-family="Georgia, serif" font-size="12" fill="#e8d5b0">Tide Bubble</text>
  <rect x="48" y="300" width="144" height="22" rx="4" fill="#3d9bff" opacity="0.92"/>
  <text x="120" y="315" text-anchor="middle" font-family="Georgia, serif" font-size="11" fill="#0c0e12" font-weight="700">Tide</text>
  </g><rect x="436" y="566" width="248" height="344" rx="16" fill="none" stroke="#8b6914" stroke-width="2" stroke-dasharray="8 6" opacity="0.65"/>
  <text x="425" y="1055" text-anchor="middle" font-family="Georgia, 'Times New Roman', serif" font-size="20" fill="#5a5044">Riftwilds · 300 DPI print · Personal use only · Not for resale</text>
  <text x="425" y="1081" text-anchor="middle" font-family="Georgia, 'Times New Roman', serif" font-size="16" fill="#7a7064">US Letter · ~2.5×3.5" cards</text>
</svg>