<?xml version="1.0" encoding="UTF-8"?>
<svg xmlns="http://www.w3.org/2000/svg" width="1920" height="1080" viewBox="0 0 1920 1080">
  <defs>
    <linearGradient id="sky-cosmic-aurora" x1="0%" y1="0%" x2="0%" y2="100%">
      <stop offset="0%" stop-color="#020010"/><stop offset="35%" stop-color="#0a1838"/><stop offset="100%" stop-color="#1a0a30"/>
    </linearGradient>
    <linearGradient id="mid-cosmic-aurora" x1="0%" y1="0%" x2="100%" y2="100%">
      <stop offset="0%" stop-color="#3de7ff" stop-opacity="0.3"/><stop offset="40%" stop-color="#7b5cff" stop-opacity="0.35"/><stop offset="100%" stop-color="#ff6b9d" stop-opacity="0.25"/>
    </linearGradient>
    <radialGradient id="glow-cosmic-aurora" cx="50%" cy="35%" r="55%">
      <stop offset="0%" stop-color="#fff6d5" stop-opacity="0.55"/>
      <stop offset="45%" stop-color="#ffb84d" stop-opacity="0.18"/>
      <stop offset="100%" stop-color="#070b16" stop-opacity="0"/>
    </radialGradient>
    <linearGradient id="ground-cosmic-aurora" x1="0%" y1="0%" x2="0%" y2="100%">
      <stop offset="0%" stop-color="#0a1020"/><stop offset="100%" stop-color="#020008"/>
    </linearGradient>
    <filter id="soft-cosmic-aurora" x="-20%" y="-20%" width="140%" height="140%">
      <feGaussianBlur stdDeviation="8"/>
    </filter>
  </defs>
  <rect width="100%" height="100%" fill="url(#sky-cosmic-aurora)"/>
  <rect width="100%" height="100%" fill="url(#glow-cosmic-aurora)"/>
  
      <path d="M0 400 Q400 200 800 450 Q1200 700 1920 300" fill="none" stroke="#3de7ff" stroke-width="50" opacity="0.35" filter="url(#soft-cosmic-aurora)"/>
      <path d="M0 500 Q500 300 900 520 Q1400 750 1920 400" fill="none" stroke="#7b5cff" stroke-width="40" opacity="0.4" filter="url(#soft-cosmic-aurora)"/>
      <path d="M0 600 Q600 400 1000 580 Q1500 780 1920 500" fill="none" stroke="#ff6b9d" stroke-width="35" opacity="0.3" filter="url(#soft-cosmic-aurora)"/>
      <circle cx="200" cy="120" r="2" fill="#fff" opacity="0.95"/>
      <circle cx="450" cy="80" r="1.5" fill="#fff" opacity="0.85"/>
      <circle cx="700" cy="150" r="2.5" fill="#fff" opacity="0.9"/>
      <circle cx="1100" cy="60" r="2" fill="#fff" opacity="0.9"/>
      <circle cx="1400" cy="130" r="1.5" fill="#3de7ff" opacity="0.95"/>
      <circle cx="1700" cy="90" r="2" fill="#fff" opacity="0.85"/>
      <circle cx="960" cy="200" r="60" fill="#fff6d5" opacity="0.15" filter="url(#soft-cosmic-aurora)"/>
      <ellipse cx="960" cy="950" rx="700" ry="60" fill="#1a1040" opacity="0.45"/>
    
  <rect y="620" width="100%" height="460" fill="url(#ground-cosmic-aurora)"/>
  <rect y="0" width="100%" height="100%" fill="url(#mid-cosmic-aurora)" opacity="0.22"/>
  <!-- brand whisper -->
  <text x="60" y="1020" font-family="Georgia, serif" font-size="28" fill="#e8d5b0" opacity="0.55">Cosmic Rift Aurora</text>
  <text x="60" y="1050" font-family="Georgia, serif" font-size="16" fill="#c4a882" opacity="0.4">Riftwilds</text>
</svg>