<?xml version="1.0" encoding="UTF-8"?>
<svg xmlns="http://www.w3.org/2000/svg" width="1920" height="1080" viewBox="0 0 1920 1080">
  <defs>
    <linearGradient id="sky-festival-lanterns" x1="0%" y1="0%" x2="0%" y2="100%">
      <stop offset="0%" stop-color="#1a1030"/><stop offset="50%" stop-color="#3d2060"/><stop offset="100%" stop-color="#8b4518"/>
    </linearGradient>
    <linearGradient id="mid-festival-lanterns" x1="0%" y1="0%" x2="100%" y2="100%">
      <stop offset="0%" stop-color="#ffb84d" stop-opacity="0.25"/><stop offset="100%" stop-color="#ff6b9d" stop-opacity="0.15"/>
    </linearGradient>
    <radialGradient id="glow-festival-lanterns" cx="50%" cy="35%" r="55%">
      <stop offset="0%" stop-color="#fff6d5" stop-opacity="0.55"/>
      <stop offset="45%" stop-color="#ffb84d" stop-opacity="0.18"/>
      <stop offset="100%" stop-color="#070b16" stop-opacity="0"/>
    </radialGradient>
    <linearGradient id="ground-festival-lanterns" x1="0%" y1="0%" x2="0%" y2="100%">
      <stop offset="0%" stop-color="#3a2818"/><stop offset="100%" stop-color="#1a1008"/>
    </linearGradient>
    <filter id="soft-festival-lanterns" x="-20%" y="-20%" width="140%" height="140%">
      <feGaussianBlur stdDeviation="8"/>
    </filter>
  </defs>
  <rect width="100%" height="100%" fill="url(#sky-festival-lanterns)"/>
  <rect width="100%" height="100%" fill="url(#glow-festival-lanterns)"/>
  
      <ellipse cx="400" cy="380" rx="36" ry="48" fill="#ffb84d" opacity="0.85"/>
      <ellipse cx="700" cy="320" rx="32" ry="44" fill="#ff8fab" opacity="0.8"/>
      <ellipse cx="1000" cy="360" rx="38" ry="50" fill="#3de7ff" opacity="0.75"/>
      <ellipse cx="1300" cy="300" rx="34" ry="46" fill="#ffd166" opacity="0.85"/>
      <ellipse cx="1600" cy="380" rx="30" ry="42" fill="#c77dff" opacity="0.8"/>
      <path d="M400 428 V700 M700 364 V680 M1000 410 V720 M1300 346 V660 M1600 422 V700" stroke="#e8d5b0" stroke-width="2" opacity="0.35"/>
      <path d="M0 800 Q480 720 960 780 Q1440 840 1920 760" fill="none" stroke="#ffb84d" stroke-width="3" opacity="0.3"/>
      <circle cx="250" cy="150" r="2" fill="#fff" opacity="0.7"/>
      <circle cx="900" cy="120" r="2.5" fill="#fff" opacity="0.8"/>
      <circle cx="1700" cy="160" r="2" fill="#fff" opacity="0.7"/>
    
  <rect y="620" width="100%" height="460" fill="url(#ground-festival-lanterns)"/>
  <rect y="0" width="100%" height="100%" fill="url(#mid-festival-lanterns)" opacity="0.22"/>
  <!-- brand whisper -->
  <text x="60" y="1020" font-family="Georgia, serif" font-size="28" fill="#e8d5b0" opacity="0.55">Festival Lanterns</text>
  <text x="60" y="1050" font-family="Georgia, serif" font-size="16" fill="#c4a882" opacity="0.4">Riftwilds</text>
</svg>