<?xml version="1.0" encoding="UTF-8"?>
<svg xmlns="http://www.w3.org/2000/svg" width="1920" height="1080" viewBox="0 0 1920 1080">
  <defs>
    <linearGradient id="sky-homestead-dusk" x1="0%" y1="0%" x2="0%" y2="100%">
      <stop offset="0%" stop-color="#2a1840"/><stop offset="45%" stop-color="#8b4060"/><stop offset="100%" stop-color="#f0a060"/>
    </linearGradient>
    <linearGradient id="mid-homestead-dusk" x1="0%" y1="0%" x2="100%" y2="100%">
      <stop offset="0%" stop-color="#ffb84d" stop-opacity="0.2"/><stop offset="100%" stop-color="#ff6b6b" stop-opacity="0.1"/>
    </linearGradient>
    <radialGradient id="glow-homestead-dusk" cx="50%" cy="35%" r="55%">
      <stop offset="0%" stop-color="#fff6d5" stop-opacity="0.55"/>
      <stop offset="45%" stop-color="#ffb84d" stop-opacity="0.18"/>
      <stop offset="100%" stop-color="#070b16" stop-opacity="0"/>
    </radialGradient>
    <linearGradient id="ground-homestead-dusk" x1="0%" y1="0%" x2="0%" y2="100%">
      <stop offset="0%" stop-color="#4a3828"/><stop offset="100%" stop-color="#2a1c14"/>
    </linearGradient>
    <filter id="soft-homestead-dusk" x="-20%" y="-20%" width="140%" height="140%">
      <feGaussianBlur stdDeviation="8"/>
    </filter>
  </defs>
  <rect width="100%" height="100%" fill="url(#sky-homestead-dusk)"/>
  <rect width="100%" height="100%" fill="url(#glow-homestead-dusk)"/>
  
      <path d="M600 700 L780 520 L1100 520 L1280 700 Z" fill="#c4a082" opacity="0.8"/>
      <rect x="700" y="700" width="480" height="180" fill="#8b6914" opacity="0.75"/>
      <rect x="880" y="760" width="80" height="120" fill="#3d2814" opacity="0.7"/>
      <rect x="780" y="740" width="50" height="50" fill="#ffd27a" opacity="0.55"/>
      <rect x="1040" y="740" width="50" height="50" fill="#ffd27a" opacity="0.5"/>
      <circle cx="1500" cy="280" r="70" fill="#ff8c5a" opacity="0.75"/>
      <ellipse cx="400" cy="780" rx="60" ry="100" fill="#2d5a38" opacity="0.6"/>
      <ellipse cx="1500" cy="800" rx="80" ry="120" fill="#2d5a38" opacity="0.55"/>
      <path d="M0 880 Q960 820 1920 880 L1920 1080 L0 1080 Z" fill="#3a2818" opacity="0.7"/>
    
  <rect y="620" width="100%" height="460" fill="url(#ground-homestead-dusk)"/>
  <rect y="0" width="100%" height="100%" fill="url(#mid-homestead-dusk)" opacity="0.22"/>
  <!-- brand whisper -->
  <text x="60" y="1020" font-family="Georgia, serif" font-size="28" fill="#e8d5b0" opacity="0.55">Homestead Dusk</text>
  <text x="60" y="1050" font-family="Georgia, serif" font-size="16" fill="#c4a882" opacity="0.4">Riftwilds</text>
</svg>