<?xml version="1.0" encoding="UTF-8"?>
<svg xmlns="http://www.w3.org/2000/svg" width="1920" height="1080" viewBox="0 0 1920 1080">
  <defs>
    <linearGradient id="sky-keeper-academy" x1="0%" y1="0%" x2="0%" y2="100%">
      <stop offset="0%" stop-color="#1a2744"/><stop offset="55%" stop-color="#3d5a80"/><stop offset="100%" stop-color="#e8c4a0"/>
    </linearGradient>
    <linearGradient id="mid-keeper-academy" x1="0%" y1="0%" x2="100%" y2="100%">
      <stop offset="0%" stop-color="#c4a882" stop-opacity="0.15"/><stop offset="100%" stop-color="#3de7ff" stop-opacity="0.1"/>
    </linearGradient>
    <radialGradient id="glow-keeper-academy" cx="50%" cy="35%" r="55%">
      <stop offset="0%" stop-color="#fff6d5" stop-opacity="0.55"/>
      <stop offset="45%" stop-color="#ffb84d" stop-opacity="0.18"/>
      <stop offset="100%" stop-color="#070b16" stop-opacity="0"/>
    </radialGradient>
    <linearGradient id="ground-keeper-academy" x1="0%" y1="0%" x2="0%" y2="100%">
      <stop offset="0%" stop-color="#4a3a28"/><stop offset="100%" stop-color="#2a2014"/>
    </linearGradient>
    <filter id="soft-keeper-academy" x="-20%" y="-20%" width="140%" height="140%">
      <feGaussianBlur stdDeviation="8"/>
    </filter>
  </defs>
  <rect width="100%" height="100%" fill="url(#sky-keeper-academy)"/>
  <rect width="100%" height="100%" fill="url(#glow-keeper-academy)"/>
  
      <rect x="560" y="360" width="800" height="420" fill="#d4c4a8" opacity="0.8"/>
      <path d="M520 360 L960 180 L1400 360 Z" fill="#c4a882" opacity="0.85"/>
      <rect x="900" y="560" width="120" height="220" fill="#3d2814" opacity="0.65"/>
      <circle cx="960" cy="280" r="36" fill="#3de7ff" opacity="0.45"/>
      <rect x="640" y="440" width="70" height="90" fill="#1a2744" opacity="0.5"/>
      <rect x="780" y="440" width="70" height="90" fill="#1a2744" opacity="0.5"/>
      <rect x="1070" y="440" width="70" height="90" fill="#1a2744" opacity="0.5"/>
      <rect x="1210" y="440" width="70" height="90" fill="#1a2744" opacity="0.5"/>
      <path d="M0 820 Q960 760 1920 820 L1920 1080 L0 1080 Z" fill="#3a3020" opacity="0.7"/>
      <circle cx="1600" cy="220" r="60" fill="#ffd27a" opacity="0.65"/>
    
  <rect y="620" width="100%" height="460" fill="url(#ground-keeper-academy)"/>
  <rect y="0" width="100%" height="100%" fill="url(#mid-keeper-academy)" opacity="0.22"/>
  <!-- brand whisper -->
  <text x="60" y="1020" font-family="Georgia, serif" font-size="28" fill="#e8d5b0" opacity="0.55">Keeper Academy</text>
  <text x="60" y="1050" font-family="Georgia, serif" font-size="16" fill="#c4a882" opacity="0.4">Riftwilds</text>
</svg>