<?xml version="1.0" encoding="UTF-8"?>
<svg xmlns="http://www.w3.org/2000/svg" width="1920" height="1080" viewBox="0 0 1920 1080">
  <defs>
    <linearGradient id="sky-lantern-street" x1="0%" y1="0%" x2="0%" y2="100%">
      <stop offset="0%" stop-color="#050810"/><stop offset="70%" stop-color="#121c30"/><stop offset="100%" stop-color="#2a2038"/>
    </linearGradient>
    <linearGradient id="mid-lantern-street" x1="0%" y1="0%" x2="100%" y2="100%">
      <stop offset="0%" stop-color="#ffb84d" stop-opacity="0.12"/><stop offset="100%" stop-color="#3de7ff" stop-opacity="0.08"/>
    </linearGradient>
    <radialGradient id="glow-lantern-street" cx="50%" cy="35%" r="55%">
      <stop offset="0%" stop-color="#fff6d5" stop-opacity="0.55"/>
      <stop offset="45%" stop-color="#ffb84d" stop-opacity="0.18"/>
      <stop offset="100%" stop-color="#070b16" stop-opacity="0"/>
    </radialGradient>
    <linearGradient id="ground-lantern-street" x1="0%" y1="0%" x2="0%" y2="100%">
      <stop offset="0%" stop-color="#1a1520"/><stop offset="100%" stop-color="#0a0810"/>
    </linearGradient>
    <filter id="soft-lantern-street" x="-20%" y="-20%" width="140%" height="140%">
      <feGaussianBlur stdDeviation="8"/>
    </filter>
  </defs>
  <rect width="100%" height="100%" fill="url(#sky-lantern-street)"/>
  <rect width="100%" height="100%" fill="url(#glow-lantern-street)"/>
  
      <path d="M0 650 L400 500 L400 1080 L0 1080 Z" fill="#1e2438" opacity="0.7"/>
      <path d="M1520 480 L1920 620 L1920 1080 L1520 1080 Z" fill="#1e2438" opacity="0.7"/>
      <rect x="480" y="420" width="180" height="400" fill="#243048" opacity="0.75"/>
      <rect x="720" y="380" width="160" height="440" fill="#2a3450" opacity="0.7"/>
      <rect x="980" y="400" width="200" height="420" fill="#243048" opacity="0.75"/>
      <rect x="1240" y="360" width="150" height="460" fill="#2a3450" opacity="0.7"/>
      <circle cx="560" cy="500" r="18" fill="#ffb84d" opacity="0.9"/>
      <circle cx="800" cy="460" r="16" fill="#ffd27a" opacity="0.85"/>
      <circle cx="1080" cy="480" r="18" fill="#ffb84d" opacity="0.9"/>
      <circle cx="1320" cy="440" r="15" fill="#3de7ff" opacity="0.7"/>
      <path d="M200 900 Q960 820 1720 900" fill="none" stroke="#c4a882" stroke-width="40" opacity="0.15"/>
      <ellipse cx="960" cy="200" rx="80" ry="80" fill="#e8e0d0" opacity="0.25"/>
    
  <rect y="620" width="100%" height="460" fill="url(#ground-lantern-street)"/>
  <rect y="0" width="100%" height="100%" fill="url(#mid-lantern-street)" opacity="0.22"/>
  <!-- brand whisper -->
  <text x="60" y="1020" font-family="Georgia, serif" font-size="28" fill="#e8d5b0" opacity="0.55">Night Lantern Street</text>
  <text x="60" y="1050" font-family="Georgia, serif" font-size="16" fill="#c4a882" opacity="0.4">Riftwilds</text>
</svg>