<?xml version="1.0" encoding="UTF-8"?>
<svg xmlns="http://www.w3.org/2000/svg" width="1920" height="1080" viewBox="0 0 1920 1080">
  <defs>
    <linearGradient id="sky-moonwater-harbor" x1="0%" y1="0%" x2="0%" y2="100%">
      <stop offset="0%" stop-color="#0a1830"/><stop offset="50%" stop-color="#1a4060"/><stop offset="100%" stop-color="#4a7088"/>
    </linearGradient>
    <linearGradient id="mid-moonwater-harbor" x1="0%" y1="0%" x2="100%" y2="100%">
      <stop offset="0%" stop-color="#7ec8e3" stop-opacity="0.2"/><stop offset="100%" stop-color="#c4a882" stop-opacity="0.1"/>
    </linearGradient>
    <radialGradient id="glow-moonwater-harbor" cx="50%" cy="35%" r="55%">
      <stop offset="0%" stop-color="#fff6d5" stop-opacity="0.55"/>
      <stop offset="45%" stop-color="#ffb84d" stop-opacity="0.18"/>
      <stop offset="100%" stop-color="#070b16" stop-opacity="0"/>
    </radialGradient>
    <linearGradient id="ground-moonwater-harbor" x1="0%" y1="0%" x2="0%" y2="100%">
      <stop offset="0%" stop-color="#1a3048"/><stop offset="100%" stop-color="#0a1520"/>
    </linearGradient>
    <filter id="soft-moonwater-harbor" x="-20%" y="-20%" width="140%" height="140%">
      <feGaussianBlur stdDeviation="8"/>
    </filter>
  </defs>
  <rect width="100%" height="100%" fill="url(#sky-moonwater-harbor)"/>
  <rect width="100%" height="100%" fill="url(#glow-moonwater-harbor)"/>
  
      <ellipse cx="1400" cy="200" rx="100" ry="100" fill="#e8e8f0" opacity="0.55"/>
      <path d="M0 700 Q480 640 960 720 Q1440 800 1920 680 L1920 1080 L0 1080 Z" fill="#1a4058" opacity="0.75"/>
      <path d="M0 780 Q500 720 1000 800 Q1400 860 1920 760" fill="#2a6080" opacity="0.4"/>
      <rect x="300" y="560" width="18" height="160" fill="#8b6914" opacity="0.7"/>
      <path d="M318 560 L420 620 L318 640 Z" fill="#c4a882" opacity="0.65"/>
      <rect x="1200" y="540" width="16" height="180" fill="#8b6914" opacity="0.7"/>
      <path d="M1216 540 L1320 600 L1216 630 Z" fill="#d4b896" opacity="0.6"/>
      <ellipse cx="700" cy="820" rx="120" ry="20" fill="#0a2030" opacity="0.5"/>
      <path d="M640 820 Q700 780 760 820" fill="#c4a882" opacity="0.55"/>
    
  <rect y="620" width="100%" height="460" fill="url(#ground-moonwater-harbor)"/>
  <rect y="0" width="100%" height="100%" fill="url(#mid-moonwater-harbor)" opacity="0.22"/>
  <!-- brand whisper -->
  <text x="60" y="1020" font-family="Georgia, serif" font-size="28" fill="#e8d5b0" opacity="0.55">Moonwater Harbor</text>
  <text x="60" y="1050" font-family="Georgia, serif" font-size="16" fill="#c4a882" opacity="0.4">Riftwilds</text>
</svg>