<?xml version="1.0" encoding="UTF-8"?>
<svg xmlns="http://www.w3.org/2000/svg" width="1920" height="1080" viewBox="0 0 1920 1080">
  <defs>
    <linearGradient id="sky-radiant-castle" x1="0%" y1="0%" x2="0%" y2="100%">
      <stop offset="0%" stop-color="#1a1040"/><stop offset="50%" stop-color="#4a3080"/><stop offset="100%" stop-color="#f0a060"/>
    </linearGradient>
    <linearGradient id="mid-radiant-castle" x1="0%" y1="0%" x2="100%" y2="100%">
      <stop offset="0%" stop-color="#ffd27a" stop-opacity="0.2"/><stop offset="100%" stop-color="#7b5cff" stop-opacity="0.15"/>
    </linearGradient>
    <radialGradient id="glow-radiant-castle" cx="50%" cy="35%" r="55%">
      <stop offset="0%" stop-color="#fff6d5" stop-opacity="0.55"/>
      <stop offset="45%" stop-color="#ffb84d" stop-opacity="0.18"/>
      <stop offset="100%" stop-color="#070b16" stop-opacity="0"/>
    </radialGradient>
    <linearGradient id="ground-radiant-castle" x1="0%" y1="0%" x2="0%" y2="100%">
      <stop offset="0%" stop-color="#3a2a48"/><stop offset="100%" stop-color="#1a1020"/>
    </linearGradient>
    <filter id="soft-radiant-castle" x="-20%" y="-20%" width="140%" height="140%">
      <feGaussianBlur stdDeviation="8"/>
    </filter>
  </defs>
  <rect width="100%" height="100%" fill="url(#sky-radiant-castle)"/>
  <rect width="100%" height="100%" fill="url(#glow-radiant-castle)"/>
  
      <path d="M700 900 L700 400 L780 320 L860 400 L860 900 Z" fill="#e8d5b0" opacity="0.75"/>
      <path d="M860 900 L860 450 L960 350 L1060 450 L1060 900 Z" fill="#f0e0c0" opacity="0.8"/>
      <path d="M1060 900 L1060 420 L1140 340 L1220 420 L1220 900 Z" fill="#e8d5b0" opacity="0.75"/>
      <rect x="900" y="700" width="80" height="120" fill="#2a1840" opacity="0.6"/>
      <circle cx="1400" cy="220" r="80" fill="#ffb84d" opacity="0.7"/>
      <path d="M0 850 Q960 750 1920 850 L1920 1080 L0 1080 Z" fill="#2a2038" opacity="0.7"/>
      <circle cx="940" cy="520" r="8" fill="#3de7ff" opacity="0.8"/>
      <circle cx="980" cy="520" r="8" fill="#3de7ff" opacity="0.8"/>
    
  <rect y="620" width="100%" height="460" fill="url(#ground-radiant-castle)"/>
  <rect y="0" width="100%" height="100%" fill="url(#mid-radiant-castle)" opacity="0.22"/>
  <!-- brand whisper -->
  <text x="60" y="1020" font-family="Georgia, serif" font-size="28" fill="#e8d5b0" opacity="0.55">Radiant Castle</text>
  <text x="60" y="1050" font-family="Georgia, serif" font-size="16" fill="#c4a882" opacity="0.4">Riftwilds</text>
</svg>