<?xml version="1.0" encoding="UTF-8"?>
<svg xmlns="http://www.w3.org/2000/svg" width="1920" height="1080" viewBox="0 0 1920 1080">
  <defs>
    <linearGradient id="sky-spark-glow" x1="0%" y1="0%" x2="0%" y2="100%">
      <stop offset="0%" stop-color="#0a1228"/><stop offset="50%" stop-color="#1a3058"/><stop offset="100%" stop-color="#2a4a6e"/>
    </linearGradient>
    <linearGradient id="mid-spark-glow" x1="0%" y1="0%" x2="100%" y2="100%">
      <stop offset="0%" stop-color="#3de7ff" stop-opacity="0.35"/><stop offset="100%" stop-color="#ffb84d" stop-opacity="0.2"/>
    </linearGradient>
    <radialGradient id="glow-spark-glow" cx="50%" cy="35%" r="55%">
      <stop offset="0%" stop-color="#fff6d5" stop-opacity="0.55"/>
      <stop offset="45%" stop-color="#ffb84d" stop-opacity="0.18"/>
      <stop offset="100%" stop-color="#070b16" stop-opacity="0"/>
    </radialGradient>
    <linearGradient id="ground-spark-glow" x1="0%" y1="0%" x2="0%" y2="100%">
      <stop offset="0%" stop-color="#1a2438"/><stop offset="100%" stop-color="#0a1018"/>
    </linearGradient>
    <filter id="soft-spark-glow" x="-20%" y="-20%" width="140%" height="140%">
      <feGaussianBlur stdDeviation="8"/>
    </filter>
  </defs>
  <rect width="100%" height="100%" fill="url(#sky-spark-glow)"/>
  <rect width="100%" height="100%" fill="url(#glow-spark-glow)"/>
  
      <circle cx="960" cy="480" r="180" fill="#3de7ff" opacity="0.12" filter="url(#soft-spark-glow)"/>
      <ellipse cx="960" cy="500" rx="100" ry="115" fill="#b8d4ff" opacity="0.55"/>
      <ellipse cx="960" cy="470" rx="55" ry="40" fill="#ffffff" opacity="0.2"/>
      <circle cx="930" cy="455" r="10" fill="#0a1020"/>
      <circle cx="990" cy="455" r="10" fill="#0a1020"/>
      <path d="M900 400 Q880 340 930 395" fill="#b8d4ff" opacity="0.7"/>
      <path d="M1020 400 Q1040 340 990 395" fill="#b8d4ff" opacity="0.7"/>
      <circle cx="720" cy="300" r="6" fill="#fff6d5" opacity="0.9"/>
      <circle cx="1200" cy="260" r="5" fill="#3de7ff" opacity="0.9"/>
      <circle cx="1100" cy="380" r="4" fill="#ffb84d" opacity="0.85"/>
      <path d="M760 360 L780 400 L820 410 L780 420 L760 460 L740 420 L700 410 L740 400 Z" fill="#ffb84d" opacity="0.55"/>
    
  <rect y="620" width="100%" height="460" fill="url(#ground-spark-glow)"/>
  <rect y="0" width="100%" height="100%" fill="url(#mid-spark-glow)" opacity="0.22"/>
  <!-- brand whisper -->
  <text x="60" y="1020" font-family="Georgia, serif" font-size="28" fill="#e8d5b0" opacity="0.55">Spark Glow</text>
  <text x="60" y="1050" font-family="Georgia, serif" font-size="16" fill="#c4a882" opacity="0.4">Riftwilds</text>
</svg>